999
autodxfXMIN:0,0016526619057593
999
autodxfXMAX:525,0016526619058
999
autodxfYMIN:1,09904903E-07
999
autodxfYMAX:78,50836838804588
0
SECTION
2
HEADER
9
$ACADVER
1
AC1015
9
$DWGCODEPAGE
3
ANSI_1251
9
$HANDSEED
5
2BC
9
$ANGBASE
50
0.0
9
$ANGDIR
70
0
9
$ATTMODE
70
1
9
$AUNITS
70
0
9
$AUPREC
70
0
9
$CECOLOR
62
256
9
$CELTSCALE
40
1.0
9
$CELTYPE
6
ByLayer
9
$CELWEIGHT
370
-1
9
$CLAYER
8
0
9
$CMLJUST
70
0
9
$CMLSCALE
40
1.0
9
$CMLSTYLE
2
Standard
9
$DIMSTYLE
2
Standard
9
$TEXTSIZE
40
0.2
9
$TEXTSTYLE
7
Standard
9
$LUNITS
70
2
9
$LUPREC
70
4
9
$MIRRTEXT
70
0
9
$EXTNAMES
290
1
9
$INSBASE
10
0.0
20
0.0
30
0.0
9
$INSUNITS
70
4
9
$LTSCALE
40
1.0
9
$LWDISPLAY
290
0
9
$PDMODE
70
0
9
$PDSIZE
40
0.0
9
$PLINEGEN
70
0
9
$PSLTSCALE
70
1
9
$SPLINESEGS
70
6
9
$SURFU
70
6
9
$SURFV
70
6
9
$TDCREATE
40
2460728.47591434
9
$TDUCREATE
40
2460728.35091435
9
$TDUPDATE
40
2460728.47591434
9
$TDUUPDATE
40
2460728.35091435
9
$TDINDWG
40
0.0
9
$UCSORG
10
0.0
20
0.0
30
0.0
9
$UCSXDIR
10
1.0
20
0.0
30
0.0
9
$UCSYDIR
10
0.0
20
1.0
30
0.0
9
$DIMADEC
70
0
9
$DIMALT
70
0
9
$DIMALTD
70
2
9
$DIMALTF
40
25.4
9
$DIMALTRND
40
0.0
9
$DIMALTTD
70
2
9
$DIMALTTZ
70
0
9
$DIMALTU
70
2
9
$DIMALTZ
70
0
9
$DIMAPOST
1

9
$DIMATFIT
70
3
9
$DIMAUNIT
70
0
9
$DIMASZ
40
0.18
9
$DIMAZIN
70
3
9
$DIMSAH
70
0
9
$DIMBLK
1

9
$DIMLDRBLK
1

9
$DIMCEN
40
0.09
9
$DIMCLRD
70
0
9
$DIMCLRE
70
0
9
$DIMCLRT
70
0
9
$DIMDEC
70
4
9
$DIMDLE
40
0.0
9
$DIMDLI
40
0.38
9
$DIMDSEP
70
46
9
$DIMEXE
40
0.18
9
$DIMEXO
40
0.0625
9
$DIMFXLON
70
0
9
$DIMFXL
40
1.0
9
$DIMGAP
40
0.09
9
$DIMJUST
70
0
9
$DIMLFAC
40
1.0
9
$DIMLUNIT
70
2
9
$DIMLWD
70
-2
9
$DIMLWE
70
-2
9
$DIMPOST
1

9
$DIMRND
40
0.0
9
$DIMSCALE
40
1.0
9
$DIMSD1
70
0
9
$DIMSD2
70
0
9
$DIMSE1
70
0
9
$DIMSE2
70
0
9
$DIMSOXD
70
0
9
$DIMTAD
70
0
9
$DIMTDEC
70
4
9
$DIMTFAC
40
1.0
9
$DIMTIH
70
0
9
$DIMTIX
70
0
9
$DIMTM
40
0.0
9
$DIMTMOVE
70
0
9
$DIMTOFL
70
0
9
$DIMTOH
70
0
9
$DIMTOL
70
0
9
$DIMLIM
70
0
9
$DIMTOLJ
70
1
9
$DIMTP
40
0.0
9
$DIMTXT
40
0.18
9
$DIMTXTDIRECTION
70
0
9
$DIMTZIN
70
0
9
$DIMZIN
70
0
9
$DIMFRAC
70
0
9
$DIMLTYPE
6
ByBlock
9
$DIMLTEX1
6
ByBlock
9
$DIMLTEX2
6
ByBlock
9
$EXTMIN
10
0.0
20
0.0
30
0.0
9
$EXTMAX
10
525.001692062556
20
78.508368278141
30
0.0
9
$LIMMIN
10
0.0
20
0.0
9
$LIMMAX
10
525.001692062556
20
78.508368278141
9
$ORTHOMODE
70
0
9
$REGENMODE
70
1
9
$FILLMODE
70
1
9
$QTEXTMODE
70
0
9
$TRACEWID
40
0.05
9
$DISPSILH
70
0
9
$SKETCHINC
40
0.1
9
$FILLETRAD
40
0.0
9
$MENU
1
.
9
$ELEVATION
40
0.0
9
$PELEVATION
40
0.0
9
$THICKNESS
40
0.0
9
$LIMCHECK
70
0
9
$CHAMFERA
40
0.0
9
$CHAMFERB
40
0.0
9
$CHAMFERC
40
0.0
9
$CHAMFERD
40
0.0
9
$SKPOLY
70
0
9
$TDUSRTIMER
40
0.0
9
$USRTIMER
70
1
9
$PLINEWID
40
0.0
9
$SPLFRAME
70
0
9
$SPLINETYPE
70
6
9
$SURFTAB1
70
6
9
$SURFTAB2
70
6
9
$SURFTYPE
70
6
9
$UCSBASE
2

9
$UCSNAME
2

9
$UCSORTHOREF
2

9
$UCSORTHOVIEW
70
0
9
$UCSORGTOP
10
0.0
20
0.0
30
0.0
9
$UCSORGBOTTOM
10
0.0
20
0.0
30
0.0
9
$UCSORGLEFT
10
0.0
20
0.0
30
0.0
9
$UCSORGRIGHT
10
0.0
20
0.0
30
0.0
9
$UCSORGFRONT
10
0.0
20
0.0
30
0.0
9
$UCSORGBACK
10
0.0
20
0.0
30
0.0
9
$PUCSBASE
2

9
$PUCSNAME
2

9
$PUCSORG
10
0.0
20
0.0
30
0.0
9
$PUCSXDIR
10
1.0
20
0.0
30
0.0
9
$PUCSYDIR
10
0.0
20
1.0
30
0.0
9
$PUCSORTHOREF
2

9
$PUCSORTHOVIEW
70
0
9
$PUCSORGTOP
10
0.0
20
0.0
30
0.0
9
$PUCSORGBOTTOM
10
0.0
20
0.0
30
0.0
9
$PUCSORGLEFT
10
0.0
20
0.0
30
0.0
9
$PUCSORGRIGHT
10
0.0
20
0.0
30
0.0
9
$PUCSORGFRONT
10
0.0
20
0.0
30
0.0
9
$PUCSORGBACK
10
0.0
20
0.0
30
0.0
9
$USERI1
70
0
9
$USERI2
70
0
9
$USERI3
70
0
9
$USERI4
70
0
9
$USERI5
70
0
9
$USERR1
40
0.0
9
$USERR2
40
0.0
9
$USERR3
40
0.0
9
$USERR4
40
0.0
9
$USERR5
40
0.0
9
$WORLDVIEW
70
1
9
$SHADEDGE
70
3
9
$SHADEDIF
70
70
9
$TILEMODE
70
1
9
$MAXACTVP
70
64
9
$PINSBASE
10
0.0
20
0.0
30
0.0
9
$PLIMCHECK
70
0
9
$PEXTMIN
10
0.0
20
0.0
30
0.0
9
$PEXTMAX
10
525.001692062556
20
78.508368278141
30
0.0
9
$PLIMMIN
10
0.0
20
0.0
9
$PLIMMAX
10
525.001692062556
20
78.508368278141
9
$UNITMODE
70
0
9
$VISRETAIN
70
1
9
$TREEDEPTH
70
3020
9
$PROXYGRAPHICS
70
1
9
$MEASUREMENT
70
1
9
$ENDCAPS
280
0
9
$JOINSTYLE
280
0
9
$HYPERLINKBASE
1

9
$STYLESHEET
1

9
$XEDIT
290
1
9
$CEPSNTYPE
380
0
9
$PSTYLEMODE
290
1
9
$FINGERPRINTGUID
2
{A8B8ADC5-41E8-C34F-A4EA-EA75987797E7}
9
$VERSIONGUID
2
{08B4F6AF-4FCD-9348-8F11-E4404A54F990}
9
$PSVPSCALE
40
0.0
9
$OLESTARTUP
290
0
0
ENDSEC
0
SECTION
2
CLASSES
0
CLASS
1
RASTERVARIABLES
2
AcDbRasterVariables
3
ISM
90
0
280
0
281
0
0
ENDSEC
0
SECTION
2
TABLES
0
TABLE
2
APPID
5
9
330
0
100
AcDbSymbolTable
70
7
0
APPID
5
56
330
9
100
AcDbSymbolTableRecord
100
AcDbRegAppTableRecord
2
ACAD
70
0
0
APPID
5
5E
330
9
100
AcDbSymbolTableRecord
100
AcDbRegAppTableRecord
2
AcadAnnotative
70
0
0
APPID
5
29B
330
9
100
AcDbSymbolTableRecord
100
AcDbRegAppTableRecord
2
ACAD_MLEADERVER
70
0
0
APPID
5
2B6
330
9
100
AcDbSymbolTableRecord
100
AcDbRegAppTableRecord
2
AcCmTransparency
70
0
0
APPID
5
2B7
330
9
100
AcDbSymbolTableRecord
100
AcDbRegAppTableRecord
2
AcAecLayerStandard
70
0
0
APPID
5
2B8
330
9
100
AcDbSymbolTableRecord
100
AcDbRegAppTableRecord
2
GradientColor1ACI
70
0
0
APPID
5
2B9
330
9
100
AcDbSymbolTableRecord
100
AcDbRegAppTableRecord
2
GradientColor2ACI
70
0
0
ENDTAB
0
TABLE
2
VPORT
5
8
330
0
100
AcDbSymbolTable
70
1
0
VPORT
5
2AC
330
8
100
AcDbSymbolTableRecord
100
AcDbViewportTableRecord
2
*Active
70
0
10
0.0
20
0.0
11
1.0
21
1.0
12
262.501652661906
22
39.2541842489754
13
0.0
23
0.0
14
0.5
24
0.5
15
10.0
25
10.0
16
0.0
26
0.0
36
1.0
17
0.0
27
0.0
37
0.0
40
577.5
41
1.0
75
0
76
1
0
ENDTAB
0
TABLE
2
LTYPE
5
5
330
0
100
AcDbSymbolTable
70
48
0
LTYPE
5
5B
330
5
100
AcDbSymbolTableRecord
100
AcDbLinetypeTableRecord
2
ByBlock
70
0
3

72
65
73
0
40
0.0
0
LTYPE
5
5C
330
5
100
AcDbSymbolTableRecord
100
AcDbLinetypeTableRecord
2
ByLayer
70
0
3

72
65
73
0
40
0.0
0
LTYPE
5
5D
330
5
100
AcDbSymbolTableRecord
100
AcDbLinetypeTableRecord
2
Continuous
70
0
3
Solid line
72
65
73
0
40
0.0
0
LTYPE
5
78
330
5
100
AcDbSymbolTableRecord
100
AcDbLinetypeTableRecord
2
BORDER
70
0
3
Border __ __ . __ __ . __ __ . __ __ . __ __ .
72
65
73
6
40
1.75
49
0.5
74
0
49
-0.25
74
0
49
0.5
74
0
49
-0.25
74
0
49
0.0
74
0
49
-0.25
74
0
0
LTYPE
5
79
330
5
100
AcDbSymbolTableRecord
100
AcDbLinetypeTableRecord
2
BORDER2
70
0
3
Border (.5x) __.__.__.__.__.__.__.__.__.__.__.
72
65
73
6
40
0.875
49
0.25
74
0
49
-0.125
74
0
49
0.25
74
0
49
-0.125
74
0
49
0.0
74
0
49
-0.125
74
0
0
LTYPE
5
7A
330
5
100
AcDbSymbolTableRecord
100
AcDbLinetypeTableRecord
2
BORDERX2
70
0
3
Border (2x) ____  ____  .  ____  ____  .  ___
72
65
73
6
40
3.5
49
1.0
74
0
49
-0.5
74
0
49
1.0
74
0
49
-0.5
74
0
49
0.0
74
0
49
-0.5
74
0
0
LTYPE
5
7B
330
5
100
AcDbSymbolTableRecord
100
AcDbLinetypeTableRecord
2
CENTER
70
0
3
Center ____ _ ____ _ ____ _ ____ _ ____ _ ____
72
65
73
4
40
2.0
49
1.25
74
0
49
-0.25
74
0
49
0.25
74
0
49
-0.25
74
0
0
LTYPE
5
7C
330
5
100
AcDbSymbolTableRecord
100
AcDbLinetypeTableRecord
2
CENTER2
70
0
3
Center (.5x) ___ _ ___ _ ___ _ ___ _ ___ _ ___
72
65
73
4
40
1.125
49
0.75
74
0
49
-0.125
74
0
49
0.125
74
0
49
-0.125
74
0
0
LTYPE
5
7D
330
5
100
AcDbSymbolTableRecord
100
AcDbLinetypeTableRecord
2
CENTERX2
70
0
3
Center (2x) ________  __  ________  __  _____
72
65
73
4
40
4.0
49
2.5
74
0
49
-0.5
74
0
49
0.5
74
0
49
-0.5
74
0
0
LTYPE
5
7E
330
5
100
AcDbSymbolTableRecord
100
AcDbLinetypeTableRecord
2
DASHDOT
70
0
3
Dash dot __ . __ . __ . __ . __ . __ . __ . __
72
65
73
4
40
1.0
49
0.5
74
0
49
-0.25
74
0
49
0.0
74
0
49
-0.25
74
0
0
LTYPE
5
7F
330
5
100
AcDbSymbolTableRecord
100
AcDbLinetypeTableRecord
2
DASHDOT2
70
0
3
Dash dot (.5x) _._._._._._._._._._._._._._._.
72
65
73
4
40
0.5
49
0.25
74
0
49
-0.125
74
0
49
0.0
74
0
49
-0.125
74
0
0
LTYPE
5
80
330
5
100
AcDbSymbolTableRecord
100
AcDbLinetypeTableRecord
2
DASHDOTX2
70
0
3
Dash dot (2x) ____  .  ____  .  ____  .  ___
72
65
73
4
40
2.0
49
1.0
74
0
49
-0.5
74
0
49
0.0
74
0
49
-0.5
74
0
0
LTYPE
5
81
330
5
100
AcDbSymbolTableRecord
100
AcDbLinetypeTableRecord
2
DASHED
70
0
3
Dashed __ __ __ __ __ __ __ __ __ __ __ __ __ _
72
65
73
2
40
0.75
49
0.5
74
0
49
-0.25
74
0
0
LTYPE
5
82
330
5
100
AcDbSymbolTableRecord
100
AcDbLinetypeTableRecord
2
DASHED2
70
0
3
Dashed (.5x) _ _ _ _ _ _ _ _ _ _ _ _ _ _ _ _ _
72
65
73
2
40
0.375
49
0.25
74
0
49
-0.125
74
0
0
LTYPE
5
83
330
5
100
AcDbSymbolTableRecord
100
AcDbLinetypeTableRecord
2
DASHEDX2
70
0
3
Dashed (2x) ____  ____  ____  ____  ____  ___
72
65
73
2
40
1.5
49
1.0
74
0
49
-0.5
74
0
0
LTYPE
5
84
330
5
100
AcDbSymbolTableRecord
100
AcDbLinetypeTableRecord
2
DIVIDE
70
0
3
Divide ____ . . ____ . . ____ . . ____ . . ____
72
65
73
6
40
1.25
49
0.5
74
0
49
-0.25
74
0
49
0.0
74
0
49
-0.25
74
0
49
0.0
74
0
49
-0.25
74
0
0
LTYPE
5
85
330
5
100
AcDbSymbolTableRecord
100
AcDbLinetypeTableRecord
2
DIVIDE2
70
0
3
Divide (.5x) __..__..__..__..__..__..__..__.._
72
65
73
6
40
0.625
49
0.25
74
0
49
-0.125
74
0
49
0.0
74
0
49
-0.125
74
0
49
0.0
74
0
49
-0.125
74
0
0
LTYPE
5
86
330
5
100
AcDbSymbolTableRecord
100
AcDbLinetypeTableRecord
2
DIVIDEX2
70
0
3
Divide (2x) ________  .  .  ________  .  .  _
72
65
73
6
40
2.5
49
1.0
74
0
49
-0.5
74
0
49
0.0
74
0
49
-0.5
74
0
49
0.0
74
0
49
-0.5
74
0
0
LTYPE
5
87
330
5
100
AcDbSymbolTableRecord
100
AcDbLinetypeTableRecord
2
DOT
70
0
3
Dot . . . . . . . . . . . . . . . . . . . . . .
72
65
73
2
40
0.25
49
0.0
74
0
49
-0.25
74
0
0
LTYPE
5
88
330
5
100
AcDbSymbolTableRecord
100
AcDbLinetypeTableRecord
2
DOT2
70
0
3
Dot (.5x) .....................................
72
65
73
2
40
0.125
49
0.0
74
0
49
-0.125
74
0
0
LTYPE
5
89
330
5
100
AcDbSymbolTableRecord
100
AcDbLinetypeTableRecord
2
DOTX2
70
0
3
Dot (2x) .  .  .  .  .  .  .  .  .  .  .  .  . 
72
65
73
2
40
0.5
49
0.0
74
0
49
-0.5
74
0
0
LTYPE
5
8A
330
5
100
AcDbSymbolTableRecord
100
AcDbLinetypeTableRecord
2
HIDDEN
70
0
3
Hidden __ __ __ __ __ __ __ __ __ __ __ __ __ _
72
65
73
2
40
0.375
49
0.25
74
0
49
-0.125
74
0
0
LTYPE
5
8B
330
5
100
AcDbSymbolTableRecord
100
AcDbLinetypeTableRecord
2
HIDDEN2
70
0
3
Hidden (.5x) _ _ _ _ _ _ _ _ _ _ _ _ _ _ _ _ _
72
65
73
2
40
0.1875
49
0.125
74
0
49
-0.0625
74
0
0
LTYPE
5
8C
330
5
100
AcDbSymbolTableRecord
100
AcDbLinetypeTableRecord
2
HIDDENX2
70
0
3
Hidden (2x) ____ ____ ____ ____ ____ ____ ____
72
65
73
2
40
0.75
49
0.5
74
0
49
-0.25
74
0
0
LTYPE
5
8D
330
5
100
AcDbSymbolTableRecord
100
AcDbLinetypeTableRecord
2
PHANTOM
70
0
3
Phantom ______  __  __  ______  __  __  ______
72
65
73
6
40
2.5
49
1.25
74
0
49
-0.25
74
0
49
0.25
74
0
49
-0.25
74
0
49
0.25
74
0
49
-0.25
74
0
0
LTYPE
5
8E
330
5
100
AcDbSymbolTableRecord
100
AcDbLinetypeTableRecord
2
PHANTOM2
70
0
3
Phantom (.5x) ___ _ _ ___ _ _ ___ _ _ ___ _ _
72
65
73
6
40
1.25
49
0.625
74
0
49
-0.125
74
0
49
0.125
74
0
49
-0.125
74
0
49
0.125
74
0
49
-0.125
74
0
0
LTYPE
5
8F
330
5
100
AcDbSymbolTableRecord
100
AcDbLinetypeTableRecord
2
PHANTOMX2
70
0
3
Phantom (2x) ____________    ____    ____   _
72
65
73
6
40
5.0
49
2.5
74
0
49
-0.5
74
0
49
0.5
74
0
49
-0.5
74
0
49
0.5
74
0
49
-0.5
74
0
0
LTYPE
5
90
330
5
100
AcDbSymbolTableRecord
100
AcDbLinetypeTableRecord
2
ACAD_ISO02W100
70
0
3
ISO dash __ __ __ __ __ __ __ __ __ __ __ __ __
72
65
73
2
40
15.0
49
12.0
74
0
49
-3.0
74
0
0
LTYPE
5
91
330
5
100
AcDbSymbolTableRecord
100
AcDbLinetypeTableRecord
2
ACAD_ISO03W100
70
0
3
ISO dash space __    __    __    __    __    __
72
65
73
2
40
30.0
49
12.0
74
0
49
-18.0
74
0
0
LTYPE
5
92
330
5
100
AcDbSymbolTableRecord
100
AcDbLinetypeTableRecord
2
ACAD_ISO04W100
70
0
3
ISO long-dash dot ____ . ____ . ____ . ____ . _
72
65
73
4
40
30.0
49
24.0
74
0
49
-3.0
74
0
49
0.0
74
0
49
-3.0
74
0
0
LTYPE
5
93
330
5
100
AcDbSymbolTableRecord
100
AcDbLinetypeTableRecord
2
ACAD_ISO05W100
70
0
3
ISO long-dash double-dot ____ .. ____ .. ____ .
72
65
73
6
40
33.0
49
24.0
74
0
49
-3.0
74
0
49
0.0
74
0
49
-3.0
74
0
49
0.0
74
0
49
-3.0
74
0
0
LTYPE
5
94
330
5
100
AcDbSymbolTableRecord
100
AcDbLinetypeTableRecord
2
ACAD_ISO06W100
70
0
3
ISO long-dash triple-dot ____ ... ____ ... ____
72
65
73
8
40
36.0
49
24.0
74
0
49
-3.0
74
0
49
0.0
74
0
49
-3.0
74
0
49
0.0
74
0
49
-3.0
74
0
49
0.0
74
0
49
-3.0
74
0
0
LTYPE
5
95
330
5
100
AcDbSymbolTableRecord
100
AcDbLinetypeTableRecord
2
ACAD_ISO07W100
70
0
3
ISO dot . . . . . . . . . . . . . . . . . . . .
72
65
73
2
40
3.0
49
0.0
74
0
49
-3.0
74
0
0
LTYPE
5
96
330
5
100
AcDbSymbolTableRecord
100
AcDbLinetypeTableRecord
2
ACAD_ISO08W100
70
0
3
ISO long-dash short-dash ____ __ ____ __ ____ _
72
65
73
4
40
36.0
49
24.0
74
0
49
-3.0
74
0
49
6.0
74
0
49
-3.0
74
0
0
LTYPE
5
97
330
5
100
AcDbSymbolTableRecord
100
AcDbLinetypeTableRecord
2
ACAD_ISO09W100
70
0
3
ISO long-dash double-short-dash ____ __ __ ____
72
65
73
6
40
45.0
49
24.0
74
0
49
-3.0
74
0
49
6.0
74
0
49
-3.0
74
0
49
6.0
74
0
49
-3.0
74
0
0
LTYPE
5
98
330
5
100
AcDbSymbolTableRecord
100
AcDbLinetypeTableRecord
2
ACAD_ISO10W100
70
0
3
ISO dash dot __ . __ . __ . __ . __ . __ . __ .
72
65
73
4
40
18.0
49
12.0
74
0
49
-3.0
74
0
49
0.0
74
0
49
-3.0
74
0
0
LTYPE
5
99
330
5
100
AcDbSymbolTableRecord
100
AcDbLinetypeTableRecord
2
ACAD_ISO11W100
70
0
3
ISO double-dash dot __ __ . __ __ . __ __ . __ 
72
65
73
6
40
33.0
49
12.0
74
0
49
-3.0
74
0
49
12.0
74
0
49
-3.0
74
0
49
0.0
74
0
49
-3.0
74
0
0
LTYPE
5
9A
330
5
100
AcDbSymbolTableRecord
100
AcDbLinetypeTableRecord
2
ACAD_ISO12W100
70
0
3
ISO dash double-dot __ . . __ . . __ . . __ . .
72
65
73
6
40
21.0
49
12.0
74
0
49
-3.0
74
0
49
0.0
74
0
49
-3.0
74
0
49
0.0
74
0
49
-3.0
74
0
0
LTYPE
5
9B
330
5
100
AcDbSymbolTableRecord
100
AcDbLinetypeTableRecord
2
ACAD_ISO13W100
70
0
3
ISO double-dash double-dot __ __ . . __ __ . . 
72
65
73
8
40
36.0
49
12.0
74
0
49
-3.0
74
0
49
12.0
74
0
49
-3.0
74
0
49
0.0
74
0
49
-3.0
74
0
49
0.0
74
0
49
-3.0
74
0
0
LTYPE
5
9C
330
5
100
AcDbSymbolTableRecord
100
AcDbLinetypeTableRecord
2
ACAD_ISO14W100
70
0
3
ISO dash triple-dot __ . . . __ . . . __ . . . 
72
65
73
8
40
24.0
49
12.0
74
0
49
-3.0
74
0
49
0.0
74
0
49
-3.0
74
0
49
0.0
74
0
49
-3.0
74
0
49
0.0
74
0
49
-3.0
74
0
0
LTYPE
5
9D
330
5
100
AcDbSymbolTableRecord
100
AcDbLinetypeTableRecord
2
ACAD_ISO15W100
70
0
3
ISO double-dash triple-dot __ __ . . . __ __ . 
72
65
73
10
40
39.0
49
12.0
74
0
49
-3.0
74
0
49
12.0
74
0
49
-3.0
74
0
49
0.0
74
0
49
-3.0
74
0
49
0.0
74
0
49
-3.0
74
0
49
0.0
74
0
49
-3.0
74
0
0
LTYPE
5
A0
330
5
100
AcDbSymbolTableRecord
100
AcDbLinetypeTableRecord
2
FENCELINE1
70
0
3
Fenceline circle ----0-----0----0-----0----0---
72
65
73
3
40
1.35
49
0.25
74
0
49
-0.1
74
0
49
1.0
74
0
0
LTYPE
5
A1
330
5
100
AcDbSymbolTableRecord
100
AcDbLinetypeTableRecord
2
FENCELINE2
70
0
3
Fenceline square ----[]-----[]----[]-----[]----
72
65
73
3
40
1.35
49
0.25
74
0
49
-0.1
74
0
49
1.0
74
0
0
LTYPE
5
A2
330
5
100
AcDbSymbolTableRecord
100
AcDbLinetypeTableRecord
2
TRACKS
70
0
3
Tracks -|-|-|-|-|-|-|-|-|-|-|-|-|-|-|-|-|-|-|-|
72
65
73
1
40
0.15
49
0.15
74
0
0
LTYPE
5
A3
330
5
100
AcDbSymbolTableRecord
100
AcDbLinetypeTableRecord
2
BATTING
70
0
3
Batting SSSSSSSSSSSSSSSSSSSSSSSSSSSSSSSSSSSSSSS
72
65
73
2
40
0.1001
49
0.0001
74
0
49
-0.1
74
0
0
LTYPE
5
A4
330
5
100
AcDbSymbolTableRecord
100
AcDbLinetypeTableRecord
2
HOT_WATER_SUPPLY
70
0
3
Hot water supply ---- HW ---- HW ---- HW ----
72
65
73
3
40
0.9
49
0.5
74
0
49
-0.2
74
2
75
0
340
55
46
0.1
50
0.0
44
-0.1
45
-0.05
9
HW
49
-0.2
74
0
0
LTYPE
5
A5
330
5
100
AcDbSymbolTableRecord
100
AcDbLinetypeTableRecord
2
GAS_LINE
70
0
3
Gas line ----GAS----GAS----GAS----GAS----GAS---
72
65
73
3
40
0.95
49
0.5
74
0
49
-0.2
74
2
75
0
340
55
46
0.1
50
0.0
44
-0.1
45
-0.05
9
GAS
49
-0.25
74
0
0
LTYPE
5
A6
330
5
100
AcDbSymbolTableRecord
100
AcDbLinetypeTableRecord
2
ZIGZAG
70
0
3
Zig zag /\/\/\/\/\/\/\/\/\/\/\/\/\/\/\/\/\/\/\/
72
65
73
2
40
0.2001
49
0.0001
74
0
49
-0.2
74
0
0
ENDTAB
0
TABLE
2
LAYER
5
2
102
{ACAD_XDICTIONARY
360
2AD
102
}
330
0
100
AcDbSymbolTable
70
3
0
LAYER
5
54
330
2
100
AcDbSymbolTableRecord
100
AcDbLayerTableRecord
2
0
70
0
62
7
6
Continuous
290
1
370
-3
390
0
0
LAYER
5
A7
330
2
100
AcDbSymbolTableRecord
100
AcDbLayerTableRecord
2
IV_OUTER_PROFILE
70
0
62
7
6
Continuous
290
1
370
50
390
0
0
LAYER
5
A8
330
2
100
AcDbSymbolTableRecord
100
AcDbLayerTableRecord
2
IV_INTERIOR_PROFILES
70
0
62
7
6
Continuous
290
1
370
50
390
0
0
ENDTAB
0
TABLE
2
STYLE
5
3
330
0
100
AcDbSymbolTable
70
2
0
STYLE
5
55
330
3
100
AcDbSymbolTableRecord
100
AcDbTextStyleTableRecord
2
Standard
3
txt.SHX
70
0
71
0
40
0.0
41
1.0
42
0.0
50
0.0
0
STYLE
5
5A
330
3
100
AcDbSymbolTableRecord
100
AcDbTextStyleTableRecord
2
Annotative
3
txt.SHX
70
0
71
0
40
0.0
41
1.0
42
0.0
50
0.0
1001
AcadAnnotative
1000
AnnotativeData
1002
{
1070
1
1070
1
1002
}
0
STYLE
5
9F
330
2AE
100
AcDbSymbolTableRecord
100
AcDbTextStyleTableRecord
2

3
ltypeshp.shx
70
1
40
0.0
41
1.0
42
0.0
50
0.0
0
ENDTAB
0
TABLE
2
DIMSTYLE
5
A
330
0
100
AcDbSymbolTable
70
2
100
AcDbDimStyleTable
0
DIMSTYLE
105
58
330
A
100
AcDbSymbolTableRecord
100
AcDbDimStyleTableRecord
2
Standard
3

4

40
1.0
41
0.18
42
0.0625
43
0.38
44
0.18
45
0.0
46
0.0
47
0.0
48
0.0
49
1.0
70
0
71
0
72
0
73
0
74
0
75
0
76
0
77
0
78
0
79
3
140
0.18
141
0.09
143
25.4
144
1.0
146
1.0
147
0.09
148
0.0
170
0
171
2
172
0
174
0
175
0
176
0
177
0
178
0
179
0
271
4
272
4
273
2
274
2
275
0
276
0
277
2
278
46
279
0
280
0
281
0
282
0
283
1
284
0
285
0
286
0
289
3
290
0
294
0
340
55
173
0
345
5B
346
5B
347
5B
371
-2
372
-2
0
DIMSTYLE
105
59
330
A
100
AcDbSymbolTableRecord
100
AcDbDimStyleTableRecord
2
Annotative
3

4

40
1.0
41
0.18
42
0.0625
43
0.38
44
0.18
45
0.0
46
0.0
47
0.0
48
0.0
49
1.0
70
0
71
0
72
0
73
0
74
0
75
0
76
0
77
0
78
0
79
3
140
0.18
141
0.09
143
25.4
144
1.0
146
1.0
147
0.09
148
0.0
170
0
171
2
172
0
174
0
175
0
176
0
177
0
178
0
179
0
271
4
272
4
273
2
274
2
275
0
276
0
277
2
278
46
279
0
280
0
281
0
282
0
283
1
284
0
285
0
286
0
289
3
290
0
294
0
340
55
173
0
345
5B
346
5B
347
5B
371
-2
372
-2
1001
AcadAnnotative
1000
AnnotativeData
1002
{
1070
1
1070
1
1002
}
0
ENDTAB
0
TABLE
2
VIEW
5
6
330
0
100
AcDbSymbolTable
70
0
0
ENDTAB
0
TABLE
2
UCS
5
7
330
0
100
AcDbSymbolTable
70
0
0
ENDTAB
0
TABLE
2
BLOCK_RECORD
5
1
330
0
100
AcDbSymbolTable
70
3
0
BLOCK_RECORD
5
70
330
1
100
AcDbSymbolTableRecord
100
AcDbBlockTableRecord
2
*Model_Space
340
73
0
BLOCK_RECORD
5
6C
330
1
100
AcDbSymbolTableRecord
100
AcDbBlockTableRecord
2
*Paper_Space
340
6F
0
BLOCK_RECORD
5
74
330
1
100
AcDbSymbolTableRecord
100
AcDbBlockTableRecord
2
*Paper_Space0
340
77
0
ENDTAB
0
ENDSEC
0
SECTION
2
BLOCKS
0
BLOCK
5
71
330
70
100
AcDbEntity
67
0
8
0
100
AcDbBlockBegin
2
*Model_Space
70
0
10
0.0
20
0.0
30
0.0
3
*Model_Space
4

0
ENDBLK
5
72
330
70
100
AcDbEntity
8
0
100
AcDbBlockEnd
0
BLOCK
5
6D
330
6C
100
AcDbEntity
67
1
8
0
100
AcDbBlockBegin
2
*Paper_Space
70
0
10
0.0
20
0.0
30
0.0
3
*Paper_Space
4

0
ENDBLK
5
6E
330
6C
100
AcDbEntity
8
0
100
AcDbBlockEnd
0
BLOCK
5
75
330
74
100
AcDbEntity
67
1
8
0
100
AcDbBlockBegin
2
*Paper_Space0
70
0
10
0.0
20
0.0
30
0.0
3
*Paper_Space0
4

0
VIEWPORT
5
2B5
330
74
100
AcDbEntity
67
1
8
0
62
256
6
ByLayer
370
-1
48
1.0
60
0
100
AcDbViewport
10
0.0
20
0.0
30
0.0
40
297.0
41
210.0
68
1
69
1
12
50.0
22
100.0
13
0.0
23
0.0
14
10.0
24
10.0
15
10.0
25
10.0
16
0.0
26
0.0
36
1.0
17
0.0
27
0.0
37
0.0
42
50.0
43
0.0
44
0.0
45
250.0
50
0.0
51
0.0
72
1000
90
819232
110
0.0
120
0.0
130
0.0
111
1.0
121
0.0
131
0.0
112
0.0
122
1.0
132
0.0
0
ENDBLK
5
76
330
74
100
AcDbEntity
8
0
100
AcDbBlockEnd
0
ENDSEC
0
SECTION
2
ENTITIES
0
VIEWPORT
5
2B4
330
6C
100
AcDbEntity
67
1
8
0
62
256
6
ByLayer
370
-1
48
1.0
60
0
100
AcDbViewport
10
0.0
20
0.0
30
0.0
40
297.0
41
210.0
68
1
69
1
12
50.0
22
100.0
13
0.0
23
0.0
14
10.0
24
10.0
15
10.0
25
10.0
16
0.0
26
0.0
36
1.0
17
0.0
27
0.0
37
0.0
42
50.0
43
0.0
44
0.0
45
250.0
50
0.0
51
0.0
72
1000
90
819232
110
0.0
120
0.0
130
0.0
111
1.0
121
0.0
131
0.0
112
0.0
122
1.0
132
0.0
0
LINE
5
A9
330
70
100
AcDbEntity
67
0
8
IV_INTERIOR_PROFILES
62
256
6
ByLayer
370
-1
48
1.0
60
0
100
AcDbLine
10
519.801652661906
20
10.3110102453086
30
0.0
11
519.801652661906
21
38.3110102453086
31
0.0
39
0.0
210
0.0
220
0.0
230
1.0
0
ARC
5
AB
330
70
100
AcDbEntity
67
0
8
IV_INTERIOR_PROFILES
62
256
6
ByLayer
370
-1
48
1.0
60
0
100
AcDbCircle
39
0.0
10
519.901652661906
20
38.3110102453086
30
0.0
40
0.100000000000051
210
0.0
220
0.0
230
1.0
100
AcDbArc
50
0.0
51
180.0
0
LINE
5
AC
330
70
100
AcDbEntity
67
0
8
IV_INTERIOR_PROFILES
62
256
6
ByLayer
370
-1
48
1.0
60
0
100
AcDbLine
10
520.001652661906
20
38.3110102453086
30
0.0
11
520.001652661906
21
10.3110102453086
31
0.0
39
0.0
210
0.0
220
0.0
230
1.0
0
ARC
5
AD
330
70
100
AcDbEntity
67
0
8
IV_INTERIOR_PROFILES
62
256
6
ByLayer
370
-1
48
1.0
60
0
100
AcDbCircle
39
0.0
10
519.901652661906
20
10.3110102453086
30
0.0
40
0.100000000000051
210
0.0
220
0.0
230
1.0
100
AcDbArc
50
180.0
51
0.0
0
LINE
5
AE
330
70
100
AcDbEntity
67
0
8
IV_INTERIOR_PROFILES
62
256
6
ByLayer
370
-1
48
1.0
60
0
100
AcDbLine
10
459.801652661906
20
10.3110102453086
30
0.0
11
459.801652661906
21
38.3110102453086
31
0.0
39
0.0
210
0.0
220
0.0
230
1.0
0
ARC
5
AF
330
70
100
AcDbEntity
67
0
8
IV_INTERIOR_PROFILES
62
256
6
ByLayer
370
-1
48
1.0
60
0
100
AcDbCircle
39
0.0
10
459.901652661906
20
38.3110102453086
30
0.0
40
0.100000000000051
210
0.0
220
0.0
230
1.0
100
AcDbArc
50
0.0
51
180.0
0
LINE
5
B0
330
70
100
AcDbEntity
67
0
8
IV_INTERIOR_PROFILES
62
256
6
ByLayer
370
-1
48
1.0
60
0
100
AcDbLine
10
460.001652661906
20
38.3110102453086
30
0.0
11
460.001652661906
21
10.3110102453086
31
0.0
39
0.0
210
0.0
220
0.0
230
1.0
0
ARC
5
B1
330
70
100
AcDbEntity
67
0
8
IV_INTERIOR_PROFILES
62
256
6
ByLayer
370
-1
48
1.0
60
0
100
AcDbCircle
39
0.0
10
459.901652661906
20
10.3110102453086
30
0.0
40
0.100000000000051
210
0.0
220
0.0
230
1.0
100
AcDbArc
50
180.0
51
0.0
0
LINE
5
B2
330
70
100
AcDbEntity
67
0
8
IV_INTERIOR_PROFILES
62
256
6
ByLayer
370
-1
48
1.0
60
0
100
AcDbLine
10
349.801652661906
20
10.3110102453086
30
0.0
11
349.801652661906
21
38.3110102453087
31
0.0
39
0.0
210
0.0
220
0.0
230
1.0
0
ARC
5
B3
330
70
100
AcDbEntity
67
0
8
IV_INTERIOR_PROFILES
62
256
6
ByLayer
370
-1
48
1.0
60
0
100
AcDbCircle
39
0.0
10
349.901652661906
20
38.3110102453087
30
0.0
40
0.100000000000051
210
0.0
220
0.0
230
1.0
100
AcDbArc
50
0.0
51
180.0
0
LINE
5
B4
330
70
100
AcDbEntity
67
0
8
IV_INTERIOR_PROFILES
62
256
6
ByLayer
370
-1
48
1.0
60
0
100
AcDbLine
10
350.001652661906
20
38.3110102453087
30
0.0
11
350.001652661906
21
10.3110102453086
31
0.0
39
0.0
210
0.0
220
0.0
230
1.0
0
ARC
5
B5
330
70
100
AcDbEntity
67
0
8
IV_INTERIOR_PROFILES
62
256
6
ByLayer
370
-1
48
1.0
60
0
100
AcDbCircle
39
0.0
10
349.901652661906
20
10.3110102453086
30
0.0
40
0.100000000000051
210
0.0
220
0.0
230
1.0
100
AcDbArc
50
180.0
51
0.0
0
LINE
5
B6
330
70
100
AcDbEntity
67
0
8
IV_INTERIOR_PROFILES
62
256
6
ByLayer
370
-1
48
1.0
60
0
100
AcDbLine
10
369.801652661906
20
10.3110102453086
30
0.0
11
369.801652661906
21
38.3110102453087
31
0.0
39
0.0
210
0.0
220
0.0
230
1.0
0
ARC
5
B7
330
70
100
AcDbEntity
67
0
8
IV_INTERIOR_PROFILES
62
256
6
ByLayer
370
-1
48
1.0
60
0
100
AcDbCircle
39
0.0
10
369.901652661906
20
38.3110102453087
30
0.0
40
0.100000000000051
210
0.0
220
0.0
230
1.0
100
AcDbArc
50
0.0
51
180.0
0
LINE
5
B8
330
70
100
AcDbEntity
67
0
8
IV_INTERIOR_PROFILES
62
256
6
ByLayer
370
-1
48
1.0
60
0
100
AcDbLine
10
370.001652661906
20
38.3110102453087
30
0.0
11
370.001652661906
21
10.3110102453086
31
0.0
39
0.0
210
0.0
220
0.0
230
1.0
0
ARC
5
B9
330
70
100
AcDbEntity
67
0
8
IV_INTERIOR_PROFILES
62
256
6
ByLayer
370
-1
48
1.0
60
0
100
AcDbCircle
39
0.0
10
369.901652661906
20
10.3110102453086
30
0.0
40
0.100000000000051
210
0.0
220
0.0
230
1.0
100
AcDbArc
50
180.0
51
0.0
0
LINE
5
BA
330
70
100
AcDbEntity
67
0
8
IV_INTERIOR_PROFILES
62
256
6
ByLayer
370
-1
48
1.0
60
0
100
AcDbLine
10
189.801652661906
20
10.3110102453087
30
0.0
11
189.801652661906
21
38.3110102453087
31
0.0
39
0.0
210
0.0
220
0.0
230
1.0
0
ARC
5
BB
330
70
100
AcDbEntity
67
0
8
IV_INTERIOR_PROFILES
62
256
6
ByLayer
370
-1
48
1.0
60
0
100
AcDbCircle
39
0.0
10
189.901652661906
20
38.3110102453087
30
0.0
40
0.100000000000051
210
0.0
220
0.0
230
1.0
100
AcDbArc
50
0.0
51
180.0
0
LINE
5
BC
330
70
100
AcDbEntity
67
0
8
IV_INTERIOR_PROFILES
62
256
6
ByLayer
370
-1
48
1.0
60
0
100
AcDbLine
10
190.001652661906
20
38.3110102453087
30
0.0
11
190.001652661906
21
10.3110102453087
31
0.0
39
0.0
210
0.0
220
0.0
230
1.0
0
ARC
5
BD
330
70
100
AcDbEntity
67
0
8
IV_INTERIOR_PROFILES
62
256
6
ByLayer
370
-1
48
1.0
60
0
100
AcDbCircle
39
0.0
10
189.901652661906
20
10.3110102453087
30
0.0
40
0.100000000000051
210
0.0
220
0.0
230
1.0
100
AcDbArc
50
180.0
51
0.0
0
LINE
5
BE
330
70
100
AcDbEntity
67
0
8
IV_INTERIOR_PROFILES
62
256
6
ByLayer
370
-1
48
1.0
60
0
100
AcDbLine
10
209.801652661906
20
10.3110102453087
30
0.0
11
209.801652661906
21
38.3110102453087
31
0.0
39
0.0
210
0.0
220
0.0
230
1.0
0
ARC
5
BF
330
70
100
AcDbEntity
67
0
8
IV_INTERIOR_PROFILES
62
256
6
ByLayer
370
-1
48
1.0
60
0
100
AcDbCircle
39
0.0
10
209.901652661906
20
38.3110102453087
30
0.0
40
0.100000000000051
210
0.0
220
0.0
230
1.0
100
AcDbArc
50
0.0
51
180.0
0
LINE
5
C0
330
70
100
AcDbEntity
67
0
8
IV_INTERIOR_PROFILES
62
256
6
ByLayer
370
-1
48
1.0
60
0
100
AcDbLine
10
210.001652661906
20
38.3110102453087
30
0.0
11
210.001652661906
21
10.3110102453087
31
0.0
39
0.0
210
0.0
220
0.0
230
1.0
0
ARC
5
C1
330
70
100
AcDbEntity
67
0
8
IV_INTERIOR_PROFILES
62
256
6
ByLayer
370
-1
48
1.0
60
0
100
AcDbCircle
39
0.0
10
209.901652661906
20
10.3110102453087
30
0.0
40
0.100000000000051
210
0.0
220
0.0
230
1.0
100
AcDbArc
50
180.0
51
0.0
0
LINE
5
C2
330
70
100
AcDbEntity
67
0
8
IV_INTERIOR_PROFILES
62
256
6
ByLayer
370
-1
48
1.0
60
0
100
AcDbLine
10
229.801652661906
20
10.3110102453087
30
0.0
11
229.801652661906
21
38.3110102453087
31
0.0
39
0.0
210
0.0
220
0.0
230
1.0
0
ARC
5
C3
330
70
100
AcDbEntity
67
0
8
IV_INTERIOR_PROFILES
62
256
6
ByLayer
370
-1
48
1.0
60
0
100
AcDbCircle
39
0.0
10
229.901652661906
20
38.3110102453087
30
0.0
40
0.100000000000051
210
0.0
220
0.0
230
1.0
100
AcDbArc
50
0.0
51
180.0
0
LINE
5
C4
330
70
100
AcDbEntity
67
0
8
IV_INTERIOR_PROFILES
62
256
6
ByLayer
370
-1
48
1.0
60
0
100
AcDbLine
10
230.001652661906
20
38.3110102453087
30
0.0
11
230.001652661906
21
10.3110102453087
31
0.0
39
0.0
210
0.0
220
0.0
230
1.0
0
ARC
5
C5
330
70
100
AcDbEntity
67
0
8
IV_INTERIOR_PROFILES
62
256
6
ByLayer
370
-1
48
1.0
60
0
100
AcDbCircle
39
0.0
10
229.901652661906
20
10.3110102453087
30
0.0
40
0.100000000000051
210
0.0
220
0.0
230
1.0
100
AcDbArc
50
180.0
51
0.0
0
LINE
5
C6
330
70
100
AcDbEntity
67
0
8
IV_INTERIOR_PROFILES
62
256
6
ByLayer
370
-1
48
1.0
60
0
100
AcDbLine
10
289.801652661906
20
10.3110102453087
30
0.0
11
289.801652661906
21
38.3110102453087
31
0.0
39
0.0
210
0.0
220
0.0
230
1.0
0
ARC
5
C7
330
70
100
AcDbEntity
67
0
8
IV_INTERIOR_PROFILES
62
256
6
ByLayer
370
-1
48
1.0
60
0
100
AcDbCircle
39
0.0
10
289.901652661906
20
38.3110102453087
30
0.0
40
0.100000000000051
210
0.0
220
0.0
230
1.0
100
AcDbArc
50
0.0
51
180.0
0
LINE
5
C8
330
70
100
AcDbEntity
67
0
8
IV_INTERIOR_PROFILES
62
256
6
ByLayer
370
-1
48
1.0
60
0
100
AcDbLine
10
290.001652661906
20
38.3110102453087
30
0.0
11
290.001652661906
21
10.3110102453087
31
0.0
39
0.0
210
0.0
220
0.0
230
1.0
0
ARC
5
C9
330
70
100
AcDbEntity
67
0
8
IV_INTERIOR_PROFILES
62
256
6
ByLayer
370
-1
48
1.0
60
0
100
AcDbCircle
39
0.0
10
289.901652661906
20
10.3110102453087
30
0.0
40
0.100000000000051
210
0.0
220
0.0
230
1.0
100
AcDbArc
50
180.0
51
0.0
0
LINE
5
CA
330
70
100
AcDbEntity
67
0
8
IV_INTERIOR_PROFILES
62
256
6
ByLayer
370
-1
48
1.0
60
0
100
AcDbLine
10
339.801652661906
20
10.3110102453086
30
0.0
11
339.801652661906
21
38.3110102453087
31
0.0
39
0.0
210
0.0
220
0.0
230
1.0
0
ARC
5
CB
330
70
100
AcDbEntity
67
0
8
IV_INTERIOR_PROFILES
62
256
6
ByLayer
370
-1
48
1.0
60
0
100
AcDbCircle
39
0.0
10
339.901652661906
20
38.3110102453087
30
0.0
40
0.100000000000051
210
0.0
220
0.0
230
1.0
100
AcDbArc
50
0.0
51
180.0
0
LINE
5
CC
330
70
100
AcDbEntity
67
0
8
IV_INTERIOR_PROFILES
62
256
6
ByLayer
370
-1
48
1.0
60
0
100
AcDbLine
10
340.001652661906
20
38.3110102453087
30
0.0
11
340.001652661906
21
10.3110102453086
31
0.0
39
0.0
210
0.0
220
0.0
230
1.0
0
ARC
5
CD
330
70
100
AcDbEntity
67
0
8
IV_INTERIOR_PROFILES
62
256
6
ByLayer
370
-1
48
1.0
60
0
100
AcDbCircle
39
0.0
10
339.901652661906
20
10.3110102453086
30
0.0
40
0.100000000000051
210
0.0
220
0.0
230
1.0
100
AcDbArc
50
180.0
51
0.0
0
LINE
5
CE
330
70
100
AcDbEntity
67
0
8
IV_INTERIOR_PROFILES
62
256
6
ByLayer
370
-1
48
1.0
60
0
100
AcDbLine
10
409.801652661906
20
10.3110102453086
30
0.0
11
409.801652661906
21
38.3110102453086
31
0.0
39
0.0
210
0.0
220
0.0
230
1.0
0
ARC
5
CF
330
70
100
AcDbEntity
67
0
8
IV_INTERIOR_PROFILES
62
256
6
ByLayer
370
-1
48
1.0
60
0
100
AcDbCircle
39
0.0
10
409.901652661906
20
38.3110102453086
30
0.0
40
0.100000000000051
210
0.0
220
0.0
230
1.0
100
AcDbArc
50
0.0
51
180.0
0
LINE
5
D0
330
70
100
AcDbEntity
67
0
8
IV_INTERIOR_PROFILES
62
256
6
ByLayer
370
-1
48
1.0
60
0
100
AcDbLine
10
410.001652661906
20
38.3110102453086
30
0.0
11
410.001652661906
21
10.3110102453086
31
0.0
39
0.0
210
0.0
220
0.0
230
1.0
0
ARC
5
D1
330
70
100
AcDbEntity
67
0
8
IV_INTERIOR_PROFILES
62
256
6
ByLayer
370
-1
48
1.0
60
0
100
AcDbCircle
39
0.0
10
409.901652661906
20
10.3110102453086
30
0.0
40
0.100000000000051
210
0.0
220
0.0
230
1.0
100
AcDbArc
50
180.0
51
0.0
0
LINE
5
D2
330
70
100
AcDbEntity
67
0
8
IV_INTERIOR_PROFILES
62
256
6
ByLayer
370
-1
48
1.0
60
0
100
AcDbLine
10
119.801652661906
20
10.3110102453087
30
0.0
11
119.801652661906
21
38.3110102453087
31
0.0
39
0.0
210
0.0
220
0.0
230
1.0
0
ARC
5
D3
330
70
100
AcDbEntity
67
0
8
IV_INTERIOR_PROFILES
62
256
6
ByLayer
370
-1
48
1.0
60
0
100
AcDbCircle
39
0.0
10
119.901652661906
20
38.3110102453087
30
0.0
40
0.100000000000051
210
0.0
220
0.0
230
1.0
100
AcDbArc
50
0.0
51
180.0
0
LINE
5
D4
330
70
100
AcDbEntity
67
0
8
IV_INTERIOR_PROFILES
62
256
6
ByLayer
370
-1
48
1.0
60
0
100
AcDbLine
10
120.001652661906
20
38.3110102453087
30
0.0
11
120.001652661906
21
10.3110102453087
31
0.0
39
0.0
210
0.0
220
0.0
230
1.0
0
ARC
5
D5
330
70
100
AcDbEntity
67
0
8
IV_INTERIOR_PROFILES
62
256
6
ByLayer
370
-1
48
1.0
60
0
100
AcDbCircle
39
0.0
10
119.901652661906
20
10.3110102453087
30
0.0
40
0.100000000000051
210
0.0
220
0.0
230
1.0
100
AcDbArc
50
180.0
51
0.0
0
LINE
5
D6
330
70
100
AcDbEntity
67
0
8
IV_INTERIOR_PROFILES
62
256
6
ByLayer
370
-1
48
1.0
60
0
100
AcDbLine
10
79.8016526619057
20
10.3110102453087
30
0.0
11
79.8016526619058
21
38.3110102453087
31
0.0
39
0.0
210
0.0
220
0.0
230
1.0
0
ARC
5
D7
330
70
100
AcDbEntity
67
0
8
IV_INTERIOR_PROFILES
62
256
6
ByLayer
370
-1
48
1.0
60
0
100
AcDbCircle
39
0.0
10
79.9016526619058
20
38.3110102453087
30
0.0
40
0.100000000000051
210
0.0
220
0.0
230
1.0
100
AcDbArc
50
0.0
51
180.0
0
LINE
5
D8
330
70
100
AcDbEntity
67
0
8
IV_INTERIOR_PROFILES
62
256
6
ByLayer
370
-1
48
1.0
60
0
100
AcDbLine
10
80.0016526619058
20
38.3110102453087
30
0.0
11
80.0016526619058
21
10.3110102453087
31
0.0
39
0.0
210
0.0
220
0.0
230
1.0
0
ARC
5
D9
330
70
100
AcDbEntity
67
0
8
IV_INTERIOR_PROFILES
62
256
6
ByLayer
370
-1
48
1.0
60
0
100
AcDbCircle
39
0.0
10
79.9016526619058
20
10.3110102453087
30
0.0
40
0.100000000000051
210
0.0
220
0.0
230
1.0
100
AcDbArc
50
180.0
51
0.0
0
LINE
5
DA
330
70
100
AcDbEntity
67
0
8
IV_INTERIOR_PROFILES
62
256
6
ByLayer
370
-1
48
1.0
60
0
100
AcDbLine
10
39.8016526619057
20
10.3110102453087
30
0.0
11
39.8016526619058
21
38.3110102453087
31
0.0
39
0.0
210
0.0
220
0.0
230
1.0
0
ARC
5
DB
330
70
100
AcDbEntity
67
0
8
IV_INTERIOR_PROFILES
62
256
6
ByLayer
370
-1
48
1.0
60
0
100
AcDbCircle
39
0.0
10
39.9016526619058
20
38.3110102453087
30
0.0
40
0.100000000000051
210
0.0
220
0.0
230
1.0
100
AcDbArc
50
0.0
51
180.0
0
LINE
5
DC
330
70
100
AcDbEntity
67
0
8
IV_INTERIOR_PROFILES
62
256
6
ByLayer
370
-1
48
1.0
60
0
100
AcDbLine
10
40.0016526619058
20
38.3110102453087
30
0.0
11
40.0016526619058
21
10.3110102453087
31
0.0
39
0.0
210
0.0
220
0.0
230
1.0
0
ARC
5
DD
330
70
100
AcDbEntity
67
0
8
IV_INTERIOR_PROFILES
62
256
6
ByLayer
370
-1
48
1.0
60
0
100
AcDbCircle
39
0.0
10
39.9016526619058
20
10.3110102453087
30
0.0
40
0.100000000000051
210
0.0
220
0.0
230
1.0
100
AcDbArc
50
180.0
51
0.0
0
LINE
5
DE
330
70
100
AcDbEntity
67
0
8
IV_INTERIOR_PROFILES
62
256
6
ByLayer
370
-1
48
1.0
60
0
100
AcDbLine
10
9.80165266190572
20
10.3110102453087
30
0.0
11
9.8016526619058
21
38.3110102453087
31
0.0
39
0.0
210
0.0
220
0.0
230
1.0
0
ARC
5
DF
330
70
100
AcDbEntity
67
0
8
IV_INTERIOR_PROFILES
62
256
6
ByLayer
370
-1
48
1.0
60
0
100
AcDbCircle
39
0.0
10
9.90165266190578
20
38.3110102453087
30
0.0
40
0.100000000000051
210
0.0
220
0.0
230
1.0
100
AcDbArc
50
0.0
51
180.0
0
LINE
5
E0
330
70
100
AcDbEntity
67
0
8
IV_INTERIOR_PROFILES
62
256
6
ByLayer
370
-1
48
1.0
60
0
100
AcDbLine
10
10.0016526619058
20
38.3110102453087
30
0.0
11
10.0016526619057
21
10.3110102453087
31
0.0
39
0.0
210
0.0
220
0.0
230
1.0
0
ARC
5
E1
330
70
100
AcDbEntity
67
0
8
IV_INTERIOR_PROFILES
62
256
6
ByLayer
370
-1
48
1.0
60
0
100
AcDbCircle
39
0.0
10
9.90165266190577
20
10.3110102453087
30
0.0
40
0.100000000000051
210
0.0
220
0.0
230
1.0
100
AcDbArc
50
180.0
51
0.0
0
LINE
5
E2
330
70
100
AcDbEntity
67
0
8
IV_INTERIOR_PROFILES
62
256
6
ByLayer
370
-1
48
1.0
60
0
100
AcDbLine
10
49.8016526619057
20
10.3110102453087
30
0.0
11
49.8016526619058
21
38.3110102453087
31
0.0
39
0.0
210
0.0
220
0.0
230
1.0
0
ARC
5
E3
330
70
100
AcDbEntity
67
0
8
IV_INTERIOR_PROFILES
62
256
6
ByLayer
370
-1
48
1.0
60
0
100
AcDbCircle
39
0.0
10
49.9016526619058
20
38.3110102453087
30
0.0
40
0.100000000000051
210
0.0
220
0.0
230
1.0
100
AcDbArc
50
0.0
51
180.0
0
LINE
5
E4
330
70
100
AcDbEntity
67
0
8
IV_INTERIOR_PROFILES
62
256
6
ByLayer
370
-1
48
1.0
60
0
100
AcDbLine
10
50.0016526619058
20
38.3110102453087
30
0.0
11
50.0016526619058
21
10.3110102453087
31
0.0
39
0.0
210
0.0
220
0.0
230
1.0
0
ARC
5
E5
330
70
100
AcDbEntity
67
0
8
IV_INTERIOR_PROFILES
62
256
6
ByLayer
370
-1
48
1.0
60
0
100
AcDbCircle
39
0.0
10
49.9016526619058
20
10.3110102453087
30
0.0
40
0.100000000000051
210
0.0
220
0.0
230
1.0
100
AcDbArc
50
180.0
51
0.0
0
LINE
5
E6
330
70
100
AcDbEntity
67
0
8
IV_INTERIOR_PROFILES
62
256
6
ByLayer
370
-1
48
1.0
60
0
100
AcDbLine
10
89.8016526619057
20
10.3110102453087
30
0.0
11
89.8016526619058
21
38.3110102453087
31
0.0
39
0.0
210
0.0
220
0.0
230
1.0
0
ARC
5
E7
330
70
100
AcDbEntity
67
0
8
IV_INTERIOR_PROFILES
62
256
6
ByLayer
370
-1
48
1.0
60
0
100
AcDbCircle
39
0.0
10
89.9016526619058
20
38.3110102453087
30
0.0
40
0.100000000000051
210
0.0
220
0.0
230
1.0
100
AcDbArc
50
0.0
51
180.0
0
LINE
5
E8
330
70
100
AcDbEntity
67
0
8
IV_INTERIOR_PROFILES
62
256
6
ByLayer
370
-1
48
1.0
60
0
100
AcDbLine
10
90.0016526619058
20
38.3110102453087
30
0.0
11
90.0016526619058
21
10.3110102453087
31
0.0
39
0.0
210
0.0
220
0.0
230
1.0
0
ARC
5
E9
330
70
100
AcDbEntity
67
0
8
IV_INTERIOR_PROFILES
62
256
6
ByLayer
370
-1
48
1.0
60
0
100
AcDbCircle
39
0.0
10
89.9016526619058
20
10.3110102453087
30
0.0
40
0.100000000000051
210
0.0
220
0.0
230
1.0
100
AcDbArc
50
180.0
51
0.0
0
LINE
5
EA
330
70
100
AcDbEntity
67
0
8
IV_INTERIOR_PROFILES
62
256
6
ByLayer
370
-1
48
1.0
60
0
100
AcDbLine
10
129.801652661906
20
10.3110102453087
30
0.0
11
129.801652661906
21
38.3110102453087
31
0.0
39
0.0
210
0.0
220
0.0
230
1.0
0
ARC
5
EB
330
70
100
AcDbEntity
67
0
8
IV_INTERIOR_PROFILES
62
256
6
ByLayer
370
-1
48
1.0
60
0
100
AcDbCircle
39
0.0
10
129.901652661906
20
38.3110102453087
30
0.0
40
0.100000000000051
210
0.0
220
0.0
230
1.0
100
AcDbArc
50
0.0
51
180.0
0
LINE
5
EC
330
70
100
AcDbEntity
67
0
8
IV_INTERIOR_PROFILES
62
256
6
ByLayer
370
-1
48
1.0
60
0
100
AcDbLine
10
130.001652661906
20
38.3110102453087
30
0.0
11
130.001652661906
21
10.3110102453087
31
0.0
39
0.0
210
0.0
220
0.0
230
1.0
0
ARC
5
ED
330
70
100
AcDbEntity
67
0
8
IV_INTERIOR_PROFILES
62
256
6
ByLayer
370
-1
48
1.0
60
0
100
AcDbCircle
39
0.0
10
129.901652661906
20
10.3110102453087
30
0.0
40
0.100000000000051
210
0.0
220
0.0
230
1.0
100
AcDbArc
50
180.0
51
0.0
0
LINE
5
EE
330
70
100
AcDbEntity
67
0
8
IV_INTERIOR_PROFILES
62
256
6
ByLayer
370
-1
48
1.0
60
0
100
AcDbLine
10
399.801652661906
20
10.3110102453086
30
0.0
11
399.801652661906
21
38.3110102453086
31
0.0
39
0.0
210
0.0
220
0.0
230
1.0
0
ARC
5
EF
330
70
100
AcDbEntity
67
0
8
IV_INTERIOR_PROFILES
62
256
6
ByLayer
370
-1
48
1.0
60
0
100
AcDbCircle
39
0.0
10
399.901652661906
20
38.3110102453086
30
0.0
40
0.100000000000051
210
0.0
220
0.0
230
1.0
100
AcDbArc
50
0.0
51
180.0
0
LINE
5
F0
330
70
100
AcDbEntity
67
0
8
IV_INTERIOR_PROFILES
62
256
6
ByLayer
370
-1
48
1.0
60
0
100
AcDbLine
10
400.001652661906
20
38.3110102453086
30
0.0
11
400.001652661906
21
10.3110102453086
31
0.0
39
0.0
210
0.0
220
0.0
230
1.0
0
ARC
5
F1
330
70
100
AcDbEntity
67
0
8
IV_INTERIOR_PROFILES
62
256
6
ByLayer
370
-1
48
1.0
60
0
100
AcDbCircle
39
0.0
10
399.901652661906
20
10.3110102453086
30
0.0
40
0.100000000000051
210
0.0
220
0.0
230
1.0
100
AcDbArc
50
180.0
51
0.0
0
LINE
5
F2
330
70
100
AcDbEntity
67
0
8
IV_INTERIOR_PROFILES
62
256
6
ByLayer
370
-1
48
1.0
60
0
100
AcDbLine
10
329.801652661906
20
10.3110102453086
30
0.0
11
329.801652661906
21
38.3110102453087
31
0.0
39
0.0
210
0.0
220
0.0
230
1.0
0
ARC
5
F3
330
70
100
AcDbEntity
67
0
8
IV_INTERIOR_PROFILES
62
256
6
ByLayer
370
-1
48
1.0
60
0
100
AcDbCircle
39
0.0
10
329.901652661906
20
38.3110102453087
30
0.0
40
0.100000000000051
210
0.0
220
0.0
230
1.0
100
AcDbArc
50
0.0
51
180.0
0
LINE
5
F4
330
70
100
AcDbEntity
67
0
8
IV_INTERIOR_PROFILES
62
256
6
ByLayer
370
-1
48
1.0
60
0
100
AcDbLine
10
330.001652661906
20
38.3110102453087
30
0.0
11
330.001652661906
21
10.3110102453086
31
0.0
39
0.0
210
0.0
220
0.0
230
1.0
0
ARC
5
F5
330
70
100
AcDbEntity
67
0
8
IV_INTERIOR_PROFILES
62
256
6
ByLayer
370
-1
48
1.0
60
0
100
AcDbCircle
39
0.0
10
329.901652661906
20
10.3110102453086
30
0.0
40
0.100000000000051
210
0.0
220
0.0
230
1.0
100
AcDbArc
50
180.0
51
0.0
0
LINE
5
F6
330
70
100
AcDbEntity
67
0
8
IV_INTERIOR_PROFILES
62
256
6
ByLayer
370
-1
48
1.0
60
0
100
AcDbLine
10
259.801652661906
20
10.3110102453087
30
0.0
11
259.801652661906
21
38.3110102453087
31
0.0
39
0.0
210
0.0
220
0.0
230
1.0
0
ARC
5
F7
330
70
100
AcDbEntity
67
0
8
IV_INTERIOR_PROFILES
62
256
6
ByLayer
370
-1
48
1.0
60
0
100
AcDbCircle
39
0.0
10
259.901652661906
20
38.3110102453087
30
0.0
40
0.100000000000051
210
0.0
220
0.0
230
1.0
100
AcDbArc
50
0.0
51
180.0
0
LINE
5
F8
330
70
100
AcDbEntity
67
0
8
IV_INTERIOR_PROFILES
62
256
6
ByLayer
370
-1
48
1.0
60
0
100
AcDbLine
10
260.001652661906
20
38.3110102453087
30
0.0
11
260.001652661906
21
10.3110102453087
31
0.0
39
0.0
210
0.0
220
0.0
230
1.0
0
ARC
5
F9
330
70
100
AcDbEntity
67
0
8
IV_INTERIOR_PROFILES
62
256
6
ByLayer
370
-1
48
1.0
60
0
100
AcDbCircle
39
0.0
10
259.901652661906
20
10.3110102453087
30
0.0
40
0.100000000000051
210
0.0
220
0.0
230
1.0
100
AcDbArc
50
180.0
51
0.0
0
LINE
5
FA
330
70
100
AcDbEntity
67
0
8
IV_INTERIOR_PROFILES
62
256
6
ByLayer
370
-1
48
1.0
60
0
100
AcDbLine
10
139.801652661906
20
10.3110102453087
30
0.0
11
139.801652661906
21
38.3110102453087
31
0.0
39
0.0
210
0.0
220
0.0
230
1.0
0
ARC
5
FB
330
70
100
AcDbEntity
67
0
8
IV_INTERIOR_PROFILES
62
256
6
ByLayer
370
-1
48
1.0
60
0
100
AcDbCircle
39
0.0
10
139.901652661906
20
38.3110102453087
30
0.0
40
0.100000000000051
210
0.0
220
0.0
230
1.0
100
AcDbArc
50
0.0
51
180.0
0
LINE
5
FC
330
70
100
AcDbEntity
67
0
8
IV_INTERIOR_PROFILES
62
256
6
ByLayer
370
-1
48
1.0
60
0
100
AcDbLine
10
140.001652661906
20
38.3110102453087
30
0.0
11
140.001652661906
21
10.3110102453087
31
0.0
39
0.0
210
0.0
220
0.0
230
1.0
0
ARC
5
FD
330
70
100
AcDbEntity
67
0
8
IV_INTERIOR_PROFILES
62
256
6
ByLayer
370
-1
48
1.0
60
0
100
AcDbCircle
39
0.0
10
139.901652661906
20
10.3110102453087
30
0.0
40
0.100000000000051
210
0.0
220
0.0
230
1.0
100
AcDbArc
50
180.0
51
0.0
0
LINE
5
FE
330
70
100
AcDbEntity
67
0
8
IV_INTERIOR_PROFILES
62
256
6
ByLayer
370
-1
48
1.0
60
0
100
AcDbLine
10
159.801652661906
20
10.3110102453087
30
0.0
11
159.801652661906
21
38.3110102453087
31
0.0
39
0.0
210
0.0
220
0.0
230
1.0
0
ARC
5
FF
330
70
100
AcDbEntity
67
0
8
IV_INTERIOR_PROFILES
62
256
6
ByLayer
370
-1
48
1.0
60
0
100
AcDbCircle
39
0.0
10
159.901652661906
20
38.3110102453087
30
0.0
40
0.100000000000051
210
0.0
220
0.0
230
1.0
100
AcDbArc
50
0.0
51
180.0
0
LINE
5
100
330
70
100
AcDbEntity
67
0
8
IV_INTERIOR_PROFILES
62
256
6
ByLayer
370
-1
48
1.0
60
0
100
AcDbLine
10
160.001652661906
20
38.3110102453087
30
0.0
11
160.001652661906
21
10.3110102453087
31
0.0
39
0.0
210
0.0
220
0.0
230
1.0
0
ARC
5
101
330
70
100
AcDbEntity
67
0
8
IV_INTERIOR_PROFILES
62
256
6
ByLayer
370
-1
48
1.0
60
0
100
AcDbCircle
39
0.0
10
159.901652661906
20
10.3110102453087
30
0.0
40
0.100000000000051
210
0.0
220
0.0
230
1.0
100
AcDbArc
50
180.0
51
0.0
0
LINE
5
102
330
70
100
AcDbEntity
67
0
8
IV_INTERIOR_PROFILES
62
256
6
ByLayer
370
-1
48
1.0
60
0
100
AcDbLine
10
179.801652661906
20
10.3110102453087
30
0.0
11
179.801652661906
21
38.3110102453087
31
0.0
39
0.0
210
0.0
220
0.0
230
1.0
0
ARC
5
103
330
70
100
AcDbEntity
67
0
8
IV_INTERIOR_PROFILES
62
256
6
ByLayer
370
-1
48
1.0
60
0
100
AcDbCircle
39
0.0
10
179.901652661906
20
38.3110102453087
30
0.0
40
0.100000000000051
210
0.0
220
0.0
230
1.0
100
AcDbArc
50
0.0
51
180.0
0
LINE
5
104
330
70
100
AcDbEntity
67
0
8
IV_INTERIOR_PROFILES
62
256
6
ByLayer
370
-1
48
1.0
60
0
100
AcDbLine
10
180.001652661906
20
38.3110102453087
30
0.0
11
180.001652661906
21
10.3110102453087
31
0.0
39
0.0
210
0.0
220
0.0
230
1.0
0
ARC
5
105
330
70
100
AcDbEntity
67
0
8
IV_INTERIOR_PROFILES
62
256
6
ByLayer
370
-1
48
1.0
60
0
100
AcDbCircle
39
0.0
10
179.901652661906
20
10.3110102453087
30
0.0
40
0.100000000000051
210
0.0
220
0.0
230
1.0
100
AcDbArc
50
180.0
51
0.0
0
LINE
5
106
330
70
100
AcDbEntity
67
0
8
IV_INTERIOR_PROFILES
62
256
6
ByLayer
370
-1
48
1.0
60
0
100
AcDbLine
10
269.801652661906
20
10.3110102453087
30
0.0
11
269.801652661906
21
38.3110102453087
31
0.0
39
0.0
210
0.0
220
0.0
230
1.0
0
ARC
5
107
330
70
100
AcDbEntity
67
0
8
IV_INTERIOR_PROFILES
62
256
6
ByLayer
370
-1
48
1.0
60
0
100
AcDbCircle
39
0.0
10
269.901652661906
20
38.3110102453087
30
0.0
40
0.100000000000051
210
0.0
220
0.0
230
1.0
100
AcDbArc
50
0.0
51
180.0
0
LINE
5
108
330
70
100
AcDbEntity
67
0
8
IV_INTERIOR_PROFILES
62
256
6
ByLayer
370
-1
48
1.0
60
0
100
AcDbLine
10
270.001652661906
20
38.3110102453087
30
0.0
11
270.001652661906
21
10.3110102453087
31
0.0
39
0.0
210
0.0
220
0.0
230
1.0
0
ARC
5
109
330
70
100
AcDbEntity
67
0
8
IV_INTERIOR_PROFILES
62
256
6
ByLayer
370
-1
48
1.0
60
0
100
AcDbCircle
39
0.0
10
269.901652661906
20
10.3110102453087
30
0.0
40
0.100000000000051
210
0.0
220
0.0
230
1.0
100
AcDbArc
50
180.0
51
0.0
0
LINE
5
10A
330
70
100
AcDbEntity
67
0
8
IV_INTERIOR_PROFILES
62
256
6
ByLayer
370
-1
48
1.0
60
0
100
AcDbLine
10
509.801652661906
20
10.3110102453086
30
0.0
11
509.801652661906
21
38.3110102453086
31
0.0
39
0.0
210
0.0
220
0.0
230
1.0
0
ARC
5
10B
330
70
100
AcDbEntity
67
0
8
IV_INTERIOR_PROFILES
62
256
6
ByLayer
370
-1
48
1.0
60
0
100
AcDbCircle
39
0.0
10
509.901652661906
20
38.3110102453086
30
0.0
40
0.100000000000051
210
0.0
220
0.0
230
1.0
100
AcDbArc
50
0.0
51
180.0
0
LINE
5
10C
330
70
100
AcDbEntity
67
0
8
IV_INTERIOR_PROFILES
62
256
6
ByLayer
370
-1
48
1.0
60
0
100
AcDbLine
10
510.001652661906
20
38.3110102453086
30
0.0
11
510.001652661906
21
10.3110102453086
31
0.0
39
0.0
210
0.0
220
0.0
230
1.0
0
ARC
5
10D
330
70
100
AcDbEntity
67
0
8
IV_INTERIOR_PROFILES
62
256
6
ByLayer
370
-1
48
1.0
60
0
100
AcDbCircle
39
0.0
10
509.901652661906
20
10.3110102453086
30
0.0
40
0.100000000000051
210
0.0
220
0.0
230
1.0
100
AcDbArc
50
180.0
51
0.0
0
LINE
5
10E
330
70
100
AcDbEntity
67
0
8
IV_INTERIOR_PROFILES
62
256
6
ByLayer
370
-1
48
1.0
60
0
100
AcDbLine
10
479.801652661906
20
10.3110102453086
30
0.0
11
479.801652661906
21
38.3110102453086
31
0.0
39
0.0
210
0.0
220
0.0
230
1.0
0
ARC
5
10F
330
70
100
AcDbEntity
67
0
8
IV_INTERIOR_PROFILES
62
256
6
ByLayer
370
-1
48
1.0
60
0
100
AcDbCircle
39
0.0
10
479.901652661906
20
38.3110102453086
30
0.0
40
0.100000000000051
210
0.0
220
0.0
230
1.0
100
AcDbArc
50
0.0
51
180.0
0
LINE
5
110
330
70
100
AcDbEntity
67
0
8
IV_INTERIOR_PROFILES
62
256
6
ByLayer
370
-1
48
1.0
60
0
100
AcDbLine
10
480.001652661906
20
38.3110102453086
30
0.0
11
480.001652661906
21
10.3110102453086
31
0.0
39
0.0
210
0.0
220
0.0
230
1.0
0
ARC
5
111
330
70
100
AcDbEntity
67
0
8
IV_INTERIOR_PROFILES
62
256
6
ByLayer
370
-1
48
1.0
60
0
100
AcDbCircle
39
0.0
10
479.901652661906
20
10.3110102453086
30
0.0
40
0.100000000000051
210
0.0
220
0.0
230
1.0
100
AcDbArc
50
180.0
51
0.0
0
LINE
5
112
330
70
100
AcDbEntity
67
0
8
IV_INTERIOR_PROFILES
62
256
6
ByLayer
370
-1
48
1.0
60
0
100
AcDbLine
10
499.801652661906
20
10.3110102453086
30
0.0
11
499.801652661906
21
38.3110102453086
31
0.0
39
0.0
210
0.0
220
0.0
230
1.0
0
ARC
5
113
330
70
100
AcDbEntity
67
0
8
IV_INTERIOR_PROFILES
62
256
6
ByLayer
370
-1
48
1.0
60
0
100
AcDbCircle
39
0.0
10
499.901652661906
20
38.3110102453086
30
0.0
40
0.100000000000051
210
0.0
220
0.0
230
1.0
100
AcDbArc
50
0.0
51
180.0
0
LINE
5
114
330
70
100
AcDbEntity
67
0
8
IV_INTERIOR_PROFILES
62
256
6
ByLayer
370
-1
48
1.0
60
0
100
AcDbLine
10
500.001652661906
20
38.3110102453086
30
0.0
11
500.001652661906
21
10.3110102453086
31
0.0
39
0.0
210
0.0
220
0.0
230
1.0
0
ARC
5
115
330
70
100
AcDbEntity
67
0
8
IV_INTERIOR_PROFILES
62
256
6
ByLayer
370
-1
48
1.0
60
0
100
AcDbCircle
39
0.0
10
499.901652661906
20
10.3110102453086
30
0.0
40
0.100000000000051
210
0.0
220
0.0
230
1.0
100
AcDbArc
50
180.0
51
0.0
0
LINE
5
116
330
70
100
AcDbEntity
67
0
8
IV_INTERIOR_PROFILES
62
256
6
ByLayer
370
-1
48
1.0
60
0
100
AcDbLine
10
449.801652661906
20
10.3110102453086
30
0.0
11
449.801652661906
21
38.3110102453086
31
0.0
39
0.0
210
0.0
220
0.0
230
1.0
0
ARC
5
117
330
70
100
AcDbEntity
67
0
8
IV_INTERIOR_PROFILES
62
256
6
ByLayer
370
-1
48
1.0
60
0
100
AcDbCircle
39
0.0
10
449.901652661906
20
38.3110102453086
30
0.0
40
0.100000000000051
210
0.0
220
0.0
230
1.0
100
AcDbArc
50
0.0
51
180.0
0
LINE
5
118
330
70
100
AcDbEntity
67
0
8
IV_INTERIOR_PROFILES
62
256
6
ByLayer
370
-1
48
1.0
60
0
100
AcDbLine
10
450.001652661906
20
38.3110102453086
30
0.0
11
450.001652661906
21
10.3110102453086
31
0.0
39
0.0
210
0.0
220
0.0
230
1.0
0
ARC
5
119
330
70
100
AcDbEntity
67
0
8
IV_INTERIOR_PROFILES
62
256
6
ByLayer
370
-1
48
1.0
60
0
100
AcDbCircle
39
0.0
10
449.901652661906
20
10.3110102453086
30
0.0
40
0.100000000000051
210
0.0
220
0.0
230
1.0
100
AcDbArc
50
180.0
51
0.0
0
LINE
5
11A
330
70
100
AcDbEntity
67
0
8
IV_INTERIOR_PROFILES
62
256
6
ByLayer
370
-1
48
1.0
60
0
100
AcDbLine
10
249.801652661906
20
10.3110102453087
30
0.0
11
249.801652661906
21
38.3110102453087
31
0.0
39
0.0
210
0.0
220
0.0
230
1.0
0
ARC
5
11B
330
70
100
AcDbEntity
67
0
8
IV_INTERIOR_PROFILES
62
256
6
ByLayer
370
-1
48
1.0
60
0
100
AcDbCircle
39
0.0
10
249.901652661906
20
38.3110102453087
30
0.0
40
0.100000000000051
210
0.0
220
0.0
230
1.0
100
AcDbArc
50
0.0
51
180.0
0
LINE
5
11C
330
70
100
AcDbEntity
67
0
8
IV_INTERIOR_PROFILES
62
256
6
ByLayer
370
-1
48
1.0
60
0
100
AcDbLine
10
250.001652661906
20
38.3110102453087
30
0.0
11
250.001652661906
21
10.3110102453087
31
0.0
39
0.0
210
0.0
220
0.0
230
1.0
0
ARC
5
11D
330
70
100
AcDbEntity
67
0
8
IV_INTERIOR_PROFILES
62
256
6
ByLayer
370
-1
48
1.0
60
0
100
AcDbCircle
39
0.0
10
249.901652661906
20
10.3110102453087
30
0.0
40
0.100000000000051
210
0.0
220
0.0
230
1.0
100
AcDbArc
50
180.0
51
0.0
0
LINE
5
11E
330
70
100
AcDbEntity
67
0
8
IV_INTERIOR_PROFILES
62
256
6
ByLayer
370
-1
48
1.0
60
0
100
AcDbLine
10
279.801652661906
20
10.3110102453087
30
0.0
11
279.801652661906
21
38.3110102453087
31
0.0
39
0.0
210
0.0
220
0.0
230
1.0
0
ARC
5
11F
330
70
100
AcDbEntity
67
0
8
IV_INTERIOR_PROFILES
62
256
6
ByLayer
370
-1
48
1.0
60
0
100
AcDbCircle
39
0.0
10
279.901652661906
20
38.3110102453087
30
0.0
40
0.100000000000051
210
0.0
220
0.0
230
1.0
100
AcDbArc
50
0.0
51
180.0
0
LINE
5
120
330
70
100
AcDbEntity
67
0
8
IV_INTERIOR_PROFILES
62
256
6
ByLayer
370
-1
48
1.0
60
0
100
AcDbLine
10
280.001652661906
20
38.3110102453087
30
0.0
11
280.001652661906
21
10.3110102453087
31
0.0
39
0.0
210
0.0
220
0.0
230
1.0
0
ARC
5
121
330
70
100
AcDbEntity
67
0
8
IV_INTERIOR_PROFILES
62
256
6
ByLayer
370
-1
48
1.0
60
0
100
AcDbCircle
39
0.0
10
279.901652661906
20
10.3110102453087
30
0.0
40
0.100000000000051
210
0.0
220
0.0
230
1.0
100
AcDbArc
50
180.0
51
0.0
0
LINE
5
122
330
70
100
AcDbEntity
67
0
8
IV_INTERIOR_PROFILES
62
256
6
ByLayer
370
-1
48
1.0
60
0
100
AcDbLine
10
169.801652661906
20
10.3110102453087
30
0.0
11
169.801652661906
21
38.3110102453087
31
0.0
39
0.0
210
0.0
220
0.0
230
1.0
0
ARC
5
123
330
70
100
AcDbEntity
67
0
8
IV_INTERIOR_PROFILES
62
256
6
ByLayer
370
-1
48
1.0
60
0
100
AcDbCircle
39
0.0
10
169.901652661906
20
38.3110102453087
30
0.0
40
0.100000000000051
210
0.0
220
0.0
230
1.0
100
AcDbArc
50
0.0
51
180.0
0
LINE
5
124
330
70
100
AcDbEntity
67
0
8
IV_INTERIOR_PROFILES
62
256
6
ByLayer
370
-1
48
1.0
60
0
100
AcDbLine
10
170.001652661906
20
38.3110102453087
30
0.0
11
170.001652661906
21
10.3110102453087
31
0.0
39
0.0
210
0.0
220
0.0
230
1.0
0
ARC
5
125
330
70
100
AcDbEntity
67
0
8
IV_INTERIOR_PROFILES
62
256
6
ByLayer
370
-1
48
1.0
60
0
100
AcDbCircle
39
0.0
10
169.901652661906
20
10.3110102453087
30
0.0
40
0.100000000000051
210
0.0
220
0.0
230
1.0
100
AcDbArc
50
180.0
51
0.0
0
LINE
5
126
330
70
100
AcDbEntity
67
0
8
IV_INTERIOR_PROFILES
62
256
6
ByLayer
370
-1
48
1.0
60
0
100
AcDbLine
10
149.801652661906
20
10.3110102453087
30
0.0
11
149.801652661906
21
38.3110102453087
31
0.0
39
0.0
210
0.0
220
0.0
230
1.0
0
ARC
5
127
330
70
100
AcDbEntity
67
0
8
IV_INTERIOR_PROFILES
62
256
6
ByLayer
370
-1
48
1.0
60
0
100
AcDbCircle
39
0.0
10
149.901652661906
20
38.3110102453087
30
0.0
40
0.100000000000051
210
0.0
220
0.0
230
1.0
100
AcDbArc
50
0.0
51
180.0
0
LINE
5
128
330
70
100
AcDbEntity
67
0
8
IV_INTERIOR_PROFILES
62
256
6
ByLayer
370
-1
48
1.0
60
0
100
AcDbLine
10
150.001652661906
20
38.3110102453087
30
0.0
11
150.001652661906
21
10.3110102453087
31
0.0
39
0.0
210
0.0
220
0.0
230
1.0
0
ARC
5
129
330
70
100
AcDbEntity
67
0
8
IV_INTERIOR_PROFILES
62
256
6
ByLayer
370
-1
48
1.0
60
0
100
AcDbCircle
39
0.0
10
149.901652661906
20
10.3110102453087
30
0.0
40
0.100000000000051
210
0.0
220
0.0
230
1.0
100
AcDbArc
50
180.0
51
0.0
0
LINE
5
12A
330
70
100
AcDbEntity
67
0
8
IV_INTERIOR_PROFILES
62
256
6
ByLayer
370
-1
48
1.0
60
0
100
AcDbLine
10
239.801652661906
20
10.3110102453087
30
0.0
11
239.801652661906
21
38.3110102453087
31
0.0
39
0.0
210
0.0
220
0.0
230
1.0
0
ARC
5
12B
330
70
100
AcDbEntity
67
0
8
IV_INTERIOR_PROFILES
62
256
6
ByLayer
370
-1
48
1.0
60
0
100
AcDbCircle
39
0.0
10
239.901652661906
20
38.3110102453087
30
0.0
40
0.100000000000051
210
0.0
220
0.0
230
1.0
100
AcDbArc
50
0.0
51
180.0
0
LINE
5
12C
330
70
100
AcDbEntity
67
0
8
IV_INTERIOR_PROFILES
62
256
6
ByLayer
370
-1
48
1.0
60
0
100
AcDbLine
10
240.001652661906
20
38.3110102453087
30
0.0
11
240.001652661906
21
10.3110102453087
31
0.0
39
0.0
210
0.0
220
0.0
230
1.0
0
ARC
5
12D
330
70
100
AcDbEntity
67
0
8
IV_INTERIOR_PROFILES
62
256
6
ByLayer
370
-1
48
1.0
60
0
100
AcDbCircle
39
0.0
10
239.901652661906
20
10.3110102453087
30
0.0
40
0.100000000000051
210
0.0
220
0.0
230
1.0
100
AcDbArc
50
180.0
51
0.0
0
LINE
5
12E
330
70
100
AcDbEntity
67
0
8
IV_INTERIOR_PROFILES
62
256
6
ByLayer
370
-1
48
1.0
60
0
100
AcDbLine
10
299.801652661906
20
10.3110102453087
30
0.0
11
299.801652661906
21
38.3110102453087
31
0.0
39
0.0
210
0.0
220
0.0
230
1.0
0
ARC
5
12F
330
70
100
AcDbEntity
67
0
8
IV_INTERIOR_PROFILES
62
256
6
ByLayer
370
-1
48
1.0
60
0
100
AcDbCircle
39
0.0
10
299.901652661906
20
38.3110102453087
30
0.0
40
0.100000000000051
210
0.0
220
0.0
230
1.0
100
AcDbArc
50
0.0
51
180.0
0
LINE
5
130
330
70
100
AcDbEntity
67
0
8
IV_INTERIOR_PROFILES
62
256
6
ByLayer
370
-1
48
1.0
60
0
100
AcDbLine
10
300.001652661906
20
38.3110102453087
30
0.0
11
300.001652661906
21
10.3110102453087
31
0.0
39
0.0
210
0.0
220
0.0
230
1.0
0
ARC
5
131
330
70
100
AcDbEntity
67
0
8
IV_INTERIOR_PROFILES
62
256
6
ByLayer
370
-1
48
1.0
60
0
100
AcDbCircle
39
0.0
10
299.901652661906
20
10.3110102453087
30
0.0
40
0.100000000000051
210
0.0
220
0.0
230
1.0
100
AcDbArc
50
180.0
51
0.0
0
LINE
5
132
330
70
100
AcDbEntity
67
0
8
IV_INTERIOR_PROFILES
62
256
6
ByLayer
370
-1
48
1.0
60
0
100
AcDbLine
10
359.801652661906
20
10.3110102453086
30
0.0
11
359.801652661906
21
38.3110102453087
31
0.0
39
0.0
210
0.0
220
0.0
230
1.0
0
ARC
5
133
330
70
100
AcDbEntity
67
0
8
IV_INTERIOR_PROFILES
62
256
6
ByLayer
370
-1
48
1.0
60
0
100
AcDbCircle
39
0.0
10
359.901652661906
20
38.3110102453087
30
0.0
40
0.100000000000051
210
0.0
220
0.0
230
1.0
100
AcDbArc
50
0.0
51
180.0
0
LINE
5
134
330
70
100
AcDbEntity
67
0
8
IV_INTERIOR_PROFILES
62
256
6
ByLayer
370
-1
48
1.0
60
0
100
AcDbLine
10
360.001652661906
20
38.3110102453087
30
0.0
11
360.001652661906
21
10.3110102453086
31
0.0
39
0.0
210
0.0
220
0.0
230
1.0
0
ARC
5
135
330
70
100
AcDbEntity
67
0
8
IV_INTERIOR_PROFILES
62
256
6
ByLayer
370
-1
48
1.0
60
0
100
AcDbCircle
39
0.0
10
359.901652661906
20
10.3110102453086
30
0.0
40
0.100000000000051
210
0.0
220
0.0
230
1.0
100
AcDbArc
50
180.0
51
0.0
0
LINE
5
136
330
70
100
AcDbEntity
67
0
8
IV_INTERIOR_PROFILES
62
256
6
ByLayer
370
-1
48
1.0
60
0
100
AcDbLine
10
419.801652661906
20
10.3110102453086
30
0.0
11
419.801652661906
21
38.3110102453086
31
0.0
39
0.0
210
0.0
220
0.0
230
1.0
0
ARC
5
137
330
70
100
AcDbEntity
67
0
8
IV_INTERIOR_PROFILES
62
256
6
ByLayer
370
-1
48
1.0
60
0
100
AcDbCircle
39
0.0
10
419.901652661906
20
38.3110102453086
30
0.0
40
0.100000000000051
210
0.0
220
0.0
230
1.0
100
AcDbArc
50
0.0
51
180.0
0
LINE
5
138
330
70
100
AcDbEntity
67
0
8
IV_INTERIOR_PROFILES
62
256
6
ByLayer
370
-1
48
1.0
60
0
100
AcDbLine
10
420.001652661906
20
38.3110102453086
30
0.0
11
420.001652661906
21
10.3110102453086
31
0.0
39
0.0
210
0.0
220
0.0
230
1.0
0
ARC
5
139
330
70
100
AcDbEntity
67
0
8
IV_INTERIOR_PROFILES
62
256
6
ByLayer
370
-1
48
1.0
60
0
100
AcDbCircle
39
0.0
10
419.901652661906
20
10.3110102453086
30
0.0
40
0.100000000000051
210
0.0
220
0.0
230
1.0
100
AcDbArc
50
180.0
51
0.0
0
LINE
5
13A
330
70
100
AcDbEntity
67
0
8
IV_INTERIOR_PROFILES
62
256
6
ByLayer
370
-1
48
1.0
60
0
100
AcDbLine
10
109.801652661906
20
10.3110102453087
30
0.0
11
109.801652661906
21
38.3110102453087
31
0.0
39
0.0
210
0.0
220
0.0
230
1.0
0
ARC
5
13B
330
70
100
AcDbEntity
67
0
8
IV_INTERIOR_PROFILES
62
256
6
ByLayer
370
-1
48
1.0
60
0
100
AcDbCircle
39
0.0
10
109.901652661906
20
38.3110102453087
30
0.0
40
0.100000000000051
210
0.0
220
0.0
230
1.0
100
AcDbArc
50
0.0
51
180.0
0
LINE
5
13C
330
70
100
AcDbEntity
67
0
8
IV_INTERIOR_PROFILES
62
256
6
ByLayer
370
-1
48
1.0
60
0
100
AcDbLine
10
110.001652661906
20
38.3110102453087
30
0.0
11
110.001652661906
21
10.3110102453087
31
0.0
39
0.0
210
0.0
220
0.0
230
1.0
0
ARC
5
13D
330
70
100
AcDbEntity
67
0
8
IV_INTERIOR_PROFILES
62
256
6
ByLayer
370
-1
48
1.0
60
0
100
AcDbCircle
39
0.0
10
109.901652661906
20
10.3110102453087
30
0.0
40
0.100000000000051
210
0.0
220
0.0
230
1.0
100
AcDbArc
50
180.0
51
0.0
0
LINE
5
13E
330
70
100
AcDbEntity
67
0
8
IV_INTERIOR_PROFILES
62
256
6
ByLayer
370
-1
48
1.0
60
0
100
AcDbLine
10
69.8016526619057
20
10.3110102453087
30
0.0
11
69.8016526619058
21
38.3110102453087
31
0.0
39
0.0
210
0.0
220
0.0
230
1.0
0
ARC
5
13F
330
70
100
AcDbEntity
67
0
8
IV_INTERIOR_PROFILES
62
256
6
ByLayer
370
-1
48
1.0
60
0
100
AcDbCircle
39
0.0
10
69.9016526619058
20
38.3110102453087
30
0.0
40
0.100000000000051
210
0.0
220
0.0
230
1.0
100
AcDbArc
50
0.0
51
180.0
0
LINE
5
140
330
70
100
AcDbEntity
67
0
8
IV_INTERIOR_PROFILES
62
256
6
ByLayer
370
-1
48
1.0
60
0
100
AcDbLine
10
70.0016526619058
20
38.3110102453087
30
0.0
11
70.0016526619058
21
10.3110102453087
31
0.0
39
0.0
210
0.0
220
0.0
230
1.0
0
ARC
5
141
330
70
100
AcDbEntity
67
0
8
IV_INTERIOR_PROFILES
62
256
6
ByLayer
370
-1
48
1.0
60
0
100
AcDbCircle
39
0.0
10
69.9016526619058
20
10.3110102453087
30
0.0
40
0.100000000000051
210
0.0
220
0.0
230
1.0
100
AcDbArc
50
180.0
51
0.0
0
LINE
5
142
330
70
100
AcDbEntity
67
0
8
IV_INTERIOR_PROFILES
62
256
6
ByLayer
370
-1
48
1.0
60
0
100
AcDbLine
10
29.8016526619057
20
10.3110102453087
30
0.0
11
29.8016526619058
21
38.3110102453087
31
0.0
39
0.0
210
0.0
220
0.0
230
1.0
0
ARC
5
143
330
70
100
AcDbEntity
67
0
8
IV_INTERIOR_PROFILES
62
256
6
ByLayer
370
-1
48
1.0
60
0
100
AcDbCircle
39
0.0
10
29.9016526619058
20
38.3110102453087
30
0.0
40
0.100000000000051
210
0.0
220
0.0
230
1.0
100
AcDbArc
50
0.0
51
180.0
0
LINE
5
144
330
70
100
AcDbEntity
67
0
8
IV_INTERIOR_PROFILES
62
256
6
ByLayer
370
-1
48
1.0
60
0
100
AcDbLine
10
30.0016526619058
20
38.3110102453087
30
0.0
11
30.0016526619058
21
10.3110102453087
31
0.0
39
0.0
210
0.0
220
0.0
230
1.0
0
ARC
5
145
330
70
100
AcDbEntity
67
0
8
IV_INTERIOR_PROFILES
62
256
6
ByLayer
370
-1
48
1.0
60
0
100
AcDbCircle
39
0.0
10
29.9016526619058
20
10.3110102453087
30
0.0
40
0.100000000000051
210
0.0
220
0.0
230
1.0
100
AcDbArc
50
180.0
51
0.0
0
LINE
5
146
330
70
100
AcDbEntity
67
0
8
IV_INTERIOR_PROFILES
62
256
6
ByLayer
370
-1
48
1.0
60
0
100
AcDbLine
10
19.8016526619057
20
10.3110102453087
30
0.0
11
19.8016526619058
21
38.3110102453087
31
0.0
39
0.0
210
0.0
220
0.0
230
1.0
0
ARC
5
147
330
70
100
AcDbEntity
67
0
8
IV_INTERIOR_PROFILES
62
256
6
ByLayer
370
-1
48
1.0
60
0
100
AcDbCircle
39
0.0
10
19.9016526619058
20
38.3110102453087
30
0.0
40
0.100000000000051
210
0.0
220
0.0
230
1.0
100
AcDbArc
50
0.0
51
180.0
0
LINE
5
148
330
70
100
AcDbEntity
67
0
8
IV_INTERIOR_PROFILES
62
256
6
ByLayer
370
-1
48
1.0
60
0
100
AcDbLine
10
20.0016526619058
20
38.3110102453087
30
0.0
11
20.0016526619058
21
10.3110102453087
31
0.0
39
0.0
210
0.0
220
0.0
230
1.0
0
ARC
5
149
330
70
100
AcDbEntity
67
0
8
IV_INTERIOR_PROFILES
62
256
6
ByLayer
370
-1
48
1.0
60
0
100
AcDbCircle
39
0.0
10
19.9016526619058
20
10.3110102453087
30
0.0
40
0.100000000000051
210
0.0
220
0.0
230
1.0
100
AcDbArc
50
180.0
51
0.0
0
LINE
5
14A
330
70
100
AcDbEntity
67
0
8
IV_INTERIOR_PROFILES
62
256
6
ByLayer
370
-1
48
1.0
60
0
100
AcDbLine
10
59.8016526619057
20
10.3110102453087
30
0.0
11
59.8016526619058
21
38.3110102453087
31
0.0
39
0.0
210
0.0
220
0.0
230
1.0
0
ARC
5
14B
330
70
100
AcDbEntity
67
0
8
IV_INTERIOR_PROFILES
62
256
6
ByLayer
370
-1
48
1.0
60
0
100
AcDbCircle
39
0.0
10
59.9016526619058
20
38.3110102453087
30
0.0
40
0.100000000000051
210
0.0
220
0.0
230
1.0
100
AcDbArc
50
0.0
51
180.0
0
LINE
5
14C
330
70
100
AcDbEntity
67
0
8
IV_INTERIOR_PROFILES
62
256
6
ByLayer
370
-1
48
1.0
60
0
100
AcDbLine
10
60.0016526619058
20
38.3110102453087
30
0.0
11
60.0016526619058
21
10.3110102453087
31
0.0
39
0.0
210
0.0
220
0.0
230
1.0
0
ARC
5
14D
330
70
100
AcDbEntity
67
0
8
IV_INTERIOR_PROFILES
62
256
6
ByLayer
370
-1
48
1.0
60
0
100
AcDbCircle
39
0.0
10
59.9016526619058
20
10.3110102453087
30
0.0
40
0.100000000000051
210
0.0
220
0.0
230
1.0
100
AcDbArc
50
180.0
51
0.0
0
LINE
5
14E
330
70
100
AcDbEntity
67
0
8
IV_INTERIOR_PROFILES
62
256
6
ByLayer
370
-1
48
1.0
60
0
100
AcDbLine
10
99.8016526619057
20
10.3110102453087
30
0.0
11
99.8016526619058
21
38.3110102453087
31
0.0
39
0.0
210
0.0
220
0.0
230
1.0
0
ARC
5
14F
330
70
100
AcDbEntity
67
0
8
IV_INTERIOR_PROFILES
62
256
6
ByLayer
370
-1
48
1.0
60
0
100
AcDbCircle
39
0.0
10
99.9016526619058
20
38.3110102453087
30
0.0
40
0.100000000000051
210
0.0
220
0.0
230
1.0
100
AcDbArc
50
0.0
51
180.0
0
LINE
5
150
330
70
100
AcDbEntity
67
0
8
IV_INTERIOR_PROFILES
62
256
6
ByLayer
370
-1
48
1.0
60
0
100
AcDbLine
10
100.001652661906
20
38.3110102453087
30
0.0
11
100.001652661906
21
10.3110102453087
31
0.0
39
0.0
210
0.0
220
0.0
230
1.0
0
ARC
5
151
330
70
100
AcDbEntity
67
0
8
IV_INTERIOR_PROFILES
62
256
6
ByLayer
370
-1
48
1.0
60
0
100
AcDbCircle
39
0.0
10
99.9016526619058
20
10.3110102453087
30
0.0
40
0.100000000000051
210
0.0
220
0.0
230
1.0
100
AcDbArc
50
180.0
51
0.0
0
LINE
5
152
330
70
100
AcDbEntity
67
0
8
IV_INTERIOR_PROFILES
62
256
6
ByLayer
370
-1
48
1.0
60
0
100
AcDbLine
10
439.801652661906
20
10.3110102453086
30
0.0
11
439.801652661906
21
38.3110102453086
31
0.0
39
0.0
210
0.0
220
0.0
230
1.0
0
ARC
5
153
330
70
100
AcDbEntity
67
0
8
IV_INTERIOR_PROFILES
62
256
6
ByLayer
370
-1
48
1.0
60
0
100
AcDbCircle
39
0.0
10
439.901652661906
20
38.3110102453086
30
0.0
40
0.100000000000051
210
0.0
220
0.0
230
1.0
100
AcDbArc
50
0.0
51
180.0
0
LINE
5
154
330
70
100
AcDbEntity
67
0
8
IV_INTERIOR_PROFILES
62
256
6
ByLayer
370
-1
48
1.0
60
0
100
AcDbLine
10
440.001652661906
20
38.3110102453086
30
0.0
11
440.001652661906
21
10.3110102453086
31
0.0
39
0.0
210
0.0
220
0.0
230
1.0
0
ARC
5
155
330
70
100
AcDbEntity
67
0
8
IV_INTERIOR_PROFILES
62
256
6
ByLayer
370
-1
48
1.0
60
0
100
AcDbCircle
39
0.0
10
439.901652661906
20
10.3110102453086
30
0.0
40
0.100000000000051
210
0.0
220
0.0
230
1.0
100
AcDbArc
50
180.0
51
0.0
0
LINE
5
156
330
70
100
AcDbEntity
67
0
8
IV_INTERIOR_PROFILES
62
256
6
ByLayer
370
-1
48
1.0
60
0
100
AcDbLine
10
379.801652661906
20
10.3110102453086
30
0.0
11
379.801652661906
21
38.3110102453087
31
0.0
39
0.0
210
0.0
220
0.0
230
1.0
0
ARC
5
157
330
70
100
AcDbEntity
67
0
8
IV_INTERIOR_PROFILES
62
256
6
ByLayer
370
-1
48
1.0
60
0
100
AcDbCircle
39
0.0
10
379.901652661906
20
38.3110102453087
30
0.0
40
0.100000000000051
210
0.0
220
0.0
230
1.0
100
AcDbArc
50
0.0
51
180.0
0
LINE
5
158
330
70
100
AcDbEntity
67
0
8
IV_INTERIOR_PROFILES
62
256
6
ByLayer
370
-1
48
1.0
60
0
100
AcDbLine
10
380.001652661906
20
38.3110102453087
30
0.0
11
380.001652661906
21
10.3110102453086
31
0.0
39
0.0
210
0.0
220
0.0
230
1.0
0
ARC
5
159
330
70
100
AcDbEntity
67
0
8
IV_INTERIOR_PROFILES
62
256
6
ByLayer
370
-1
48
1.0
60
0
100
AcDbCircle
39
0.0
10
379.901652661906
20
10.3110102453086
30
0.0
40
0.100000000000051
210
0.0
220
0.0
230
1.0
100
AcDbArc
50
180.0
51
0.0
0
LINE
5
15A
330
70
100
AcDbEntity
67
0
8
IV_INTERIOR_PROFILES
62
256
6
ByLayer
370
-1
48
1.0
60
0
100
AcDbLine
10
319.801652661906
20
10.3110102453086
30
0.0
11
319.801652661906
21
38.3110102453087
31
0.0
39
0.0
210
0.0
220
0.0
230
1.0
0
ARC
5
15B
330
70
100
AcDbEntity
67
0
8
IV_INTERIOR_PROFILES
62
256
6
ByLayer
370
-1
48
1.0
60
0
100
AcDbCircle
39
0.0
10
319.901652661906
20
38.3110102453087
30
0.0
40
0.100000000000051
210
0.0
220
0.0
230
1.0
100
AcDbArc
50
0.0
51
180.0
0
LINE
5
15C
330
70
100
AcDbEntity
67
0
8
IV_INTERIOR_PROFILES
62
256
6
ByLayer
370
-1
48
1.0
60
0
100
AcDbLine
10
320.001652661906
20
38.3110102453087
30
0.0
11
320.001652661906
21
10.3110102453086
31
0.0
39
0.0
210
0.0
220
0.0
230
1.0
0
ARC
5
15D
330
70
100
AcDbEntity
67
0
8
IV_INTERIOR_PROFILES
62
256
6
ByLayer
370
-1
48
1.0
60
0
100
AcDbCircle
39
0.0
10
319.901652661906
20
10.3110102453086
30
0.0
40
0.100000000000051
210
0.0
220
0.0
230
1.0
100
AcDbArc
50
180.0
51
0.0
0
LINE
5
15E
330
70
100
AcDbEntity
67
0
8
IV_INTERIOR_PROFILES
62
256
6
ByLayer
370
-1
48
1.0
60
0
100
AcDbLine
10
309.801652661906
20
10.3110102453087
30
0.0
11
309.801652661906
21
38.3110102453087
31
0.0
39
0.0
210
0.0
220
0.0
230
1.0
0
ARC
5
15F
330
70
100
AcDbEntity
67
0
8
IV_INTERIOR_PROFILES
62
256
6
ByLayer
370
-1
48
1.0
60
0
100
AcDbCircle
39
0.0
10
309.901652661906
20
38.3110102453087
30
0.0
40
0.100000000000051
210
0.0
220
0.0
230
1.0
100
AcDbArc
50
0.0
51
180.0
0
LINE
5
160
330
70
100
AcDbEntity
67
0
8
IV_INTERIOR_PROFILES
62
256
6
ByLayer
370
-1
48
1.0
60
0
100
AcDbLine
10
310.001652661906
20
38.3110102453087
30
0.0
11
310.001652661906
21
10.3110102453087
31
0.0
39
0.0
210
0.0
220
0.0
230
1.0
0
ARC
5
161
330
70
100
AcDbEntity
67
0
8
IV_INTERIOR_PROFILES
62
256
6
ByLayer
370
-1
48
1.0
60
0
100
AcDbCircle
39
0.0
10
309.901652661906
20
10.3110102453087
30
0.0
40
0.100000000000051
210
0.0
220
0.0
230
1.0
100
AcDbArc
50
180.0
51
0.0
0
LINE
5
162
330
70
100
AcDbEntity
67
0
8
IV_INTERIOR_PROFILES
62
256
6
ByLayer
370
-1
48
1.0
60
0
100
AcDbLine
10
219.801652661906
20
10.3110102453087
30
0.0
11
219.801652661906
21
38.3110102453087
31
0.0
39
0.0
210
0.0
220
0.0
230
1.0
0
ARC
5
163
330
70
100
AcDbEntity
67
0
8
IV_INTERIOR_PROFILES
62
256
6
ByLayer
370
-1
48
1.0
60
0
100
AcDbCircle
39
0.0
10
219.901652661906
20
38.3110102453087
30
0.0
40
0.100000000000051
210
0.0
220
0.0
230
1.0
100
AcDbArc
50
0.0
51
180.0
0
LINE
5
164
330
70
100
AcDbEntity
67
0
8
IV_INTERIOR_PROFILES
62
256
6
ByLayer
370
-1
48
1.0
60
0
100
AcDbLine
10
220.001652661906
20
38.3110102453087
30
0.0
11
220.001652661906
21
10.3110102453087
31
0.0
39
0.0
210
0.0
220
0.0
230
1.0
0
ARC
5
165
330
70
100
AcDbEntity
67
0
8
IV_INTERIOR_PROFILES
62
256
6
ByLayer
370
-1
48
1.0
60
0
100
AcDbCircle
39
0.0
10
219.901652661906
20
10.3110102453087
30
0.0
40
0.100000000000051
210
0.0
220
0.0
230
1.0
100
AcDbArc
50
180.0
51
0.0
0
LINE
5
166
330
70
100
AcDbEntity
67
0
8
IV_INTERIOR_PROFILES
62
256
6
ByLayer
370
-1
48
1.0
60
0
100
AcDbLine
10
199.801652661906
20
10.3110102453087
30
0.0
11
199.801652661906
21
38.3110102453087
31
0.0
39
0.0
210
0.0
220
0.0
230
1.0
0
ARC
5
167
330
70
100
AcDbEntity
67
0
8
IV_INTERIOR_PROFILES
62
256
6
ByLayer
370
-1
48
1.0
60
0
100
AcDbCircle
39
0.0
10
199.901652661906
20
38.3110102453087
30
0.0
40
0.100000000000051
210
0.0
220
0.0
230
1.0
100
AcDbArc
50
0.0
51
180.0
0
LINE
5
168
330
70
100
AcDbEntity
67
0
8
IV_INTERIOR_PROFILES
62
256
6
ByLayer
370
-1
48
1.0
60
0
100
AcDbLine
10
200.001652661906
20
38.3110102453087
30
0.0
11
200.001652661906
21
10.3110102453087
31
0.0
39
0.0
210
0.0
220
0.0
230
1.0
0
ARC
5
169
330
70
100
AcDbEntity
67
0
8
IV_INTERIOR_PROFILES
62
256
6
ByLayer
370
-1
48
1.0
60
0
100
AcDbCircle
39
0.0
10
199.901652661906
20
10.3110102453087
30
0.0
40
0.100000000000051
210
0.0
220
0.0
230
1.0
100
AcDbArc
50
180.0
51
0.0
0
LINE
5
16A
330
70
100
AcDbEntity
67
0
8
IV_INTERIOR_PROFILES
62
256
6
ByLayer
370
-1
48
1.0
60
0
100
AcDbLine
10
429.801652661906
20
10.3110102453086
30
0.0
11
429.801652661906
21
38.3110102453086
31
0.0
39
0.0
210
0.0
220
0.0
230
1.0
0
ARC
5
16B
330
70
100
AcDbEntity
67
0
8
IV_INTERIOR_PROFILES
62
256
6
ByLayer
370
-1
48
1.0
60
0
100
AcDbCircle
39
0.0
10
429.901652661906
20
38.3110102453086
30
0.0
40
0.100000000000051
210
0.0
220
0.0
230
1.0
100
AcDbArc
50
0.0
51
180.0
0
LINE
5
16C
330
70
100
AcDbEntity
67
0
8
IV_INTERIOR_PROFILES
62
256
6
ByLayer
370
-1
48
1.0
60
0
100
AcDbLine
10
430.001652661906
20
38.3110102453086
30
0.0
11
430.001652661906
21
10.3110102453086
31
0.0
39
0.0
210
0.0
220
0.0
230
1.0
0
ARC
5
16D
330
70
100
AcDbEntity
67
0
8
IV_INTERIOR_PROFILES
62
256
6
ByLayer
370
-1
48
1.0
60
0
100
AcDbCircle
39
0.0
10
429.901652661906
20
10.3110102453086
30
0.0
40
0.100000000000051
210
0.0
220
0.0
230
1.0
100
AcDbArc
50
180.0
51
0.0
0
LINE
5
16E
330
70
100
AcDbEntity
67
0
8
IV_INTERIOR_PROFILES
62
256
6
ByLayer
370
-1
48
1.0
60
0
100
AcDbLine
10
389.801652661906
20
10.3110102453086
30
0.0
11
389.801652661906
21
38.3110102453087
31
0.0
39
0.0
210
0.0
220
0.0
230
1.0
0
ARC
5
16F
330
70
100
AcDbEntity
67
0
8
IV_INTERIOR_PROFILES
62
256
6
ByLayer
370
-1
48
1.0
60
0
100
AcDbCircle
39
0.0
10
389.901652661906
20
38.3110102453087
30
0.0
40
0.100000000000051
210
0.0
220
0.0
230
1.0
100
AcDbArc
50
0.0
51
180.0
0
LINE
5
170
330
70
100
AcDbEntity
67
0
8
IV_INTERIOR_PROFILES
62
256
6
ByLayer
370
-1
48
1.0
60
0
100
AcDbLine
10
390.001652661906
20
38.3110102453087
30
0.0
11
390.001652661906
21
10.3110102453086
31
0.0
39
0.0
210
0.0
220
0.0
230
1.0
0
ARC
5
171
330
70
100
AcDbEntity
67
0
8
IV_INTERIOR_PROFILES
62
256
6
ByLayer
370
-1
48
1.0
60
0
100
AcDbCircle
39
0.0
10
389.901652661906
20
10.3110102453086
30
0.0
40
0.100000000000051
210
0.0
220
0.0
230
1.0
100
AcDbArc
50
179.999999999995
51
0.0
0
LINE
5
172
330
70
100
AcDbEntity
67
0
8
IV_INTERIOR_PROFILES
62
256
6
ByLayer
370
-1
48
1.0
60
0
100
AcDbLine
10
469.801652661906
20
10.3110102453086
30
0.0
11
469.801652661906
21
38.3110102453086
31
0.0
39
0.0
210
0.0
220
0.0
230
1.0
0
ARC
5
173
330
70
100
AcDbEntity
67
0
8
IV_INTERIOR_PROFILES
62
256
6
ByLayer
370
-1
48
1.0
60
0
100
AcDbCircle
39
0.0
10
469.901652661906
20
38.3110102453086
30
0.0
40
0.100000000000051
210
0.0
220
0.0
230
1.0
100
AcDbArc
50
0.0
51
180.0
0
LINE
5
174
330
70
100
AcDbEntity
67
0
8
IV_INTERIOR_PROFILES
62
256
6
ByLayer
370
-1
48
1.0
60
0
100
AcDbLine
10
470.001652661906
20
38.3110102453086
30
0.0
11
470.001652661906
21
10.3110102453086
31
0.0
39
0.0
210
0.0
220
0.0
230
1.0
0
ARC
5
175
330
70
100
AcDbEntity
67
0
8
IV_INTERIOR_PROFILES
62
256
6
ByLayer
370
-1
48
1.0
60
0
100
AcDbCircle
39
0.0
10
469.901652661906
20
10.3110102453086
30
0.0
40
0.100000000000051
210
0.0
220
0.0
230
1.0
100
AcDbArc
50
180.0
51
0.0
0
LINE
5
176
330
70
100
AcDbEntity
67
0
8
IV_INTERIOR_PROFILES
62
256
6
ByLayer
370
-1
48
1.0
60
0
100
AcDbLine
10
489.801652661906
20
10.3110102453086
30
0.0
11
489.801652661906
21
38.3110102453086
31
0.0
39
0.0
210
0.0
220
0.0
230
1.0
0
ARC
5
177
330
70
100
AcDbEntity
67
0
8
IV_INTERIOR_PROFILES
62
256
6
ByLayer
370
-1
48
1.0
60
0
100
AcDbCircle
39
0.0
10
489.901652661906
20
38.3110102453086
30
0.0
40
0.100000000000051
210
0.0
220
0.0
230
1.0
100
AcDbArc
50
0.0
51
180.0
0
LINE
5
178
330
70
100
AcDbEntity
67
0
8
IV_INTERIOR_PROFILES
62
256
6
ByLayer
370
-1
48
1.0
60
0
100
AcDbLine
10
490.001652661906
20
38.3110102453086
30
0.0
11
490.001652661906
21
10.3110102453086
31
0.0
39
0.0
210
0.0
220
0.0
230
1.0
0
ARC
5
179
330
70
100
AcDbEntity
67
0
8
IV_INTERIOR_PROFILES
62
256
6
ByLayer
370
-1
48
1.0
60
0
100
AcDbCircle
39
0.0
10
489.901652661906
20
10.3110102453086
30
0.0
40
0.100000000000051
210
0.0
220
0.0
230
1.0
100
AcDbArc
50
180.0
51
0.0
0
LINE
5
17A
330
70
100
AcDbEntity
67
0
8
IV_INTERIOR_PROFILES
62
256
6
ByLayer
370
-1
48
1.0
60
0
100
AcDbLine
10
489.801652661906
20
40.1973582526415
30
0.0
11
489.801652661906
21
68.1973582526415
31
0.0
39
0.0
210
0.0
220
0.0
230
1.0
0
ARC
5
17B
330
70
100
AcDbEntity
67
0
8
IV_INTERIOR_PROFILES
62
256
6
ByLayer
370
-1
48
1.0
60
0
100
AcDbCircle
39
0.0
10
489.901652661906
20
68.1973582526415
30
0.0
40
0.100000000000051
210
0.0
220
0.0
230
1.0
100
AcDbArc
50
359.999999999995
51
180.0
0
LINE
5
17C
330
70
100
AcDbEntity
67
0
8
IV_INTERIOR_PROFILES
62
256
6
ByLayer
370
-1
48
1.0
60
0
100
AcDbLine
10
490.001652661906
20
68.1973582526415
30
0.0
11
490.001652661906
21
40.1973582526415
31
0.0
39
0.0
210
0.0
220
0.0
230
1.0
0
ARC
5
17D
330
70
100
AcDbEntity
67
0
8
IV_INTERIOR_PROFILES
62
256
6
ByLayer
370
-1
48
1.0
60
0
100
AcDbCircle
39
0.0
10
489.901652661906
20
40.1973582526415
30
0.0
40
0.100000000000051
210
0.0
220
0.0
230
1.0
100
AcDbArc
50
180.0
51
0.0
0
LINE
5
17E
330
70
100
AcDbEntity
67
0
8
IV_INTERIOR_PROFILES
62
256
6
ByLayer
370
-1
48
1.0
60
0
100
AcDbLine
10
469.801652661906
20
40.1973582526415
30
0.0
11
469.801652661906
21
68.1973582526415
31
0.0
39
0.0
210
0.0
220
0.0
230
1.0
0
ARC
5
17F
330
70
100
AcDbEntity
67
0
8
IV_INTERIOR_PROFILES
62
256
6
ByLayer
370
-1
48
1.0
60
0
100
AcDbCircle
39
0.0
10
469.901652661906
20
68.1973582526415
30
0.0
40
0.100000000000051
210
0.0
220
0.0
230
1.0
100
AcDbArc
50
0.0
51
180.000000000005
0
LINE
5
180
330
70
100
AcDbEntity
67
0
8
IV_INTERIOR_PROFILES
62
256
6
ByLayer
370
-1
48
1.0
60
0
100
AcDbLine
10
470.001652661906
20
68.1973582526415
30
0.0
11
470.001652661906
21
40.1973582526415
31
0.0
39
0.0
210
0.0
220
0.0
230
1.0
0
ARC
5
181
330
70
100
AcDbEntity
67
0
8
IV_INTERIOR_PROFILES
62
256
6
ByLayer
370
-1
48
1.0
60
0
100
AcDbCircle
39
0.0
10
469.901652661906
20
40.1973582526415
30
0.0
40
0.100000000000051
210
0.0
220
0.0
230
1.0
100
AcDbArc
50
180.0
51
0.0
0
LINE
5
182
330
70
100
AcDbEntity
67
0
8
IV_INTERIOR_PROFILES
62
256
6
ByLayer
370
-1
48
1.0
60
0
100
AcDbLine
10
389.801652661906
20
40.1973582526415
30
0.0
11
389.801652661906
21
68.1973582526415
31
0.0
39
0.0
210
0.0
220
0.0
230
1.0
0
ARC
5
183
330
70
100
AcDbEntity
67
0
8
IV_INTERIOR_PROFILES
62
256
6
ByLayer
370
-1
48
1.0
60
0
100
AcDbCircle
39
0.0
10
389.901652661906
20
68.1973582526415
30
0.0
40
0.100000000000051
210
0.0
220
0.0
230
1.0
100
AcDbArc
50
0.0
51
180.0
0
LINE
5
184
330
70
100
AcDbEntity
67
0
8
IV_INTERIOR_PROFILES
62
256
6
ByLayer
370
-1
48
1.0
60
0
100
AcDbLine
10
390.001652661906
20
68.1973582526415
30
0.0
11
390.001652661906
21
40.1973582526415
31
0.0
39
0.0
210
0.0
220
0.0
230
1.0
0
ARC
5
185
330
70
100
AcDbEntity
67
0
8
IV_INTERIOR_PROFILES
62
256
6
ByLayer
370
-1
48
1.0
60
0
100
AcDbCircle
39
0.0
10
389.901652661906
20
40.1973582526415
30
0.0
40
0.100000000000051
210
0.0
220
0.0
230
1.0
100
AcDbArc
50
180.0
51
0.0
0
LINE
5
186
330
70
100
AcDbEntity
67
0
8
IV_INTERIOR_PROFILES
62
256
6
ByLayer
370
-1
48
1.0
60
0
100
AcDbLine
10
429.801652661906
20
40.1973582526415
30
0.0
11
429.801652661906
21
68.1973582526415
31
0.0
39
0.0
210
0.0
220
0.0
230
1.0
0
ARC
5
187
330
70
100
AcDbEntity
67
0
8
IV_INTERIOR_PROFILES
62
256
6
ByLayer
370
-1
48
1.0
60
0
100
AcDbCircle
39
0.0
10
429.901652661906
20
68.1973582526415
30
0.0
40
0.100000000000051
210
0.0
220
0.0
230
1.0
100
AcDbArc
50
359.999999999995
51
180.000000000005
0
LINE
5
188
330
70
100
AcDbEntity
67
0
8
IV_INTERIOR_PROFILES
62
256
6
ByLayer
370
-1
48
1.0
60
0
100
AcDbLine
10
430.001652661906
20
68.1973582526415
30
0.0
11
430.001652661906
21
40.1973582526415
31
0.0
39
0.0
210
0.0
220
0.0
230
1.0
0
ARC
5
189
330
70
100
AcDbEntity
67
0
8
IV_INTERIOR_PROFILES
62
256
6
ByLayer
370
-1
48
1.0
60
0
100
AcDbCircle
39
0.0
10
429.901652661906
20
40.1973582526415
30
0.0
40
0.100000000000051
210
0.0
220
0.0
230
1.0
100
AcDbArc
50
180.0
51
0.0000000000051159
0
LINE
5
18A
330
70
100
AcDbEntity
67
0
8
IV_INTERIOR_PROFILES
62
256
6
ByLayer
370
-1
48
1.0
60
0
100
AcDbLine
10
199.801652661906
20
40.1973582526416
30
0.0
11
199.801652661906
21
68.1973582526416
31
0.0
39
0.0
210
0.0
220
0.0
230
1.0
0
ARC
5
18B
330
70
100
AcDbEntity
67
0
8
IV_INTERIOR_PROFILES
62
256
6
ByLayer
370
-1
48
1.0
60
0
100
AcDbCircle
39
0.0
10
199.901652661906
20
68.1973582526416
30
0.0
40
0.100000000000051
210
0.0
220
0.0
230
1.0
100
AcDbArc
50
359.999999999995
51
180.0
0
LINE
5
18C
330
70
100
AcDbEntity
67
0
8
IV_INTERIOR_PROFILES
62
256
6
ByLayer
370
-1
48
1.0
60
0
100
AcDbLine
10
200.001652661906
20
68.1973582526415
30
0.0
11
200.001652661906
21
40.1973582526416
31
0.0
39
0.0
210
0.0
220
0.0
230
1.0
0
ARC
5
18D
330
70
100
AcDbEntity
67
0
8
IV_INTERIOR_PROFILES
62
256
6
ByLayer
370
-1
48
1.0
60
0
100
AcDbCircle
39
0.0
10
199.901652661906
20
40.1973582526416
30
0.0
40
0.100000000000051
210
0.0
220
0.0
230
1.0
100
AcDbArc
50
180.0
51
0.0
0
LINE
5
18E
330
70
100
AcDbEntity
67
0
8
IV_INTERIOR_PROFILES
62
256
6
ByLayer
370
-1
48
1.0
60
0
100
AcDbLine
10
219.801652661906
20
40.1973582526415
30
0.0
11
219.801652661906
21
68.1973582526415
31
0.0
39
0.0
210
0.0
220
0.0
230
1.0
0
ARC
5
18F
330
70
100
AcDbEntity
67
0
8
IV_INTERIOR_PROFILES
62
256
6
ByLayer
370
-1
48
1.0
60
0
100
AcDbCircle
39
0.0
10
219.901652661906
20
68.1973582526416
30
0.0
40
0.100000000000051
210
0.0
220
0.0
230
1.0
100
AcDbArc
50
359.999999999995
51
180.000000000005
0
LINE
5
190
330
70
100
AcDbEntity
67
0
8
IV_INTERIOR_PROFILES
62
256
6
ByLayer
370
-1
48
1.0
60
0
100
AcDbLine
10
220.001652661906
20
68.1973582526415
30
0.0
11
220.001652661906
21
40.1973582526415
31
0.0
39
0.0
210
0.0
220
0.0
230
1.0
0
ARC
5
191
330
70
100
AcDbEntity
67
0
8
IV_INTERIOR_PROFILES
62
256
6
ByLayer
370
-1
48
1.0
60
0
100
AcDbCircle
39
0.0
10
219.901652661906
20
40.1973582526415
30
0.0
40
0.100000000000051
210
0.0
220
0.0
230
1.0
100
AcDbArc
50
180.0
51
0.0
0
LINE
5
192
330
70
100
AcDbEntity
67
0
8
IV_INTERIOR_PROFILES
62
256
6
ByLayer
370
-1
48
1.0
60
0
100
AcDbLine
10
309.801652661906
20
40.1973582526415
30
0.0
11
309.801652661906
21
68.1973582526415
31
0.0
39
0.0
210
0.0
220
0.0
230
1.0
0
ARC
5
193
330
70
100
AcDbEntity
67
0
8
IV_INTERIOR_PROFILES
62
256
6
ByLayer
370
-1
48
1.0
60
0
100
AcDbCircle
39
0.0
10
309.901652661906
20
68.1973582526415
30
0.0
40
0.100000000000051
210
0.0
220
0.0
230
1.0
100
AcDbArc
50
0.0
51
180.0
0
LINE
5
194
330
70
100
AcDbEntity
67
0
8
IV_INTERIOR_PROFILES
62
256
6
ByLayer
370
-1
48
1.0
60
0
100
AcDbLine
10
310.001652661906
20
68.1973582526415
30
0.0
11
310.001652661906
21
40.1973582526415
31
0.0
39
0.0
210
0.0
220
0.0
230
1.0
0
ARC
5
195
330
70
100
AcDbEntity
67
0
8
IV_INTERIOR_PROFILES
62
256
6
ByLayer
370
-1
48
1.0
60
0
100
AcDbCircle
39
0.0
10
309.901652661906
20
40.1973582526415
30
0.0
40
0.100000000000051
210
0.0
220
0.0
230
1.0
100
AcDbArc
50
180.0
51
359.999999999995
0
LINE
5
196
330
70
100
AcDbEntity
67
0
8
IV_INTERIOR_PROFILES
62
256
6
ByLayer
370
-1
48
1.0
60
0
100
AcDbLine
10
319.801652661906
20
40.1973582526415
30
0.0
11
319.801652661906
21
68.1973582526415
31
0.0
39
0.0
210
0.0
220
0.0
230
1.0
0
ARC
5
197
330
70
100
AcDbEntity
67
0
8
IV_INTERIOR_PROFILES
62
256
6
ByLayer
370
-1
48
1.0
60
0
100
AcDbCircle
39
0.0
10
319.901652661906
20
68.1973582526415
30
0.0
40
0.100000000000051
210
0.0
220
0.0
230
1.0
100
AcDbArc
50
0.0
51
180.000000000005
0
LINE
5
198
330
70
100
AcDbEntity
67
0
8
IV_INTERIOR_PROFILES
62
256
6
ByLayer
370
-1
48
1.0
60
0
100
AcDbLine
10
320.001652661906
20
68.1973582526415
30
0.0
11
320.001652661906
21
40.1973582526415
31
0.0
39
0.0
210
0.0
220
0.0
230
1.0
0
ARC
5
199
330
70
100
AcDbEntity
67
0
8
IV_INTERIOR_PROFILES
62
256
6
ByLayer
370
-1
48
1.0
60
0
100
AcDbCircle
39
0.0
10
319.901652661906
20
40.1973582526415
30
0.0
40
0.100000000000051
210
0.0
220
0.0
230
1.0
100
AcDbArc
50
180.0
51
0.0
0
LINE
5
19A
330
70
100
AcDbEntity
67
0
8
IV_INTERIOR_PROFILES
62
256
6
ByLayer
370
-1
48
1.0
60
0
100
AcDbLine
10
379.801652661906
20
40.1973582526415
30
0.0
11
379.801652661906
21
68.1973582526415
31
0.0
39
0.0
210
0.0
220
0.0
230
1.0
0
ARC
5
19B
330
70
100
AcDbEntity
67
0
8
IV_INTERIOR_PROFILES
62
256
6
ByLayer
370
-1
48
1.0
60
0
100
AcDbCircle
39
0.0
10
379.901652661906
20
68.1973582526415
30
0.0
40
0.100000000000051
210
0.0
220
0.0
230
1.0
100
AcDbArc
50
0.0
51
180.0
0
LINE
5
19C
330
70
100
AcDbEntity
67
0
8
IV_INTERIOR_PROFILES
62
256
6
ByLayer
370
-1
48
1.0
60
0
100
AcDbLine
10
380.001652661906
20
68.1973582526415
30
0.0
11
380.001652661906
21
40.1973582526415
31
0.0
39
0.0
210
0.0
220
0.0
230
1.0
0
ARC
5
19D
330
70
100
AcDbEntity
67
0
8
IV_INTERIOR_PROFILES
62
256
6
ByLayer
370
-1
48
1.0
60
0
100
AcDbCircle
39
0.0
10
379.901652661906
20
40.1973582526415
30
0.0
40
0.100000000000051
210
0.0
220
0.0
230
1.0
100
AcDbArc
50
180.0
51
0.0
0
LINE
5
19E
330
70
100
AcDbEntity
67
0
8
IV_INTERIOR_PROFILES
62
256
6
ByLayer
370
-1
48
1.0
60
0
100
AcDbLine
10
439.801652661906
20
40.1973582526415
30
0.0
11
439.801652661906
21
68.1973582526415
31
0.0
39
0.0
210
0.0
220
0.0
230
1.0
0
ARC
5
19F
330
70
100
AcDbEntity
67
0
8
IV_INTERIOR_PROFILES
62
256
6
ByLayer
370
-1
48
1.0
60
0
100
AcDbCircle
39
0.0
10
439.901652661906
20
68.1973582526415
30
0.0
40
0.100000000000051
210
0.0
220
0.0
230
1.0
100
AcDbArc
50
359.999999999995
51
180.000000000005
0
LINE
5
1A0
330
70
100
AcDbEntity
67
0
8
IV_INTERIOR_PROFILES
62
256
6
ByLayer
370
-1
48
1.0
60
0
100
AcDbLine
10
440.001652661906
20
68.1973582526415
30
0.0
11
440.001652661906
21
40.1973582526415
31
0.0
39
0.0
210
0.0
220
0.0
230
1.0
0
ARC
5
1A1
330
70
100
AcDbEntity
67
0
8
IV_INTERIOR_PROFILES
62
256
6
ByLayer
370
-1
48
1.0
60
0
100
AcDbCircle
39
0.0
10
439.901652661906
20
40.1973582526415
30
0.0
40
0.100000000000051
210
0.0
220
0.0
230
1.0
100
AcDbArc
50
180.0
51
0.0
0
LINE
5
1A2
330
70
100
AcDbEntity
67
0
8
IV_INTERIOR_PROFILES
62
256
6
ByLayer
370
-1
48
1.0
60
0
100
AcDbLine
10
99.8016526619058
20
40.1973582526416
30
0.0
11
99.8016526619057
21
68.1973582526416
31
0.0
39
0.0
210
0.0
220
0.0
230
1.0
0
ARC
5
1A3
330
70
100
AcDbEntity
67
0
8
IV_INTERIOR_PROFILES
62
256
6
ByLayer
370
-1
48
1.0
60
0
100
AcDbCircle
39
0.0
10
99.9016526619058
20
68.1973582526416
30
0.0
40
0.100000000000051
210
0.0
220
0.0
230
1.0
100
AcDbArc
50
0.0
51
180.000000000005
0
LINE
5
1A4
330
70
100
AcDbEntity
67
0
8
IV_INTERIOR_PROFILES
62
256
6
ByLayer
370
-1
48
1.0
60
0
100
AcDbLine
10
100.001652661906
20
68.1973582526416
30
0.0
11
100.001652661906
21
40.1973582526416
31
0.0
39
0.0
210
0.0
220
0.0
230
1.0
0
ARC
5
1A5
330
70
100
AcDbEntity
67
0
8
IV_INTERIOR_PROFILES
62
256
6
ByLayer
370
-1
48
1.0
60
0
100
AcDbCircle
39
0.0
10
99.9016526619058
20
40.1973582526416
30
0.0
40
0.100000000000051
210
0.0
220
0.0
230
1.0
100
AcDbArc
50
180.0
51
0.0
0
LINE
5
1A6
330
70
100
AcDbEntity
67
0
8
IV_INTERIOR_PROFILES
62
256
6
ByLayer
370
-1
48
1.0
60
0
100
AcDbLine
10
59.8016526619058
20
40.1973582526416
30
0.0
11
59.8016526619057
21
68.1973582526416
31
0.0
39
0.0
210
0.0
220
0.0
230
1.0
0
ARC
5
1A7
330
70
100
AcDbEntity
67
0
8
IV_INTERIOR_PROFILES
62
256
6
ByLayer
370
-1
48
1.0
60
0
100
AcDbCircle
39
0.0
10
59.9016526619058
20
68.1973582526416
30
0.0
40
0.100000000000051
210
0.0
220
0.0
230
1.0
100
AcDbArc
50
359.999999999995
51
180.0
0
LINE
5
1A8
330
70
100
AcDbEntity
67
0
8
IV_INTERIOR_PROFILES
62
256
6
ByLayer
370
-1
48
1.0
60
0
100
AcDbLine
10
60.0016526619059
20
68.1973582526416
30
0.0
11
60.0016526619058
21
40.1973582526416
31
0.0
39
0.0
210
0.0
220
0.0
230
1.0
0
ARC
5
1A9
330
70
100
AcDbEntity
67
0
8
IV_INTERIOR_PROFILES
62
256
6
ByLayer
370
-1
48
1.0
60
0
100
AcDbCircle
39
0.0
10
59.9016526619058
20
40.1973582526416
30
0.0
40
0.100000000000051
210
0.0
220
0.0
230
1.0
100
AcDbArc
50
180.0
51
0.0
0
LINE
5
1AA
330
70
100
AcDbEntity
67
0
8
IV_INTERIOR_PROFILES
62
256
6
ByLayer
370
-1
48
1.0
60
0
100
AcDbLine
10
19.8016526619058
20
40.1973582526416
30
0.0
11
19.8016526619057
21
68.1973582526416
31
0.0
39
0.0
210
0.0
220
0.0
230
1.0
0
ARC
5
1AB
330
70
100
AcDbEntity
67
0
8
IV_INTERIOR_PROFILES
62
256
6
ByLayer
370
-1
48
1.0
60
0
100
AcDbCircle
39
0.0
10
19.9016526619058
20
68.1973582526416
30
0.0
40
0.100000000000051
210
0.0
220
0.0
230
1.0
100
AcDbArc
50
0.0
51
180.0
0
LINE
5
1AC
330
70
100
AcDbEntity
67
0
8
IV_INTERIOR_PROFILES
62
256
6
ByLayer
370
-1
48
1.0
60
0
100
AcDbLine
10
20.0016526619058
20
68.1973582526416
30
0.0
11
20.0016526619058
21
40.1973582526416
31
0.0
39
0.0
210
0.0
220
0.0
230
1.0
0
ARC
5
1AD
330
70
100
AcDbEntity
67
0
8
IV_INTERIOR_PROFILES
62
256
6
ByLayer
370
-1
48
1.0
60
0
100
AcDbCircle
39
0.0
10
19.9016526619058
20
40.1973582526416
30
0.0
40
0.100000000000051
210
0.0
220
0.0
230
1.0
100
AcDbArc
50
180.0
51
359.999999999995
0
LINE
5
1AE
330
70
100
AcDbEntity
67
0
8
IV_INTERIOR_PROFILES
62
256
6
ByLayer
370
-1
48
1.0
60
0
100
AcDbLine
10
29.8016526619058
20
40.1973582526416
30
0.0
11
29.8016526619057
21
68.1973582526416
31
0.0
39
0.0
210
0.0
220
0.0
230
1.0
0
ARC
5
1AF
330
70
100
AcDbEntity
67
0
8
IV_INTERIOR_PROFILES
62
256
6
ByLayer
370
-1
48
1.0
60
0
100
AcDbCircle
39
0.0
10
29.9016526619058
20
68.1973582526416
30
0.0
40
0.100000000000051
210
0.0
220
0.0
230
1.0
100
AcDbArc
50
0.0
51
180.000000000005
0
LINE
5
1B0
330
70
100
AcDbEntity
67
0
8
IV_INTERIOR_PROFILES
62
256
6
ByLayer
370
-1
48
1.0
60
0
100
AcDbLine
10
30.0016526619058
20
68.1973582526416
30
0.0
11
30.0016526619058
21
40.1973582526416
31
0.0
39
0.0
210
0.0
220
0.0
230
1.0
0
ARC
5
1B1
330
70
100
AcDbEntity
67
0
8
IV_INTERIOR_PROFILES
62
256
6
ByLayer
370
-1
48
1.0
60
0
100
AcDbCircle
39
0.0
10
29.9016526619058
20
40.1973582526416
30
0.0
40
0.100000000000051
210
0.0
220
0.0
230
1.0
100
AcDbArc
50
180.0
51
0.0
0
LINE
5
1B2
330
70
100
AcDbEntity
67
0
8
IV_INTERIOR_PROFILES
62
256
6
ByLayer
370
-1
48
1.0
60
0
100
AcDbLine
10
69.8016526619058
20
40.1973582526416
30
0.0
11
69.8016526619057
21
68.1973582526416
31
0.0
39
0.0
210
0.0
220
0.0
230
1.0
0
ARC
5
1B3
330
70
100
AcDbEntity
67
0
8
IV_INTERIOR_PROFILES
62
256
6
ByLayer
370
-1
48
1.0
60
0
100
AcDbCircle
39
0.0
10
69.9016526619058
20
68.1973582526416
30
0.0
40
0.100000000000051
210
0.0
220
0.0
230
1.0
100
AcDbArc
50
359.999999999995
51
180.000000000005
0
LINE
5
1B4
330
70
100
AcDbEntity
67
0
8
IV_INTERIOR_PROFILES
62
256
6
ByLayer
370
-1
48
1.0
60
0
100
AcDbLine
10
70.0016526619058
20
68.1973582526416
30
0.0
11
70.0016526619058
21
40.1973582526416
31
0.0
39
0.0
210
0.0
220
0.0
230
1.0
0
ARC
5
1B5
330
70
100
AcDbEntity
67
0
8
IV_INTERIOR_PROFILES
62
256
6
ByLayer
370
-1
48
1.0
60
0
100
AcDbCircle
39
0.0
10
69.9016526619058
20
40.1973582526416
30
0.0
40
0.100000000000051
210
0.0
220
0.0
230
1.0
100
AcDbArc
50
180.0
51
0.0000000000051159
0
LINE
5
1B6
330
70
100
AcDbEntity
67
0
8
IV_INTERIOR_PROFILES
62
256
6
ByLayer
370
-1
48
1.0
60
0
100
AcDbLine
10
109.801652661906
20
40.1973582526416
30
0.0
11
109.801652661906
21
68.1973582526416
31
0.0
39
0.0
210
0.0
220
0.0
230
1.0
0
ARC
5
1B7
330
70
100
AcDbEntity
67
0
8
IV_INTERIOR_PROFILES
62
256
6
ByLayer
370
-1
48
1.0
60
0
100
AcDbCircle
39
0.0
10
109.901652661906
20
68.1973582526416
30
0.0
40
0.100000000000051
210
0.0
220
0.0
230
1.0
100
AcDbArc
50
0.0
51
180.000000000005
0
LINE
5
1B8
330
70
100
AcDbEntity
67
0
8
IV_INTERIOR_PROFILES
62
256
6
ByLayer
370
-1
48
1.0
60
0
100
AcDbLine
10
110.001652661906
20
68.1973582526416
30
0.0
11
110.001652661906
21
40.1973582526416
31
0.0
39
0.0
210
0.0
220
0.0
230
1.0
0
ARC
5
1B9
330
70
100
AcDbEntity
67
0
8
IV_INTERIOR_PROFILES
62
256
6
ByLayer
370
-1
48
1.0
60
0
100
AcDbCircle
39
0.0
10
109.901652661906
20
40.1973582526416
30
0.0
40
0.100000000000051
210
0.0
220
0.0
230
1.0
100
AcDbArc
50
180.0
51
0.0
0
LINE
5
1BA
330
70
100
AcDbEntity
67
0
8
IV_INTERIOR_PROFILES
62
256
6
ByLayer
370
-1
48
1.0
60
0
100
AcDbLine
10
419.801652661906
20
40.1973582526415
30
0.0
11
419.801652661906
21
68.1973582526415
31
0.0
39
0.0
210
0.0
220
0.0
230
1.0
0
ARC
5
1BB
330
70
100
AcDbEntity
67
0
8
IV_INTERIOR_PROFILES
62
256
6
ByLayer
370
-1
48
1.0
60
0
100
AcDbCircle
39
0.0
10
419.901652661906
20
68.1973582526415
30
0.0
40
0.100000000000051
210
0.0
220
0.0
230
1.0
100
AcDbArc
50
359.999999999995
51
180.0
0
LINE
5
1BC
330
70
100
AcDbEntity
67
0
8
IV_INTERIOR_PROFILES
62
256
6
ByLayer
370
-1
48
1.0
60
0
100
AcDbLine
10
420.001652661906
20
68.1973582526415
30
0.0
11
420.001652661906
21
40.1973582526415
31
0.0
39
0.0
210
0.0
220
0.0
230
1.0
0
ARC
5
1BD
330
70
100
AcDbEntity
67
0
8
IV_INTERIOR_PROFILES
62
256
6
ByLayer
370
-1
48
1.0
60
0
100
AcDbCircle
39
0.0
10
419.901652661906
20
40.1973582526415
30
0.0
40
0.100000000000051
210
0.0
220
0.0
230
1.0
100
AcDbArc
50
180.0
51
0.0
0
LINE
5
1BE
330
70
100
AcDbEntity
67
0
8
IV_INTERIOR_PROFILES
62
256
6
ByLayer
370
-1
48
1.0
60
0
100
AcDbLine
10
359.801652661906
20
40.1973582526415
30
0.0
11
359.801652661906
21
68.1973582526415
31
0.0
39
0.0
210
0.0
220
0.0
230
1.0
0
ARC
5
1BF
330
70
100
AcDbEntity
67
0
8
IV_INTERIOR_PROFILES
62
256
6
ByLayer
370
-1
48
1.0
60
0
100
AcDbCircle
39
0.0
10
359.901652661906
20
68.1973582526415
30
0.0
40
0.100000000000051
210
0.0
220
0.0
230
1.0
100
AcDbArc
50
359.999999999995
51
180.000000000005
0
LINE
5
1C0
330
70
100
AcDbEntity
67
0
8
IV_INTERIOR_PROFILES
62
256
6
ByLayer
370
-1
48
1.0
60
0
100
AcDbLine
10
360.001652661906
20
68.1973582526415
30
0.0
11
360.001652661906
21
40.1973582526415
31
0.0
39
0.0
210
0.0
220
0.0
230
1.0
0
ARC
5
1C1
330
70
100
AcDbEntity
67
0
8
IV_INTERIOR_PROFILES
62
256
6
ByLayer
370
-1
48
1.0
60
0
100
AcDbCircle
39
0.0
10
359.901652661906
20
40.1973582526415
30
0.0
40
0.100000000000051
210
0.0
220
0.0
230
1.0
100
AcDbArc
50
180.0
51
0.0000000000051159
0
LINE
5
1C2
330
70
100
AcDbEntity
67
0
8
IV_INTERIOR_PROFILES
62
256
6
ByLayer
370
-1
48
1.0
60
0
100
AcDbLine
10
299.801652661906
20
40.1973582526415
30
0.0
11
299.801652661906
21
68.1973582526415
31
0.0
39
0.0
210
0.0
220
0.0
230
1.0
0
ARC
5
1C3
330
70
100
AcDbEntity
67
0
8
IV_INTERIOR_PROFILES
62
256
6
ByLayer
370
-1
48
1.0
60
0
100
AcDbCircle
39
0.0
10
299.901652661906
20
68.1973582526415
30
0.0
40
0.100000000000051
210
0.0
220
0.0
230
1.0
100
AcDbArc
50
0.0
51
180.0
0
LINE
5
1C4
330
70
100
AcDbEntity
67
0
8
IV_INTERIOR_PROFILES
62
256
6
ByLayer
370
-1
48
1.0
60
0
100
AcDbLine
10
300.001652661906
20
68.1973582526415
30
0.0
11
300.001652661906
21
40.1973582526415
31
0.0
39
0.0
210
0.0
220
0.0
230
1.0
0
ARC
5
1C5
330
70
100
AcDbEntity
67
0
8
IV_INTERIOR_PROFILES
62
256
6
ByLayer
370
-1
48
1.0
60
0
100
AcDbCircle
39
0.0
10
299.901652661906
20
40.1973582526415
30
0.0
40
0.100000000000051
210
0.0
220
0.0
230
1.0
100
AcDbArc
50
180.0
51
0.0
0
LINE
5
1C6
330
70
100
AcDbEntity
67
0
8
IV_INTERIOR_PROFILES
62
256
6
ByLayer
370
-1
48
1.0
60
0
100
AcDbLine
10
239.801652661906
20
40.1973582526415
30
0.0
11
239.801652661906
21
68.1973582526415
31
0.0
39
0.0
210
0.0
220
0.0
230
1.0
0
ARC
5
1C7
330
70
100
AcDbEntity
67
0
8
IV_INTERIOR_PROFILES
62
256
6
ByLayer
370
-1
48
1.0
60
0
100
AcDbCircle
39
0.0
10
239.901652661906
20
68.1973582526415
30
0.0
40
0.100000000000051
210
0.0
220
0.0
230
1.0
100
AcDbArc
50
0.0
51
180.0
0
LINE
5
1C8
330
70
100
AcDbEntity
67
0
8
IV_INTERIOR_PROFILES
62
256
6
ByLayer
370
-1
48
1.0
60
0
100
AcDbLine
10
240.001652661906
20
68.1973582526415
30
0.0
11
240.001652661906
21
40.1973582526415
31
0.0
39
0.0
210
0.0
220
0.0
230
1.0
0
ARC
5
1C9
330
70
100
AcDbEntity
67
0
8
IV_INTERIOR_PROFILES
62
256
6
ByLayer
370
-1
48
1.0
60
0
100
AcDbCircle
39
0.0
10
239.901652661906
20
40.1973582526415
30
0.0
40
0.100000000000051
210
0.0
220
0.0
230
1.0
100
AcDbArc
50
180.0
51
359.999999999995
0
LINE
5
1CA
330
70
100
AcDbEntity
67
0
8
IV_INTERIOR_PROFILES
62
256
6
ByLayer
370
-1
48
1.0
60
0
100
AcDbLine
10
149.801652661906
20
40.1973582526416
30
0.0
11
149.801652661906
21
68.1973582526416
31
0.0
39
0.0
210
0.0
220
0.0
230
1.0
0
ARC
5
1CB
330
70
100
AcDbEntity
67
0
8
IV_INTERIOR_PROFILES
62
256
6
ByLayer
370
-1
48
1.0
60
0
100
AcDbCircle
39
0.0
10
149.901652661906
20
68.1973582526416
30
0.0
40
0.100000000000051
210
0.0
220
0.0
230
1.0
100
AcDbArc
50
359.999999999995
51
180.000000000005
0
LINE
5
1CC
330
70
100
AcDbEntity
67
0
8
IV_INTERIOR_PROFILES
62
256
6
ByLayer
370
-1
48
1.0
60
0
100
AcDbLine
10
150.001652661906
20
68.1973582526416
30
0.0
11
150.001652661906
21
40.1973582526416
31
0.0
39
0.0
210
0.0
220
0.0
230
1.0
0
ARC
5
1CD
330
70
100
AcDbEntity
67
0
8
IV_INTERIOR_PROFILES
62
256
6
ByLayer
370
-1
48
1.0
60
0
100
AcDbCircle
39
0.0
10
149.901652661906
20
40.1973582526416
30
0.0
40
0.100000000000051
210
0.0
220
0.0
230
1.0
100
AcDbArc
50
180.0
51
0.0
0
LINE
5
1CE
330
70
100
AcDbEntity
67
0
8
IV_INTERIOR_PROFILES
62
256
6
ByLayer
370
-1
48
1.0
60
0
100
AcDbLine
10
169.801652661906
20
40.1973582526416
30
0.0
11
169.801652661906
21
68.1973582526416
31
0.0
39
0.0
210
0.0
220
0.0
230
1.0
0
ARC
5
1CF
330
70
100
AcDbEntity
67
0
8
IV_INTERIOR_PROFILES
62
256
6
ByLayer
370
-1
48
1.0
60
0
100
AcDbCircle
39
0.0
10
169.901652661906
20
68.1973582526416
30
0.0
40
0.100000000000051
210
0.0
220
0.0
230
1.0
100
AcDbArc
50
0.0
51
180.0
0
LINE
5
1D0
330
70
100
AcDbEntity
67
0
8
IV_INTERIOR_PROFILES
62
256
6
ByLayer
370
-1
48
1.0
60
0
100
AcDbLine
10
170.001652661906
20
68.1973582526416
30
0.0
11
170.001652661906
21
40.1973582526416
31
0.0
39
0.0
210
0.0
220
0.0
230
1.0
0
ARC
5
1D1
330
70
100
AcDbEntity
67
0
8
IV_INTERIOR_PROFILES
62
256
6
ByLayer
370
-1
48
1.0
60
0
100
AcDbCircle
39
0.0
10
169.901652661906
20
40.1973582526416
30
0.0
40
0.100000000000051
210
0.0
220
0.0
230
1.0
100
AcDbArc
50
180.0
51
359.999999999995
0
LINE
5
1D2
330
70
100
AcDbEntity
67
0
8
IV_INTERIOR_PROFILES
62
256
6
ByLayer
370
-1
48
1.0
60
0
100
AcDbLine
10
279.801652661906
20
40.1973582526415
30
0.0
11
279.801652661906
21
68.1973582526415
31
0.0
39
0.0
210
0.0
220
0.0
230
1.0
0
ARC
5
1D3
330
70
100
AcDbEntity
67
0
8
IV_INTERIOR_PROFILES
62
256
6
ByLayer
370
-1
48
1.0
60
0
100
AcDbCircle
39
0.0
10
279.901652661906
20
68.1973582526415
30
0.0
40
0.100000000000051
210
0.0
220
0.0
230
1.0
100
AcDbArc
50
359.999999999995
51
180.0
0
LINE
5
1D4
330
70
100
AcDbEntity
67
0
8
IV_INTERIOR_PROFILES
62
256
6
ByLayer
370
-1
48
1.0
60
0
100
AcDbLine
10
280.001652661906
20
68.1973582526415
30
0.0
11
280.001652661906
21
40.1973582526415
31
0.0
39
0.0
210
0.0
220
0.0
230
1.0
0
ARC
5
1D5
330
70
100
AcDbEntity
67
0
8
IV_INTERIOR_PROFILES
62
256
6
ByLayer
370
-1
48
1.0
60
0
100
AcDbCircle
39
0.0
10
279.901652661906
20
40.1973582526415
30
0.0
40
0.100000000000051
210
0.0
220
0.0
230
1.0
100
AcDbArc
50
180.0
51
0.0
0
LINE
5
1D6
330
70
100
AcDbEntity
67
0
8
IV_INTERIOR_PROFILES
62
256
6
ByLayer
370
-1
48
1.0
60
0
100
AcDbLine
10
249.801652661906
20
40.1973582526415
30
0.0
11
249.801652661906
21
68.1973582526415
31
0.0
39
0.0
210
0.0
220
0.0
230
1.0
0
ARC
5
1D7
330
70
100
AcDbEntity
67
0
8
IV_INTERIOR_PROFILES
62
256
6
ByLayer
370
-1
48
1.0
60
0
100
AcDbCircle
39
0.0
10
249.901652661906
20
68.1973582526415
30
0.0
40
0.100000000000051
210
0.0
220
0.0
230
1.0
100
AcDbArc
50
0.0
51
180.000000000005
0
LINE
5
1D8
330
70
100
AcDbEntity
67
0
8
IV_INTERIOR_PROFILES
62
256
6
ByLayer
370
-1
48
1.0
60
0
100
AcDbLine
10
250.001652661906
20
68.1973582526415
30
0.0
11
250.001652661906
21
40.1973582526415
31
0.0
39
0.0
210
0.0
220
0.0
230
1.0
0
ARC
5
1D9
330
70
100
AcDbEntity
67
0
8
IV_INTERIOR_PROFILES
62
256
6
ByLayer
370
-1
48
1.0
60
0
100
AcDbCircle
39
0.0
10
249.901652661906
20
40.1973582526415
30
0.0
40
0.100000000000051
210
0.0
220
0.0
230
1.0
100
AcDbArc
50
180.0
51
0.0
0
LINE
5
1DA
330
70
100
AcDbEntity
67
0
8
IV_INTERIOR_PROFILES
62
256
6
ByLayer
370
-1
48
1.0
60
0
100
AcDbLine
10
449.801652661906
20
40.1973582526415
30
0.0
11
449.801652661906
21
68.1973582526415
31
0.0
39
0.0
210
0.0
220
0.0
230
1.0
0
ARC
5
1DB
330
70
100
AcDbEntity
67
0
8
IV_INTERIOR_PROFILES
62
256
6
ByLayer
370
-1
48
1.0
60
0
100
AcDbCircle
39
0.0
10
449.901652661906
20
68.1973582526415
30
0.0
40
0.100000000000051
210
0.0
220
0.0
230
1.0
100
AcDbArc
50
0.0
51
180.0
0
LINE
5
1DC
330
70
100
AcDbEntity
67
0
8
IV_INTERIOR_PROFILES
62
256
6
ByLayer
370
-1
48
1.0
60
0
100
AcDbLine
10
450.001652661906
20
68.1973582526415
30
0.0
11
450.001652661906
21
40.1973582526415
31
0.0
39
0.0
210
0.0
220
0.0
230
1.0
0
ARC
5
1DD
330
70
100
AcDbEntity
67
0
8
IV_INTERIOR_PROFILES
62
256
6
ByLayer
370
-1
48
1.0
60
0
100
AcDbCircle
39
0.0
10
449.901652661906
20
40.1973582526415
30
0.0
40
0.100000000000051
210
0.0
220
0.0
230
1.0
100
AcDbArc
50
180.0
51
0.0
0
LINE
5
1DE
330
70
100
AcDbEntity
67
0
8
IV_INTERIOR_PROFILES
62
256
6
ByLayer
370
-1
48
1.0
60
0
100
AcDbLine
10
499.801652661906
20
40.1973582526415
30
0.0
11
499.801652661906
21
68.1973582526415
31
0.0
39
0.0
210
0.0
220
0.0
230
1.0
0
ARC
5
1DF
330
70
100
AcDbEntity
67
0
8
IV_INTERIOR_PROFILES
62
256
6
ByLayer
370
-1
48
1.0
60
0
100
AcDbCircle
39
0.0
10
499.901652661906
20
68.1973582526415
30
0.0
40
0.100000000000051
210
0.0
220
0.0
230
1.0
100
AcDbArc
50
359.999999999995
51
180.000000000005
0
LINE
5
1E0
330
70
100
AcDbEntity
67
0
8
IV_INTERIOR_PROFILES
62
256
6
ByLayer
370
-1
48
1.0
60
0
100
AcDbLine
10
500.001652661906
20
68.1973582526415
30
0.0
11
500.001652661906
21
40.1973582526415
31
0.0
39
0.0
210
0.0
220
0.0
230
1.0
0
ARC
5
1E1
330
70
100
AcDbEntity
67
0
8
IV_INTERIOR_PROFILES
62
256
6
ByLayer
370
-1
48
1.0
60
0
100
AcDbCircle
39
0.0
10
499.901652661906
20
40.1973582526415
30
0.0
40
0.100000000000051
210
0.0
220
0.0
230
1.0
100
AcDbArc
50
180.0
51
0.0000000000051159
0
LINE
5
1E2
330
70
100
AcDbEntity
67
0
8
IV_INTERIOR_PROFILES
62
256
6
ByLayer
370
-1
48
1.0
60
0
100
AcDbLine
10
479.801652661906
20
40.1973582526415
30
0.0
11
479.801652661906
21
68.1973582526415
31
0.0
39
0.0
210
0.0
220
0.0
230
1.0
0
ARC
5
1E3
330
70
100
AcDbEntity
67
0
8
IV_INTERIOR_PROFILES
62
256
6
ByLayer
370
-1
48
1.0
60
0
100
AcDbCircle
39
0.0
10
479.901652661906
20
68.1973582526415
30
0.0
40
0.100000000000051
210
0.0
220
0.0
230
1.0
100
AcDbArc
50
0.0
51
180.000000000005
0
LINE
5
1E4
330
70
100
AcDbEntity
67
0
8
IV_INTERIOR_PROFILES
62
256
6
ByLayer
370
-1
48
1.0
60
0
100
AcDbLine
10
480.001652661906
20
68.1973582526415
30
0.0
11
480.001652661906
21
40.1973582526415
31
0.0
39
0.0
210
0.0
220
0.0
230
1.0
0
ARC
5
1E5
330
70
100
AcDbEntity
67
0
8
IV_INTERIOR_PROFILES
62
256
6
ByLayer
370
-1
48
1.0
60
0
100
AcDbCircle
39
0.0
10
479.901652661906
20
40.1973582526415
30
0.0
40
0.100000000000051
210
0.0
220
0.0
230
1.0
100
AcDbArc
50
180.0
51
0.0
0
LINE
5
1E6
330
70
100
AcDbEntity
67
0
8
IV_INTERIOR_PROFILES
62
256
6
ByLayer
370
-1
48
1.0
60
0
100
AcDbLine
10
509.801652661906
20
40.1973582526415
30
0.0
11
509.801652661906
21
68.1973582526415
31
0.0
39
0.0
210
0.0
220
0.0
230
1.0
0
ARC
5
1E7
330
70
100
AcDbEntity
67
0
8
IV_INTERIOR_PROFILES
62
256
6
ByLayer
370
-1
48
1.0
60
0
100
AcDbCircle
39
0.0
10
509.901652661906
20
68.1973582526415
30
0.0
40
0.100000000000051
210
0.0
220
0.0
230
1.0
100
AcDbArc
50
359.999999999995
51
180.000000000005
0
LINE
5
1E8
330
70
100
AcDbEntity
67
0
8
IV_INTERIOR_PROFILES
62
256
6
ByLayer
370
-1
48
1.0
60
0
100
AcDbLine
10
510.001652661906
20
68.1973582526415
30
0.0
11
510.001652661906
21
40.1973582526415
31
0.0
39
0.0
210
0.0
220
0.0
230
1.0
0
ARC
5
1E9
330
70
100
AcDbEntity
67
0
8
IV_INTERIOR_PROFILES
62
256
6
ByLayer
370
-1
48
1.0
60
0
100
AcDbCircle
39
0.0
10
509.901652661906
20
40.1973582526415
30
0.0
40
0.100000000000051
210
0.0
220
0.0
230
1.0
100
AcDbArc
50
180.0
51
0.0
0
LINE
5
1EA
330
70
100
AcDbEntity
67
0
8
IV_INTERIOR_PROFILES
62
256
6
ByLayer
370
-1
48
1.0
60
0
100
AcDbLine
10
269.801652661906
20
40.1973582526415
30
0.0
11
269.801652661906
21
68.1973582526415
31
0.0
39
0.0
210
0.0
220
0.0
230
1.0
0
ARC
5
1EB
330
70
100
AcDbEntity
67
0
8
IV_INTERIOR_PROFILES
62
256
6
ByLayer
370
-1
48
1.0
60
0
100
AcDbCircle
39
0.0
10
269.901652661906
20
68.1973582526415
30
0.0
40
0.100000000000051
210
0.0
220
0.0
230
1.0
100
AcDbArc
50
359.999999999995
51
180.0
0
LINE
5
1EC
330
70
100
AcDbEntity
67
0
8
IV_INTERIOR_PROFILES
62
256
6
ByLayer
370
-1
48
1.0
60
0
100
AcDbLine
10
270.001652661906
20
68.1973582526415
30
0.0
11
270.001652661906
21
40.1973582526415
31
0.0
39
0.0
210
0.0
220
0.0
230
1.0
0
ARC
5
1ED
330
70
100
AcDbEntity
67
0
8
IV_INTERIOR_PROFILES
62
256
6
ByLayer
370
-1
48
1.0
60
0
100
AcDbCircle
39
0.0
10
269.901652661906
20
40.1973582526415
30
0.0
40
0.100000000000051
210
0.0
220
0.0
230
1.0
100
AcDbArc
50
180.0
51
0.0
0
LINE
5
1EE
330
70
100
AcDbEntity
67
0
8
IV_INTERIOR_PROFILES
62
256
6
ByLayer
370
-1
48
1.0
60
0
100
AcDbLine
10
179.801652661906
20
40.1973582526416
30
0.0
11
179.801652661906
21
68.1973582526416
31
0.0
39
0.0
210
0.0
220
0.0
230
1.0
0
ARC
5
1EF
330
70
100
AcDbEntity
67
0
8
IV_INTERIOR_PROFILES
62
256
6
ByLayer
370
-1
48
1.0
60
0
100
AcDbCircle
39
0.0
10
179.901652661906
20
68.1973582526416
30
0.0
40
0.100000000000051
210
0.0
220
0.0
230
1.0
100
AcDbArc
50
0.0
51
180.000000000005
0
LINE
5
1F0
330
70
100
AcDbEntity
67
0
8
IV_INTERIOR_PROFILES
62
256
6
ByLayer
370
-1
48
1.0
60
0
100
AcDbLine
10
180.001652661906
20
68.1973582526416
30
0.0
11
180.001652661906
21
40.1973582526416
31
0.0
39
0.0
210
0.0
220
0.0
230
1.0
0
ARC
5
1F1
330
70
100
AcDbEntity
67
0
8
IV_INTERIOR_PROFILES
62
256
6
ByLayer
370
-1
48
1.0
60
0
100
AcDbCircle
39
0.0
10
179.901652661906
20
40.1973582526416
30
0.0
40
0.100000000000051
210
0.0
220
0.0
230
1.0
100
AcDbArc
50
180.0
51
0.0
0
LINE
5
1F2
330
70
100
AcDbEntity
67
0
8
IV_INTERIOR_PROFILES
62
256
6
ByLayer
370
-1
48
1.0
60
0
100
AcDbLine
10
159.801652661906
20
40.1973582526416
30
0.0
11
159.801652661906
21
68.1973582526416
31
0.0
39
0.0
210
0.0
220
0.0
230
1.0
0
ARC
5
1F3
330
70
100
AcDbEntity
67
0
8
IV_INTERIOR_PROFILES
62
256
6
ByLayer
370
-1
48
1.0
60
0
100
AcDbCircle
39
0.0
10
159.901652661906
20
68.1973582526416
30
0.0
40
0.100000000000051
210
0.0
220
0.0
230
1.0
100
AcDbArc
50
0.0
51
180.0
0
LINE
5
1F4
330
70
100
AcDbEntity
67
0
8
IV_INTERIOR_PROFILES
62
256
6
ByLayer
370
-1
48
1.0
60
0
100
AcDbLine
10
160.001652661906
20
68.1973582526416
30
0.0
11
160.001652661906
21
40.1973582526416
31
0.0
39
0.0
210
0.0
220
0.0
230
1.0
0
ARC
5
1F5
330
70
100
AcDbEntity
67
0
8
IV_INTERIOR_PROFILES
62
256
6
ByLayer
370
-1
48
1.0
60
0
100
AcDbCircle
39
0.0
10
159.901652661906
20
40.1973582526416
30
0.0
40
0.100000000000051
210
0.0
220
0.0
230
1.0
100
AcDbArc
50
180.0
51
0.0
0
LINE
5
1F6
330
70
100
AcDbEntity
67
0
8
IV_INTERIOR_PROFILES
62
256
6
ByLayer
370
-1
48
1.0
60
0
100
AcDbLine
10
139.801652661906
20
40.1973582526416
30
0.0
11
139.801652661906
21
68.1973582526416
31
0.0
39
0.0
210
0.0
220
0.0
230
1.0
0
ARC
5
1F7
330
70
100
AcDbEntity
67
0
8
IV_INTERIOR_PROFILES
62
256
6
ByLayer
370
-1
48
1.0
60
0
100
AcDbCircle
39
0.0
10
139.901652661906
20
68.1973582526416
30
0.0
40
0.100000000000051
210
0.0
220
0.0
230
1.0
100
AcDbArc
50
359.999999999995
51
180.000000000005
0
LINE
5
1F8
330
70
100
AcDbEntity
67
0
8
IV_INTERIOR_PROFILES
62
256
6
ByLayer
370
-1
48
1.0
60
0
100
AcDbLine
10
140.001652661906
20
68.1973582526416
30
0.0
11
140.001652661906
21
40.1973582526416
31
0.0
39
0.0
210
0.0
220
0.0
230
1.0
0
ARC
5
1F9
330
70
100
AcDbEntity
67
0
8
IV_INTERIOR_PROFILES
62
256
6
ByLayer
370
-1
48
1.0
60
0
100
AcDbCircle
39
0.0
10
139.901652661906
20
40.1973582526416
30
0.0
40
0.100000000000051
210
0.0
220
0.0
230
1.0
100
AcDbArc
50
180.0
51
0.0000000000051159
0
LINE
5
1FA
330
70
100
AcDbEntity
67
0
8
IV_INTERIOR_PROFILES
62
256
6
ByLayer
370
-1
48
1.0
60
0
100
AcDbLine
10
259.801652661906
20
40.1973582526415
30
0.0
11
259.801652661906
21
68.1973582526415
31
0.0
39
0.0
210
0.0
220
0.0
230
1.0
0
ARC
5
1FB
330
70
100
AcDbEntity
67
0
8
IV_INTERIOR_PROFILES
62
256
6
ByLayer
370
-1
48
1.0
60
0
100
AcDbCircle
39
0.0
10
259.901652661906
20
68.1973582526415
30
0.0
40
0.100000000000051
210
0.0
220
0.0
230
1.0
100
AcDbArc
50
0.0
51
180.000000000005
0
LINE
5
1FC
330
70
100
AcDbEntity
67
0
8
IV_INTERIOR_PROFILES
62
256
6
ByLayer
370
-1
48
1.0
60
0
100
AcDbLine
10
260.001652661906
20
68.1973582526415
30
0.0
11
260.001652661906
21
40.1973582526415
31
0.0
39
0.0
210
0.0
220
0.0
230
1.0
0
ARC
5
1FD
330
70
100
AcDbEntity
67
0
8
IV_INTERIOR_PROFILES
62
256
6
ByLayer
370
-1
48
1.0
60
0
100
AcDbCircle
39
0.0
10
259.901652661906
20
40.1973582526415
30
0.0
40
0.100000000000051
210
0.0
220
0.0
230
1.0
100
AcDbArc
50
180.0
51
0.0
0
LINE
5
1FE
330
70
100
AcDbEntity
67
0
8
IV_INTERIOR_PROFILES
62
256
6
ByLayer
370
-1
48
1.0
60
0
100
AcDbLine
10
329.801652661906
20
40.1973582526415
30
0.0
11
329.801652661906
21
68.1973582526415
31
0.0
39
0.0
210
0.0
220
0.0
230
1.0
0
ARC
5
1FF
330
70
100
AcDbEntity
67
0
8
IV_INTERIOR_PROFILES
62
256
6
ByLayer
370
-1
48
1.0
60
0
100
AcDbCircle
39
0.0
10
329.901652661906
20
68.1973582526415
30
0.0
40
0.100000000000051
210
0.0
220
0.0
230
1.0
100
AcDbArc
50
0.0
51
180.000000000005
0
LINE
5
200
330
70
100
AcDbEntity
67
0
8
IV_INTERIOR_PROFILES
62
256
6
ByLayer
370
-1
48
1.0
60
0
100
AcDbLine
10
330.001652661906
20
68.1973582526415
30
0.0
11
330.001652661906
21
40.1973582526415
31
0.0
39
0.0
210
0.0
220
0.0
230
1.0
0
ARC
5
201
330
70
100
AcDbEntity
67
0
8
IV_INTERIOR_PROFILES
62
256
6
ByLayer
370
-1
48
1.0
60
0
100
AcDbCircle
39
0.0
10
329.901652661906
20
40.1973582526415
30
0.0
40
0.100000000000051
210
0.0
220
0.0
230
1.0
100
AcDbArc
50
180.0
51
0.0
0
LINE
5
202
330
70
100
AcDbEntity
67
0
8
IV_INTERIOR_PROFILES
62
256
6
ByLayer
370
-1
48
1.0
60
0
100
AcDbLine
10
399.801652661906
20
40.1973582526415
30
0.0
11
399.801652661906
21
68.1973582526415
31
0.0
39
0.0
210
0.0
220
0.0
230
1.0
0
ARC
5
203
330
70
100
AcDbEntity
67
0
8
IV_INTERIOR_PROFILES
62
256
6
ByLayer
370
-1
48
1.0
60
0
100
AcDbCircle
39
0.0
10
399.901652661906
20
68.1973582526415
30
0.0
40
0.100000000000051
210
0.0
220
0.0
230
1.0
100
AcDbArc
50
0.0
51
180.000000000005
0
LINE
5
204
330
70
100
AcDbEntity
67
0
8
IV_INTERIOR_PROFILES
62
256
6
ByLayer
370
-1
48
1.0
60
0
100
AcDbLine
10
400.001652661906
20
68.1973582526415
30
0.0
11
400.001652661906
21
40.1973582526415
31
0.0
39
0.0
210
0.0
220
0.0
230
1.0
0
ARC
5
205
330
70
100
AcDbEntity
67
0
8
IV_INTERIOR_PROFILES
62
256
6
ByLayer
370
-1
48
1.0
60
0
100
AcDbCircle
39
0.0
10
399.901652661906
20
40.1973582526415
30
0.0
40
0.100000000000051
210
0.0
220
0.0
230
1.0
100
AcDbArc
50
180.0
51
0.0
0
LINE
5
206
330
70
100
AcDbEntity
67
0
8
IV_INTERIOR_PROFILES
62
256
6
ByLayer
370
-1
48
1.0
60
0
100
AcDbLine
10
129.801652661906
20
40.1973582526416
30
0.0
11
129.801652661906
21
68.1973582526416
31
0.0
39
0.0
210
0.0
220
0.0
230
1.0
0
ARC
5
207
330
70
100
AcDbEntity
67
0
8
IV_INTERIOR_PROFILES
62
256
6
ByLayer
370
-1
48
1.0
60
0
100
AcDbCircle
39
0.0
10
129.901652661906
20
68.1973582526416
30
0.0
40
0.100000000000051
210
0.0
220
0.0
230
1.0
100
AcDbArc
50
359.999999999995
51
180.0
0
LINE
5
208
330
70
100
AcDbEntity
67
0
8
IV_INTERIOR_PROFILES
62
256
6
ByLayer
370
-1
48
1.0
60
0
100
AcDbLine
10
130.001652661906
20
68.1973582526416
30
0.0
11
130.001652661906
21
40.1973582526416
31
0.0
39
0.0
210
0.0
220
0.0
230
1.0
0
ARC
5
209
330
70
100
AcDbEntity
67
0
8
IV_INTERIOR_PROFILES
62
256
6
ByLayer
370
-1
48
1.0
60
0
100
AcDbCircle
39
0.0
10
129.901652661906
20
40.1973582526416
30
0.0
40
0.100000000000051
210
0.0
220
0.0
230
1.0
100
AcDbArc
50
180.0
51
0.0
0
LINE
5
20A
330
70
100
AcDbEntity
67
0
8
IV_INTERIOR_PROFILES
62
256
6
ByLayer
370
-1
48
1.0
60
0
100
AcDbLine
10
89.8016526619058
20
40.1973582526416
30
0.0
11
89.8016526619057
21
68.1973582526416
31
0.0
39
0.0
210
0.0
220
0.0
230
1.0
0
ARC
5
20B
330
70
100
AcDbEntity
67
0
8
IV_INTERIOR_PROFILES
62
256
6
ByLayer
370
-1
48
1.0
60
0
100
AcDbCircle
39
0.0
10
89.9016526619058
20
68.1973582526416
30
0.0
40
0.100000000000051
210
0.0
220
0.0
230
1.0
100
AcDbArc
50
0.0
51
180.0
0
LINE
5
20C
330
70
100
AcDbEntity
67
0
8
IV_INTERIOR_PROFILES
62
256
6
ByLayer
370
-1
48
1.0
60
0
100
AcDbLine
10
90.0016526619058
20
68.1973582526416
30
0.0
11
90.0016526619058
21
40.1973582526416
31
0.0
39
0.0
210
0.0
220
0.0
230
1.0
0
ARC
5
20D
330
70
100
AcDbEntity
67
0
8
IV_INTERIOR_PROFILES
62
256
6
ByLayer
370
-1
48
1.0
60
0
100
AcDbCircle
39
0.0
10
89.9016526619058
20
40.1973582526416
30
0.0
40
0.100000000000051
210
0.0
220
0.0
230
1.0
100
AcDbArc
50
180.0
51
0.0
0
LINE
5
20E
330
70
100
AcDbEntity
67
0
8
IV_INTERIOR_PROFILES
62
256
6
ByLayer
370
-1
48
1.0
60
0
100
AcDbLine
10
49.8016526619058
20
40.1973582526416
30
0.0
11
49.8016526619057
21
68.1973582526416
31
0.0
39
0.0
210
0.0
220
0.0
230
1.0
0
ARC
5
20F
330
70
100
AcDbEntity
67
0
8
IV_INTERIOR_PROFILES
62
256
6
ByLayer
370
-1
48
1.0
60
0
100
AcDbCircle
39
0.0
10
49.9016526619058
20
68.1973582526416
30
0.0
40
0.100000000000051
210
0.0
220
0.0
230
1.0
100
AcDbArc
50
359.999999999995
51
180.0
0
LINE
5
210
330
70
100
AcDbEntity
67
0
8
IV_INTERIOR_PROFILES
62
256
6
ByLayer
370
-1
48
1.0
60
0
100
AcDbLine
10
50.0016526619059
20
68.1973582526416
30
0.0
11
50.0016526619058
21
40.1973582526416
31
0.0
39
0.0
210
0.0
220
0.0
230
1.0
0
ARC
5
211
330
70
100
AcDbEntity
67
0
8
IV_INTERIOR_PROFILES
62
256
6
ByLayer
370
-1
48
1.0
60
0
100
AcDbCircle
39
0.0
10
49.9016526619058
20
40.1973582526416
30
0.0
40
0.100000000000051
210
0.0
220
0.0
230
1.0
100
AcDbArc
50
180.0
51
0.0
0
LINE
5
212
330
70
100
AcDbEntity
67
0
8
IV_INTERIOR_PROFILES
62
256
6
ByLayer
370
-1
48
1.0
60
0
100
AcDbLine
10
9.8016526619058
20
40.1973582526416
30
0.0
11
9.80165266190573
21
68.1973582526416
31
0.0
39
0.0
210
0.0
220
0.0
230
1.0
0
ARC
5
213
330
70
100
AcDbEntity
67
0
8
IV_INTERIOR_PROFILES
62
256
6
ByLayer
370
-1
48
1.0
60
0
100
AcDbCircle
39
0.0
10
9.90165266190579
20
68.1973582526416
30
0.0
40
0.100000000000051
210
0.0
220
0.0
230
1.0
100
AcDbArc
50
0.0
51
180.0
0
LINE
5
214
330
70
100
AcDbEntity
67
0
8
IV_INTERIOR_PROFILES
62
256
6
ByLayer
370
-1
48
1.0
60
0
100
AcDbLine
10
10.0016526619058
20
68.1973582526416
30
0.0
11
10.0016526619058
21
40.1973582526416
31
0.0
39
0.0
210
0.0
220
0.0
230
1.0
0
ARC
5
215
330
70
100
AcDbEntity
67
0
8
IV_INTERIOR_PROFILES
62
256
6
ByLayer
370
-1
48
1.0
60
0
100
AcDbCircle
39
0.0
10
9.90165266190578
20
40.1973582526416
30
0.0
40
0.100000000000051
210
0.0
220
0.0
230
1.0
100
AcDbArc
50
180.0
51
0.0
0
LINE
5
216
330
70
100
AcDbEntity
67
0
8
IV_INTERIOR_PROFILES
62
256
6
ByLayer
370
-1
48
1.0
60
0
100
AcDbLine
10
39.8016526619058
20
40.1973582526416
30
0.0
11
39.8016526619057
21
68.1973582526416
31
0.0
39
0.0
210
0.0
220
0.0
230
1.0
0
ARC
5
217
330
70
100
AcDbEntity
67
0
8
IV_INTERIOR_PROFILES
62
256
6
ByLayer
370
-1
48
1.0
60
0
100
AcDbCircle
39
0.0
10
39.9016526619058
20
68.1973582526416
30
0.0
40
0.100000000000051
210
0.0
220
0.0
230
1.0
100
AcDbArc
50
0.0
51
180.000000000005
0
LINE
5
218
330
70
100
AcDbEntity
67
0
8
IV_INTERIOR_PROFILES
62
256
6
ByLayer
370
-1
48
1.0
60
0
100
AcDbLine
10
40.0016526619058
20
68.1973582526416
30
0.0
11
40.0016526619058
21
40.1973582526416
31
0.0
39
0.0
210
0.0
220
0.0
230
1.0
0
ARC
5
219
330
70
100
AcDbEntity
67
0
8
IV_INTERIOR_PROFILES
62
256
6
ByLayer
370
-1
48
1.0
60
0
100
AcDbCircle
39
0.0
10
39.9016526619058
20
40.1973582526416
30
0.0
40
0.100000000000051
210
0.0
220
0.0
230
1.0
100
AcDbArc
50
180.0
51
0.0
0
LINE
5
21A
330
70
100
AcDbEntity
67
0
8
IV_INTERIOR_PROFILES
62
256
6
ByLayer
370
-1
48
1.0
60
0
100
AcDbLine
10
79.8016526619058
20
40.1973582526416
30
0.0
11
79.8016526619057
21
68.1973582526416
31
0.0
39
0.0
210
0.0
220
0.0
230
1.0
0
ARC
5
21B
330
70
100
AcDbEntity
67
0
8
IV_INTERIOR_PROFILES
62
256
6
ByLayer
370
-1
48
1.0
60
0
100
AcDbCircle
39
0.0
10
79.9016526619058
20
68.1973582526416
30
0.0
40
0.100000000000051
210
0.0
220
0.0
230
1.0
100
AcDbArc
50
359.999999999995
51
180.000000000005
0
LINE
5
21C
330
70
100
AcDbEntity
67
0
8
IV_INTERIOR_PROFILES
62
256
6
ByLayer
370
-1
48
1.0
60
0
100
AcDbLine
10
80.0016526619058
20
68.1973582526416
30
0.0
11
80.0016526619058
21
40.1973582526416
31
0.0
39
0.0
210
0.0
220
0.0
230
1.0
0
ARC
5
21D
330
70
100
AcDbEntity
67
0
8
IV_INTERIOR_PROFILES
62
256
6
ByLayer
370
-1
48
1.0
60
0
100
AcDbCircle
39
0.0
10
79.9016526619058
20
40.1973582526416
30
0.0
40
0.100000000000051
210
0.0
220
0.0
230
1.0
100
AcDbArc
50
180.0
51
0.0
0
LINE
5
21E
330
70
100
AcDbEntity
67
0
8
IV_INTERIOR_PROFILES
62
256
6
ByLayer
370
-1
48
1.0
60
0
100
AcDbLine
10
119.801652661906
20
40.1973582526416
30
0.0
11
119.801652661906
21
68.1973582526416
31
0.0
39
0.0
210
0.0
220
0.0
230
1.0
0
ARC
5
21F
330
70
100
AcDbEntity
67
0
8
IV_INTERIOR_PROFILES
62
256
6
ByLayer
370
-1
48
1.0
60
0
100
AcDbCircle
39
0.0
10
119.901652661906
20
68.1973582526416
30
0.0
40
0.100000000000051
210
0.0
220
0.0
230
1.0
100
AcDbArc
50
359.999999999995
51
180.0
0
LINE
5
220
330
70
100
AcDbEntity
67
0
8
IV_INTERIOR_PROFILES
62
256
6
ByLayer
370
-1
48
1.0
60
0
100
AcDbLine
10
120.001652661906
20
68.1973582526416
30
0.0
11
120.001652661906
21
40.1973582526416
31
0.0
39
0.0
210
0.0
220
0.0
230
1.0
0
ARC
5
221
330
70
100
AcDbEntity
67
0
8
IV_INTERIOR_PROFILES
62
256
6
ByLayer
370
-1
48
1.0
60
0
100
AcDbCircle
39
0.0
10
119.901652661906
20
40.1973582526416
30
0.0
40
0.100000000000051
210
0.0
220
0.0
230
1.0
100
AcDbArc
50
180.0
51
0.0
0
LINE
5
222
330
70
100
AcDbEntity
67
0
8
IV_INTERIOR_PROFILES
62
256
6
ByLayer
370
-1
48
1.0
60
0
100
AcDbLine
10
409.801652661906
20
40.1973582526415
30
0.0
11
409.801652661906
21
68.1973582526415
31
0.0
39
0.0
210
0.0
220
0.0
230
1.0
0
ARC
5
223
330
70
100
AcDbEntity
67
0
8
IV_INTERIOR_PROFILES
62
256
6
ByLayer
370
-1
48
1.0
60
0
100
AcDbCircle
39
0.0
10
409.901652661906
20
68.1973582526415
30
0.0
40
0.100000000000051
210
0.0
220
0.0
230
1.0
100
AcDbArc
50
359.999999999995
51
180.0
0
LINE
5
224
330
70
100
AcDbEntity
67
0
8
IV_INTERIOR_PROFILES
62
256
6
ByLayer
370
-1
48
1.0
60
0
100
AcDbLine
10
410.001652661906
20
68.1973582526415
30
0.0
11
410.001652661906
21
40.1973582526415
31
0.0
39
0.0
210
0.0
220
0.0
230
1.0
0
ARC
5
225
330
70
100
AcDbEntity
67
0
8
IV_INTERIOR_PROFILES
62
256
6
ByLayer
370
-1
48
1.0
60
0
100
AcDbCircle
39
0.0
10
409.901652661906
20
40.1973582526415
30
0.0
40
0.100000000000051
210
0.0
220
0.0
230
1.0
100
AcDbArc
50
180.0
51
0.0
0
LINE
5
226
330
70
100
AcDbEntity
67
0
8
IV_INTERIOR_PROFILES
62
256
6
ByLayer
370
-1
48
1.0
60
0
100
AcDbLine
10
339.801652661906
20
40.1973582526415
30
0.0
11
339.801652661906
21
68.1973582526415
31
0.0
39
0.0
210
0.0
220
0.0
230
1.0
0
ARC
5
227
330
70
100
AcDbEntity
67
0
8
IV_INTERIOR_PROFILES
62
256
6
ByLayer
370
-1
48
1.0
60
0
100
AcDbCircle
39
0.0
10
339.901652661906
20
68.1973582526415
30
0.0
40
0.100000000000051
210
0.0
220
0.0
230
1.0
100
AcDbArc
50
359.999999999995
51
180.0
0
LINE
5
228
330
70
100
AcDbEntity
67
0
8
IV_INTERIOR_PROFILES
62
256
6
ByLayer
370
-1
48
1.0
60
0
100
AcDbLine
10
340.001652661906
20
68.1973582526415
30
0.0
11
340.001652661906
21
40.1973582526415
31
0.0
39
0.0
210
0.0
220
0.0
230
1.0
0
ARC
5
229
330
70
100
AcDbEntity
67
0
8
IV_INTERIOR_PROFILES
62
256
6
ByLayer
370
-1
48
1.0
60
0
100
AcDbCircle
39
0.0
10
339.901652661906
20
40.1973582526415
30
0.0
40
0.100000000000051
210
0.0
220
0.0
230
1.0
100
AcDbArc
50
180.0
51
0.0
0
LINE
5
22A
330
70
100
AcDbEntity
67
0
8
IV_INTERIOR_PROFILES
62
256
6
ByLayer
370
-1
48
1.0
60
0
100
AcDbLine
10
289.801652661906
20
40.1973582526415
30
0.0
11
289.801652661906
21
68.1973582526415
31
0.0
39
0.0
210
0.0
220
0.0
230
1.0
0
ARC
5
22B
330
70
100
AcDbEntity
67
0
8
IV_INTERIOR_PROFILES
62
256
6
ByLayer
370
-1
48
1.0
60
0
100
AcDbCircle
39
0.0
10
289.901652661906
20
68.1973582526415
30
0.0
40
0.100000000000051
210
0.0
220
0.0
230
1.0
100
AcDbArc
50
359.999999999995
51
180.000000000005
0
LINE
5
22C
330
70
100
AcDbEntity
67
0
8
IV_INTERIOR_PROFILES
62
256
6
ByLayer
370
-1
48
1.0
60
0
100
AcDbLine
10
290.001652661906
20
68.1973582526415
30
0.0
11
290.001652661906
21
40.1973582526415
31
0.0
39
0.0
210
0.0
220
0.0
230
1.0
0
ARC
5
22D
330
70
100
AcDbEntity
67
0
8
IV_INTERIOR_PROFILES
62
256
6
ByLayer
370
-1
48
1.0
60
0
100
AcDbCircle
39
0.0
10
289.901652661906
20
40.1973582526415
30
0.0
40
0.100000000000051
210
0.0
220
0.0
230
1.0
100
AcDbArc
50
180.0
51
0.0
0
LINE
5
22E
330
70
100
AcDbEntity
67
0
8
IV_INTERIOR_PROFILES
62
256
6
ByLayer
370
-1
48
1.0
60
0
100
AcDbLine
10
229.801652661906
20
40.1973582526415
30
0.0
11
229.801652661906
21
68.1973582526415
31
0.0
39
0.0
210
0.0
220
0.0
230
1.0
0
ARC
5
22F
330
70
100
AcDbEntity
67
0
8
IV_INTERIOR_PROFILES
62
256
6
ByLayer
370
-1
48
1.0
60
0
100
AcDbCircle
39
0.0
10
229.901652661906
20
68.1973582526415
30
0.0
40
0.100000000000051
210
0.0
220
0.0
230
1.0
100
AcDbArc
50
0.0
51
180.0
0
LINE
5
230
330
70
100
AcDbEntity
67
0
8
IV_INTERIOR_PROFILES
62
256
6
ByLayer
370
-1
48
1.0
60
0
100
AcDbLine
10
230.001652661906
20
68.1973582526415
30
0.0
11
230.001652661906
21
40.1973582526415
31
0.0
39
0.0
210
0.0
220
0.0
230
1.0
0
ARC
5
231
330
70
100
AcDbEntity
67
0
8
IV_INTERIOR_PROFILES
62
256
6
ByLayer
370
-1
48
1.0
60
0
100
AcDbCircle
39
0.0
10
229.901652661906
20
40.1973582526415
30
0.0
40
0.100000000000051
210
0.0
220
0.0
230
1.0
100
AcDbArc
50
180.0
51
0.0
0
LINE
5
232
330
70
100
AcDbEntity
67
0
8
IV_INTERIOR_PROFILES
62
256
6
ByLayer
370
-1
48
1.0
60
0
100
AcDbLine
10
209.801652661906
20
40.1973582526415
30
0.0
11
209.801652661906
21
68.1973582526415
31
0.0
39
0.0
210
0.0
220
0.0
230
1.0
0
ARC
5
233
330
70
100
AcDbEntity
67
0
8
IV_INTERIOR_PROFILES
62
256
6
ByLayer
370
-1
48
1.0
60
0
100
AcDbCircle
39
0.0
10
209.901652661906
20
68.1973582526416
30
0.0
40
0.100000000000051
210
0.0
220
0.0
230
1.0
100
AcDbArc
50
359.999999999995
51
180.000000000005
0
LINE
5
234
330
70
100
AcDbEntity
67
0
8
IV_INTERIOR_PROFILES
62
256
6
ByLayer
370
-1
48
1.0
60
0
100
AcDbLine
10
210.001652661906
20
68.1973582526415
30
0.0
11
210.001652661906
21
40.1973582526416
31
0.0
39
0.0
210
0.0
220
0.0
230
1.0
0
ARC
5
235
330
70
100
AcDbEntity
67
0
8
IV_INTERIOR_PROFILES
62
256
6
ByLayer
370
-1
48
1.0
60
0
100
AcDbCircle
39
0.0
10
209.901652661906
20
40.1973582526415
30
0.0
40
0.100000000000051
210
0.0
220
0.0
230
1.0
100
AcDbArc
50
180.0
51
0.0000000000051159
0
LINE
5
236
330
70
100
AcDbEntity
67
0
8
IV_INTERIOR_PROFILES
62
256
6
ByLayer
370
-1
48
1.0
60
0
100
AcDbLine
10
189.801652661906
20
40.1973582526416
30
0.0
11
189.801652661906
21
68.1973582526416
31
0.0
39
0.0
210
0.0
220
0.0
230
1.0
0
ARC
5
237
330
70
100
AcDbEntity
67
0
8
IV_INTERIOR_PROFILES
62
256
6
ByLayer
370
-1
48
1.0
60
0
100
AcDbCircle
39
0.0
10
189.901652661906
20
68.1973582526416
30
0.0
40
0.100000000000051
210
0.0
220
0.0
230
1.0
100
AcDbArc
50
0.0
51
180.000000000005
0
LINE
5
238
330
70
100
AcDbEntity
67
0
8
IV_INTERIOR_PROFILES
62
256
6
ByLayer
370
-1
48
1.0
60
0
100
AcDbLine
10
190.001652661906
20
68.1973582526416
30
0.0
11
190.001652661906
21
40.1973582526416
31
0.0
39
0.0
210
0.0
220
0.0
230
1.0
0
ARC
5
239
330
70
100
AcDbEntity
67
0
8
IV_INTERIOR_PROFILES
62
256
6
ByLayer
370
-1
48
1.0
60
0
100
AcDbCircle
39
0.0
10
189.901652661906
20
40.1973582526416
30
0.0
40
0.100000000000051
210
0.0
220
0.0
230
1.0
100
AcDbArc
50
180.0
51
0.0
0
LINE
5
23A
330
70
100
AcDbEntity
67
0
8
IV_INTERIOR_PROFILES
62
256
6
ByLayer
370
-1
48
1.0
60
0
100
AcDbLine
10
369.801652661906
20
40.1973582526415
30
0.0
11
369.801652661906
21
68.1973582526415
31
0.0
39
0.0
210
0.0
220
0.0
230
1.0
0
ARC
5
23B
330
70
100
AcDbEntity
67
0
8
IV_INTERIOR_PROFILES
62
256
6
ByLayer
370
-1
48
1.0
60
0
100
AcDbCircle
39
0.0
10
369.901652661906
20
68.1973582526415
30
0.0
40
0.100000000000051
210
0.0
220
0.0
230
1.0
100
AcDbArc
50
359.999999999995
51
180.000000000005
0
LINE
5
23C
330
70
100
AcDbEntity
67
0
8
IV_INTERIOR_PROFILES
62
256
6
ByLayer
370
-1
48
1.0
60
0
100
AcDbLine
10
370.001652661906
20
68.1973582526415
30
0.0
11
370.001652661906
21
40.1973582526415
31
0.0
39
0.0
210
0.0
220
0.0
230
1.0
0
ARC
5
23D
330
70
100
AcDbEntity
67
0
8
IV_INTERIOR_PROFILES
62
256
6
ByLayer
370
-1
48
1.0
60
0
100
AcDbCircle
39
0.0
10
369.901652661906
20
40.1973582526415
30
0.0
40
0.100000000000051
210
0.0
220
0.0
230
1.0
100
AcDbArc
50
180.0
51
0.0
0
LINE
5
23E
330
70
100
AcDbEntity
67
0
8
IV_INTERIOR_PROFILES
62
256
6
ByLayer
370
-1
48
1.0
60
0
100
AcDbLine
10
349.801652661906
20
40.1973582526415
30
0.0
11
349.801652661906
21
68.1973582526415
31
0.0
39
0.0
210
0.0
220
0.0
230
1.0
0
ARC
5
23F
330
70
100
AcDbEntity
67
0
8
IV_INTERIOR_PROFILES
62
256
6
ByLayer
370
-1
48
1.0
60
0
100
AcDbCircle
39
0.0
10
349.901652661906
20
68.1973582526415
30
0.0
40
0.100000000000051
210
0.0
220
0.0
230
1.0
100
AcDbArc
50
359.999999999995
51
180.0
0
LINE
5
240
330
70
100
AcDbEntity
67
0
8
IV_INTERIOR_PROFILES
62
256
6
ByLayer
370
-1
48
1.0
60
0
100
AcDbLine
10
350.001652661906
20
68.1973582526415
30
0.0
11
350.001652661906
21
40.1973582526415
31
0.0
39
0.0
210
0.0
220
0.0
230
1.0
0
ARC
5
241
330
70
100
AcDbEntity
67
0
8
IV_INTERIOR_PROFILES
62
256
6
ByLayer
370
-1
48
1.0
60
0
100
AcDbCircle
39
0.0
10
349.901652661906
20
40.1973582526415
30
0.0
40
0.100000000000051
210
0.0
220
0.0
230
1.0
100
AcDbArc
50
180.0
51
0.0
0
LINE
5
242
330
70
100
AcDbEntity
67
0
8
IV_INTERIOR_PROFILES
62
256
6
ByLayer
370
-1
48
1.0
60
0
100
AcDbLine
10
459.801652661906
20
40.1973582526415
30
0.0
11
459.801652661906
21
68.1973582526415
31
0.0
39
0.0
210
0.0
220
0.0
230
1.0
0
ARC
5
243
330
70
100
AcDbEntity
67
0
8
IV_INTERIOR_PROFILES
62
256
6
ByLayer
370
-1
48
1.0
60
0
100
AcDbCircle
39
0.0
10
459.901652661906
20
68.1973582526415
30
0.0
40
0.100000000000051
210
0.0
220
0.0
230
1.0
100
AcDbArc
50
0.0
51
180.0
0
LINE
5
244
330
70
100
AcDbEntity
67
0
8
IV_INTERIOR_PROFILES
62
256
6
ByLayer
370
-1
48
1.0
60
0
100
AcDbLine
10
460.001652661906
20
68.1973582526415
30
0.0
11
460.001652661906
21
40.1973582526415
31
0.0
39
0.0
210
0.0
220
0.0
230
1.0
0
ARC
5
245
330
70
100
AcDbEntity
67
0
8
IV_INTERIOR_PROFILES
62
256
6
ByLayer
370
-1
48
1.0
60
0
100
AcDbCircle
39
0.0
10
459.901652661906
20
40.1973582526415
30
0.0
40
0.100000000000051
210
0.0
220
0.0
230
1.0
100
AcDbArc
50
180.0
51
359.999999999995
0
LINE
5
246
330
70
100
AcDbEntity
67
0
8
IV_INTERIOR_PROFILES
62
256
6
ByLayer
370
-1
48
1.0
60
0
100
AcDbLine
10
519.801652661906
20
40.1973582526415
30
0.0
11
519.801652661906
21
68.1973582526415
31
0.0
39
0.0
210
0.0
220
0.0
230
1.0
0
ARC
5
247
330
70
100
AcDbEntity
67
0
8
IV_INTERIOR_PROFILES
62
256
6
ByLayer
370
-1
48
1.0
60
0
100
AcDbCircle
39
0.0
10
519.901652661906
20
68.1973582526415
30
0.0
40
0.100000000000051
210
0.0
220
0.0
230
1.0
100
AcDbArc
50
0.0
51
180.0
0
LINE
5
248
330
70
100
AcDbEntity
67
0
8
IV_INTERIOR_PROFILES
62
256
6
ByLayer
370
-1
48
1.0
60
0
100
AcDbLine
10
520.001652661906
20
68.1973582526415
30
0.0
11
520.001652661906
21
40.1973582526415
31
0.0
39
0.0
210
0.0
220
0.0
230
1.0
0
ARC
5
249
330
70
100
AcDbEntity
67
0
8
IV_INTERIOR_PROFILES
62
256
6
ByLayer
370
-1
48
1.0
60
0
100
AcDbCircle
39
0.0
10
519.901652661906
20
40.1973582526415
30
0.0
40
0.100000000000051
210
0.0
220
0.0
230
1.0
100
AcDbArc
50
180.0
51
0.0
0
LINE
5
24A
330
70
100
AcDbEntity
67
0
8
IV_OUTER_PROFILE
62
256
6
ByLayer
370
-1
48
1.0
60
0
100
AcDbLine
10
2.19944594346654
20
9.59597388406985
30
0.0
11
3.20802342862966
21
0.0000001099050362
31
0.0
39
0.0
210
0.0
220
0.0
230
1.0
0
ARC
5
24B
330
70
100
AcDbEntity
67
0
8
IV_OUTER_PROFILE
62
256
6
ByLayer
370
-1
48
1.0
60
0
100
AcDbCircle
39
0.0
10
7.10455077894381
20
10.6590468495891
30
0.0
40
5.01898172710764
210
0.0
220
0.0
230
1.0
100
AcDbArc
50
187.316486499568
51
192.228472560767
0
LINE
5
24C
330
70
100
AcDbEntity
67
0
8
IV_OUTER_PROFILE
62
256
6
ByLayer
370
-1
48
1.0
60
0
100
AcDbLine
10
0.0016526619057593
20
38.123354188705
30
0.0
11
2.12643440666857
21
10.0198794527942
31
0.0
39
0.0
210
0.0
220
0.0
230
1.0
0
LINE
5
24D
330
70
100
AcDbEntity
67
0
8
IV_OUTER_PROFILE
62
256
6
ByLayer
370
-1
48
1.0
60
0
100
AcDbLine
10
3.20802342862968
20
78.5083683880459
30
0.0
11
2.19944594346656
21
68.9123946138805
31
0.0
39
0.0
210
0.0
220
0.0
230
1.0
0
ARC
5
24E
330
70
100
AcDbEntity
67
0
8
IV_OUTER_PROFILE
62
256
6
ByLayer
370
-1
48
1.0
60
0
100
AcDbCircle
39
0.0
10
25.2971068528756
20
64.7159198361647
30
0.0
40
23.475781990086
210
0.0
220
0.0
230
1.0
100
AcDbArc
50
169.70259729469
51
170.752443644973
0
LINE
5
24F
330
70
100
AcDbEntity
67
0
8
IV_OUTER_PROFILE
62
256
6
ByLayer
370
-1
48
1.0
60
0
100
AcDbLine
10
2.12643440666858
20
68.4884890451561
30
0.0
11
0.00165266190576
21
40.3850143092454
31
0.0
39
0.0
210
0.0
220
0.0
230
1.0
0
LINE
5
250
330
70
100
AcDbEntity
67
0
8
IV_OUTER_PROFILE
62
256
6
ByLayer
370
-1
48
1.0
60
0
100
AcDbLine
10
0.0016526619057593
20
38.123354188705
30
0.0
11
0.00165266190576
21
40.3850143092454
31
0.0
39
0.0
210
0.0
220
0.0
230
1.0
0
LINE
5
251
330
70
100
AcDbEntity
67
0
8
IV_OUTER_PROFILE
62
256
6
ByLayer
370
-1
48
1.0
60
0
100
AcDbLine
10
525.001652661906
20
0.000000109904903
30
0.0
11
3.20802342862966
21
0.0000001099050362
31
0.0
39
0.0
210
0.0
220
0.0
230
1.0
0
LINE
5
252
330
70
100
AcDbEntity
67
0
8
IV_OUTER_PROFILE
62
256
6
ByLayer
370
-1
48
1.0
60
0
100
AcDbLine
10
525.001652661906
20
78.5083683880452
30
0.0
11
525.001652661906
21
0.000000109904903
31
0.0
39
0.0
210
0.0
220
0.0
230
1.0
0
LINE
5
253
330
70
100
AcDbEntity
67
0
8
IV_OUTER_PROFILE
62
256
6
ByLayer
370
-1
48
1.0
60
0
100
AcDbLine
10
3.20802342862968
20
78.5083683880459
30
0.0
11
525.001652661906
21
78.5083683880452
31
0.0
39
0.0
210
0.0
220
0.0
230
1.0
0
ENDSEC
0
SECTION
2
OBJECTS
0
DICTIONARY
5
2BA
330
0
100
AcDbDictionary
280
1
281
1
3
ACAD_GROUP
350
D
3
ACAD_LAYOUT
350
62
3
ACAD_DGNDEFINITIONS
350
2B0
3
ACAD_DWFDEFINITIONS
350
2B1
3
ACAD_PDFDEFINITIONS
350
2B2
3
ACAD_MLINESTYLE
350
5F
3
ACAD_IMAGE_DICT
350
2AF
3
ACAD_IMAGE_VARS
350
2B3
0
DICTIONARY
5
D
330
2BA
100
AcDbDictionary
280
1
281
1
0
DICTIONARY
5
62
330
2BA
100
AcDbDictionary
280
1
281
1
3
Layout1
350
6F
3
Layout2
350
77
3
Model
350
73
0
DICTIONARY
5
2B0
330
2BA
100
AcDbDictionary
280
1
281
1
0
DICTIONARY
5
2B1
330
2BA
100
AcDbDictionary
280
1
281
1
0
DICTIONARY
5
2B2
330
2BA
100
AcDbDictionary
280
1
281
1
0
DICTIONARY
5
5F
330
2BA
100
AcDbDictionary
280
1
281
1
3
STANDARD
350
60
0
DICTIONARY
5
2AF
330
2BA
100
AcDbDictionary
280
1
281
1
0
DICTIONARY
5
2AD
330
2
100
AcDbDictionary
280
1
281
1
3
ACAD_LAYERSTATES
360
2BB
0
DICTIONARY
5
2BB
330
2AD
100
AcDbDictionary
280
1
281
1
0
LAYOUT
5
6F
330
62
100
AcDbPlotSettings
1

2

4

6

40
0.0
41
0.0
42
0.0
43
0.0
44
0.0
45
0.0
46
0.0
47
0.0
48
0.0
49
0.0
140
0.0
141
0.0
142
1.0
143
1.0
70
688
72
0
73
0
74
5
7

75
16
76
0
77
2
78
300
147
1.0
148
0.0
149
0.0
100
AcDbLayout
1
Layout1
71
1
10
0.0
20
0.0
11
12.0
21
9.0
12
0.0
22
0.0
32
0.0
14
0.0
24
0.0
34
0.0
15
0.0
25
0.0
35
0.0
146
0.0
13
0.0
23
0.0
33
0.0
16
1.0
26
0.0
36
0.0
17
0.0
27
1.0
37
0.0
76
0
330
6C
0
LAYOUT
5
77
330
62
100
AcDbPlotSettings
1

2

4

6

40
0.0
41
0.0
42
0.0
43
0.0
44
0.0
45
0.0
46
0.0
47
0.0
48
0.0
49
0.0
140
0.0
141
0.0
142
1.0
143
1.0
70
688
72
0
73
0
74
5
7

75
16
76
0
77
2
78
300
147
1.0
148
0.0
149
0.0
100
AcDbLayout
1
Layout2
71
2
10
0.0
20
0.0
11
12.0
21
9.0
12
0.0
22
0.0
32
0.0
14
0.0
24
0.0
34
0.0
15
0.0
25
0.0
35
0.0
146
0.0
13
0.0
23
0.0
33
0.0
16
1.0
26
0.0
36
0.0
17
0.0
27
1.0
37
0.0
76
0
330
74
0
LAYOUT
5
73
330
62
100
AcDbPlotSettings
1

2

4

6

40
0.0
41
0.0
42
0.0
43
0.0
44
0.0
45
0.0
46
0.0
47
0.0
48
0.0
49
0.0
140
0.0
141
0.0
142
1.0
143
1.0
70
1712
72
0
73
0
74
0
7

75
0
76
0
77
2
78
300
147
1.0
148
0.0
149
0.0
100
AcDbLayout
1
Model
71
3
10
0.0
20
0.0
11
12.0
21
9.0
12
0.0
22
0.0
32
0.0
14
0.0
24
0.0
34
0.0
15
0.0
25
0.0
35
0.0
146
0.0
13
0.0
23
0.0
33
0.0
16
1.0
26
0.0
36
0.0
17
0.0
27
1.0
37
0.0
76
0
330
70
0
MLINESTYLE
5
60
330
5F
100
AcDbMlineStyle
2
STANDARD
70
0
3

62
256
51
90.0
52
90.0
71
2
49
0.5
62
256
6
ByLayer
49
-0.5
62
256
6
ByLayer
0
RASTERVARIABLES
5
2B3
330
2AF
100
AcDbRasterVariables
90
0
70
1
71
1
72
0
0
ENDSEC
0
EOF
